<svg width="57" height="57" viewBox="0 0 57 57" fill="none" xmlns="http://www.w3.org/2000/svg">
<circle cx="28.5002" cy="28.5" r="22.5" fill="#ED4C5C"/>
<path d="M29.4212 19.6501C29.0307 19.2595 28.3975 19.2595 28.007 19.6501L21.643 26.014C21.2525 26.4046 21.2525 27.0377 21.643 27.4282C22.0336 27.8188 22.6667 27.8188 23.0573 27.4282L28.7141 21.7714L34.371 27.4282C34.7615 27.8188 35.3947 27.8188 35.7852 27.4282C36.1757 27.0377 36.1757 26.4046 35.7852 26.014L29.4212 19.6501ZM29.7141 37.5V20.3572H27.7141V37.5H29.7141Z" fill="white"/>
<path d="M0.000244141 28.5C0.00024355 35.2609 2.4037 41.8015 6.78131 46.9537C11.1589 52.1059 17.2256 55.5341 23.8976 56.6259C30.5697 57.7178 37.4127 56.4022 43.2042 52.9141C48.9957 49.426 53.3586 43.9926 55.5137 37.5844C57.6687 31.1762 57.4754 24.2107 54.9684 17.9318C52.4614 11.653 47.8039 6.46991 41.8279 3.3083C35.8519 0.146697 28.9465 -0.787487 22.3452 0.672616C15.744 2.13272 9.87673 5.89201 5.79152 11.279L7.15877 12.3159C10.998 7.25319 16.512 3.72024 22.7158 2.34805C28.9196 0.975856 35.4092 1.85379 41.0255 4.82505C46.6417 7.7963 51.0187 12.6673 53.3748 18.5681C55.7309 24.4689 55.9125 31.0151 53.8872 37.0375C51.862 43.0598 47.7617 48.1661 42.3189 51.4441C36.8761 54.7222 30.4451 55.9586 24.1748 54.9325C17.9044 53.9064 12.203 50.6847 8.08896 45.8427C3.97492 41.0007 1.71617 34.8538 1.71617 28.5H0.000244141Z" fill="#3E4347"/>
</svg>
