<svg width="57" height="57" viewBox="0 0 57 57" fill="none" xmlns="http://www.w3.org/2000/svg">
<circle cx="28.5" cy="28.5" r="19.5" fill="#ED4C5C"/>
<path d="M0 28.5C-5.9105e-07 35.2608 2.40345 41.8015 6.78107 46.9537C11.1587 52.1059 17.2253 55.5341 23.8974 56.6259C30.5695 57.7177 37.4124 56.4021 43.2039 52.914C48.9955 49.4259 53.3584 43.9925 55.5134 37.5844C57.6684 31.1762 57.4752 24.2106 54.9682 17.9318C52.4611 11.653 47.8037 6.46987 41.8276 3.30826C35.8516 0.146651 28.9463 -0.787532 22.345 0.672571C15.7437 2.13267 9.87648 5.89196 5.79128 11.279L8.97504 13.6934C12.4875 9.06161 17.5321 5.82937 23.2079 4.57398C28.8837 3.31858 34.8209 4.12179 39.9591 6.84014C45.0973 9.55849 49.1018 14.0149 51.2573 19.4135C53.4128 24.812 53.579 30.801 51.7261 36.3107C49.8732 41.8205 46.122 46.4921 41.1425 49.4912C36.1629 52.4902 30.2793 53.6214 24.5427 52.6826C18.806 51.7439 13.5899 48.7963 9.82606 44.3665C6.06219 39.9366 3.9957 34.313 3.9957 28.5H0Z" fill="#3E4347"/>
<path d="M29.7071 19.2929C29.3166 18.9024 28.6834 18.9024 28.2929 19.2929L21.9289 25.6569C21.5384 26.0474 21.5384 26.6805 21.9289 27.0711C22.3195 27.4616 22.9526 27.4616 23.3431 27.0711L29 21.4142L34.6569 27.0711C35.0474 27.4616 35.6805 27.4616 36.0711 27.0711C36.4616 26.6805 36.4616 26.0474 36.0711 25.6569L29.7071 19.2929ZM30 36L30 20H28L28 36H30Z" fill="white"/>
</svg>
