<svg width="284" height="228" viewBox="0 0 284 228" fill="none" xmlns="http://www.w3.org/2000/svg">
<path d="M154.23 225.278C154.23 223.774 155.442 222.554 156.938 222.554C158.433 222.554 159.644 223.774 159.644 225.278C159.644 226.781 158.433 228 156.938 228C155.442 228 154.23 226.781 154.23 225.278Z" fill="white"/>
<path d="M136.537 225.278C136.537 223.774 137.749 222.554 139.244 222.554C140.739 222.554 141.951 223.774 141.951 225.278C141.951 226.781 140.739 228 139.244 228C137.749 228 136.537 226.781 136.537 225.278Z" fill="white"/>
<path d="M118.843 225.278C118.843 223.774 120.055 222.554 121.551 222.554C123.045 222.554 124.257 223.774 124.257 225.278C124.257 226.781 123.045 228 121.551 228C120.055 228 118.843 226.781 118.843 225.278Z" fill="black"/>
<path d="M13.9593 121.19C13.7185 121.19 13.4762 121.148 13.2405 121.06L11.6147 120.456C10.5092 120.044 9.9524 118.816 10.3457 117.659L16.3163 100.104C16.5498 99.4164 17.0548 98.8498 17.7013 98.5503C18.3267 98.2596 19.0184 98.2383 19.6489 98.4894L23.6179 100.072C24.2403 100.32 24.727 100.804 24.9875 101.437C25.2568 102.09 25.2488 102.842 24.9664 103.5L17.9202 119.935C17.8604 120.075 17.6991 120.139 17.5605 120.079C17.4218 120.019 17.3576 119.857 17.4174 119.717L24.4643 103.282C24.6913 102.752 24.6978 102.171 24.4818 101.648C24.279 101.154 23.9003 100.776 23.4165 100.583L19.4475 99.0017C18.9579 98.8064 18.4186 98.8233 17.9297 99.0501C17.4189 99.2872 17.0197 99.7364 16.8337 100.282L10.8631 117.837C10.5668 118.709 10.9798 119.633 11.8044 119.939L13.4302 120.544C14.2453 120.847 15.1794 120.404 15.5129 119.557L20.8931 105.901C21.077 105.434 21.0762 104.926 20.8894 104.47C20.7048 104.017 20.3589 103.671 19.9167 103.494C19.4694 103.316 18.9776 103.333 18.5324 103.54C18.0661 103.756 17.702 104.167 17.5327 104.666L13.5441 116.463C13.4959 116.606 13.3398 116.684 13.1967 116.634C13.0537 116.586 12.9778 116.43 13.026 116.285L17.0146 104.488C17.2314 103.848 17.7006 103.32 18.3026 103.04C18.8856 102.769 19.5307 102.748 20.1181 102.983C20.6997 103.215 21.1536 103.668 21.3959 104.261C21.6367 104.849 21.6389 105.503 21.4017 106.105L16.0222 119.76C15.6749 120.641 14.8328 121.19 13.9593 121.19Z" fill="black"/>
<path d="M26.4258 73.8721C28.4208 72.2213 30.8807 71.822 32.7612 73.6467C34.6409 75.4715 34.8934 79.3249 33.0129 81.1489C30.9675 83.1336 26.1069 83.1064 23.4507 83.0602C18.3376 82.9714 13.1368 83.2187 8.02369 83.2187C-1.55899 83.2187 -0.520583 74.9393 2.03635 73.1748C3.27761 72.3175 4.9669 72.4555 6.09431 73.5058C5.61562 70.0201 7.74421 66.3171 10.6872 65.5171C13.6294 64.717 16.9387 66.9417 17.826 70.3159C19.1512 68.7085 21.3477 68.1837 23.107 69.0542C24.8656 69.9247 25.9967 71.7817 26.4258 73.8721Z" fill="white"/>
<path d="M3.84032 72.8937C3.26165 72.8937 2.68443 73.061 2.19114 73.4016C0.977619 74.2391 0.104881 76.7295 0.793006 78.963C1.252 80.4494 2.80045 82.9435 8.02378 82.9435C10.1859 82.9435 12.4028 82.8987 14.546 82.8547C17.4744 82.7952 20.5013 82.7343 23.4552 82.7849C25.6531 82.8238 30.8013 82.9126 32.8226 80.9514C33.5895 80.2071 34.0295 79.0151 34.0295 77.6815C34.0295 76.1658 33.4844 74.7316 32.5708 73.8449C30.9341 72.2558 28.7011 72.3454 26.6003 74.0842C26.5258 74.1458 26.4251 74.1635 26.3346 74.1312C26.2449 74.0989 26.1777 74.0218 26.158 73.9279C25.7136 71.7655 24.5578 70.0788 22.986 69.3008C21.3528 68.4926 19.2717 68.994 18.037 70.4913C17.9713 70.5713 17.8662 70.6065 17.767 70.5845C17.667 70.5625 17.5875 70.4862 17.5612 70.3864C17.1161 68.6916 16.0142 67.2272 14.5395 66.3699C13.3194 65.6602 11.976 65.451 10.7581 65.7828C7.96032 66.5439 5.9076 70.1353 6.36586 73.4684C6.38192 73.5829 6.32354 73.6959 6.22138 73.7495C6.11849 73.8031 5.99371 73.7869 5.90906 73.7077C5.33112 73.1704 4.5839 72.8937 3.84032 72.8937ZM8.02378 83.494C2.44946 83.494 0.773292 80.7577 0.270516 79.126C-0.500068 76.6275 0.48141 73.9139 1.88174 72.9472C3.03981 72.1487 4.58316 72.1538 5.76312 72.9039C5.58069 69.4586 7.69687 66.0448 10.6157 65.2513C11.9759 64.8814 13.466 65.1097 14.8138 65.8936C16.2747 66.7428 17.3978 68.1396 17.9487 69.7735C19.3768 68.3473 21.482 67.9429 23.2275 68.8075C24.8453 69.6076 26.0573 71.2642 26.5959 73.3898C28.8077 71.7501 31.2121 71.7611 32.951 73.4486C33.969 74.4365 34.5768 76.019 34.5768 77.6815C34.5768 79.1634 34.0762 80.5 33.2028 81.3471C31.018 83.4676 25.9041 83.378 23.4457 83.3354C20.5035 83.2848 17.4802 83.3457 14.5577 83.4052C12.4109 83.4485 10.1911 83.494 8.02378 83.494Z" fill="black"/>
<path d="M43.5832 96.8849L139.244 193.106L234.905 96.8849L139.244 0.66446L43.5832 96.8849ZM139.244 193.77C139.174 193.77 139.104 193.744 139.051 193.69L43.003 97.0801C42.9512 97.028 42.9227 96.9583 42.9227 96.8849C42.9227 96.8122 42.9512 96.7417 43.003 96.6904L139.051 0.0809226C139.157 -0.0269742 139.33 -0.0269742 139.438 0.0809226L235.486 96.6904C235.537 96.7417 235.566 96.8122 235.566 96.8849C235.566 96.9583 235.537 97.028 235.486 97.0801L139.438 193.69C139.384 193.744 139.314 193.77 139.244 193.77Z" fill="black"/>
<path d="M165.538 66.1394C166.406 69.8901 166.247 74.5209 166.247 74.5209L162.87 75.8406C162.87 75.8406 160.799 84.4041 173.85 81.7801C176.385 81.2699 183.726 75.663 183.726 75.663L177.921 73.9931C177.921 73.9931 177.365 65.506 177.143 61.2892C174.093 62.7183 169.198 64.99 165.538 66.1394Z" fill="white"/>
<path d="M163.108 76.0425C163.011 76.6062 162.749 78.7876 164.22 80.3261C165.875 82.0568 169.096 82.4546 173.796 81.51C175.89 81.0887 181.504 76.9813 183.12 75.7746L177.846 74.2582C177.735 74.2259 177.655 74.1275 177.648 74.0115C177.643 73.9293 177.123 65.9985 176.892 61.7106C174.296 62.9261 169.478 65.1581 165.859 66.3252C166.664 70.023 166.522 74.4842 166.52 74.5305C166.517 74.6398 166.448 74.7375 166.346 74.7771L163.108 76.0425ZM169.398 82.5567C166.866 82.5567 164.999 81.9379 163.822 80.7033C161.921 78.7113 162.575 75.8942 162.604 75.7753C162.625 75.688 162.687 75.616 162.77 75.5837L165.978 74.3308C165.995 73.4427 166.025 69.4593 165.27 66.2019C165.238 66.0617 165.319 65.9193 165.456 65.8767C169.239 64.6884 174.499 62.2244 177.028 61.0397C177.11 61.0008 177.207 61.0067 177.285 61.0529C177.362 61.1006 177.412 61.1828 177.417 61.2746C177.617 65.0891 178.098 72.4922 178.181 73.7818L183.801 75.398C183.9 75.4267 183.975 75.5096 183.994 75.6124C184.013 75.7144 183.974 75.8186 183.891 75.8817C183.589 76.1122 176.471 81.5335 173.903 82.0495C172.223 82.3878 170.721 82.5567 169.398 82.5567Z" fill="black"/>
<path d="M157.542 42.5225C156.35 42.8088 155.16 41.5955 155.136 40.3118C155.113 39.028 156.007 37.8668 157.108 37.3031C158.207 36.7394 159.475 36.6748 160.709 36.4965C160.245 35.2516 160.833 33.7543 161.861 32.9572C162.888 32.1593 164.246 31.9699 165.512 32.1263C166.342 32.2283 167.179 32.4808 167.834 33.024C168.49 33.5678 168.936 34.4428 168.901 35.3801C170.006 33.9789 171.791 33.0364 173.474 33.4423C175.156 33.8475 176.426 35.9159 176.553 37.3391C177.372 36.3284 178.442 35.4975 179.704 35.5658C182.206 35.7016 182.771 37.8411 181.645 40.5944C182.978 39.9345 184.963 40.5114 185.596 42.4579C186.068 43.9083 185.539 46.2145 184.536 47.3485C184.361 47.546 184.109 47.7376 183.8 47.9108C183.41 50.0643 182.923 52.3184 182.186 55.1597C181.654 57.2134 180.73 59.4888 179.649 61.3597C179.14 62.2398 178.744 62.6669 177.719 63.1477C177.662 62.2559 176.738 61.8133 176.595 60.9274C176.419 59.8374 177.116 58.8773 176.463 57.9114C175.218 56.072 174.371 54.0543 173.974 51.9844C173.647 50.2845 173.635 48.4965 174.433 46.9272C174.716 46.3686 175.121 45.8446 175.615 45.3932C175.395 44.9513 175.224 44.5007 175.085 44.0603C174.352 45.3264 173.815 46.1976 171.98 46.8032C170.64 47.245 169.047 46.7085 168.596 45.4233C168.311 46.7202 166.306 48.5508 165.046 48.6793C163.787 48.8084 163.314 48.2242 162.807 47.008C161.689 48.004 160.851 49.0206 159.71 49.4566C157.966 50.1223 155.808 49.0235 155.231 47.176C154.653 45.3286 155.766 43.087 157.542 42.5225Z" fill="#A6AEB0"/>
<path d="M175.085 43.785C175.095 43.785 175.105 43.7857 175.115 43.7865C175.222 43.7989 175.313 43.8731 175.346 43.9773C175.497 44.4566 175.665 44.8794 175.859 45.2699C175.915 45.38 175.89 45.5143 175.799 45.5972C175.331 46.0244 174.943 46.5272 174.676 47.0527C174.007 48.3702 173.864 49.9667 174.242 51.9323C174.635 53.9779 175.459 55.937 176.69 57.7565C177.144 58.4289 177.036 59.0865 176.93 59.7229C176.865 60.1192 176.803 60.4936 176.866 60.8833C176.923 61.2401 177.144 61.5256 177.376 61.828C177.58 62.0922 177.803 62.3829 177.919 62.7411C178.677 62.3344 179.001 61.9315 179.412 61.221C180.473 59.3874 181.387 57.1532 181.922 55.0899C182.6 52.4725 183.111 50.1759 183.531 47.8616C183.545 47.7808 183.595 47.7111 183.667 47.6707C183.95 47.5115 184.18 47.3368 184.331 47.1658C185.291 46.0809 185.77 43.8782 185.336 42.5438C185.073 41.7357 184.53 41.1213 183.805 40.8145C183.135 40.5305 182.373 40.5407 181.766 40.8409C181.664 40.8916 181.542 40.874 181.458 40.7955C181.375 40.7169 181.348 40.5951 181.392 40.4894C182.033 38.923 182.101 37.607 181.583 36.782C181.221 36.2058 180.584 35.8895 179.689 35.841C178.696 35.7896 177.708 36.3489 176.766 37.513C176.695 37.5996 176.58 37.6349 176.473 37.6026C176.366 37.5696 176.291 37.4756 176.281 37.364C176.168 36.0994 175.021 34.0978 173.41 33.7095C171.96 33.3594 170.274 34.0831 169.115 35.5511C169.042 35.6443 168.917 35.6788 168.806 35.6384C168.695 35.5973 168.623 35.4887 168.628 35.3698C168.658 34.5734 168.287 33.7557 167.661 33.2368C167.127 32.7935 166.393 32.5123 165.478 32.3993C164.115 32.2305 162.889 32.5065 162.028 33.1751C161.026 33.9524 160.57 35.3382 160.966 36.3996C160.995 36.4774 160.988 36.5647 160.945 36.6366C160.903 36.7086 160.831 36.757 160.749 36.7688C160.519 36.8018 160.288 36.8312 160.056 36.8605C159.043 36.989 158.086 37.1108 157.232 37.5483C156.308 38.0217 155.387 39.0581 155.41 40.3066C155.421 40.9217 155.74 41.547 156.243 41.9383C156.631 42.2407 157.07 42.353 157.478 42.2546C157.623 42.2194 157.767 42.306 157.806 42.4491C157.845 42.5915 157.765 42.7398 157.624 42.7846C155.998 43.302 154.962 45.3961 155.491 47.0931C155.751 47.924 156.377 48.6337 157.209 49.0389C157.996 49.4235 158.872 49.4815 159.613 49.1989C160.418 48.8914 161.072 48.2675 161.828 47.546C162.081 47.3038 162.344 47.0527 162.626 46.8017C162.692 46.743 162.782 46.7202 162.868 46.74C162.954 46.7599 163.026 46.8201 163.059 46.9015C163.54 48.0539 163.919 48.5163 165.019 48.4055C166.155 48.2902 168.073 46.5272 168.329 45.3645C168.356 45.2442 168.458 45.1561 168.58 45.1487C168.702 45.1399 168.814 45.2163 168.855 45.3322C169.271 46.5184 170.763 46.9155 171.895 46.5411C173.672 45.9554 174.166 45.1025 174.849 43.9215C174.898 43.8364 174.988 43.785 175.085 43.785ZM177.719 63.4229C177.67 63.4229 177.622 63.4097 177.58 63.384C177.502 63.3378 177.452 63.2563 177.446 63.1653C177.422 62.7866 177.201 62.4988 176.944 62.1656C176.691 61.8375 176.405 61.4669 176.326 60.9714C176.248 60.4921 176.321 60.0554 176.391 59.6326C176.486 59.055 176.569 58.5558 176.237 58.0663C174.964 56.185 174.112 54.1563 173.704 52.0365C173.303 49.9454 173.461 48.233 174.189 46.8017C174.456 46.2762 174.831 45.7712 175.281 45.3315C175.189 45.1333 175.102 44.9278 175.02 44.7113C174.416 45.7081 173.759 46.5059 172.066 47.0645C170.733 47.5041 169.329 47.0725 168.638 46.0949C167.986 47.3955 166.27 48.8319 165.074 48.9538C163.796 49.0844 163.213 48.5398 162.71 47.4674C162.537 47.6282 162.369 47.7882 162.205 47.9453C161.439 48.6763 160.715 49.3663 159.807 49.7135C158.926 50.0496 157.891 49.9843 156.97 49.5343C156.004 49.0631 155.275 48.2337 154.97 47.259C154.452 45.6009 155.175 43.6837 156.533 42.7244C156.317 42.6458 156.107 42.5284 155.908 42.3735C155.278 41.8832 154.877 41.0949 154.862 40.3169C154.839 39.0295 155.691 37.72 156.983 37.058C157.922 36.5765 158.973 36.4436 159.988 36.3144C160.111 36.299 160.233 36.2836 160.355 36.2674C160.069 35.0446 160.607 33.5818 161.694 32.7392C162.67 31.9809 164.038 31.6668 165.545 31.8525C166.564 31.9787 167.393 32.301 168.009 32.8118C168.596 33.2985 168.989 33.9781 169.125 34.7099C170.385 33.4152 172.06 32.8184 173.537 33.1744C175.088 33.548 176.349 35.2244 176.724 36.7255C177.673 35.7162 178.68 35.2355 179.719 35.2912C180.786 35.3485 181.591 35.7625 182.045 36.4884C182.593 37.3604 182.611 38.6419 182.108 40.1378C182.725 39.9917 183.405 40.0475 184.018 40.3066C184.89 40.6765 185.543 41.4105 185.856 42.3728C186.35 43.8907 185.829 46.3018 184.74 47.532C184.568 47.7265 184.335 47.9122 184.046 48.0854C183.629 50.3711 183.121 52.645 182.451 55.2294C181.904 57.3382 180.97 59.6231 179.886 61.4977C179.371 62.3873 178.953 62.8724 177.835 63.3973C177.798 63.4141 177.759 63.4229 177.719 63.4229Z" fill="black"/>
<path d="M159.478 49.7318C159.478 49.6665 159.479 49.5997 159.479 49.5322C159.557 49.5094 159.634 49.4852 159.71 49.4566C160.851 49.0206 161.689 48.004 162.807 47.008C163.314 48.2242 163.787 48.8084 165.046 48.6793C166.306 48.5508 168.311 46.7202 168.596 45.4233C169.047 46.7085 170.64 47.245 171.98 46.8032C173.815 46.1976 174.352 45.3264 175.085 44.0603C175.486 45.3279 176.137 46.6784 177.514 47.6686C178.018 48.0312 178.566 48.2778 179.128 48.4341C179.147 48.683 179.17 48.9245 179.196 49.1549C179.293 50.0071 179.513 51.8611 179.316 53.7365C180.745 52.5438 181.928 52.7434 182.815 53.6469C183.702 54.5505 183.629 55.9766 182.761 56.8648C181.893 57.7536 180.368 58.0905 179.028 57.8058C178.68 60.0753 178.162 64.6216 176.595 66.6313C174.927 68.7679 171.978 70.1361 168.928 70.1867C165.878 70.2374 162.809 68.9698 160.949 66.8911C158.837 64.5306 158.366 61.4067 158.544 58.4796C158.723 55.5517 159.468 52.6656 159.478 49.7318Z" fill="white"/>
<path d="M159.751 49.734C159.746 51.409 159.5 53.0869 159.263 54.7098C159.082 55.9502 158.894 57.2325 158.817 58.4964C158.606 61.9763 159.392 64.739 161.152 66.7069C162.965 68.7334 165.946 69.9665 168.924 69.9115C171.901 69.8616 174.758 68.5396 176.379 66.461C177.741 64.7163 178.306 60.8459 178.644 58.5339C178.685 58.2564 178.723 57.9981 178.758 57.7639C178.769 57.689 178.811 57.6223 178.873 57.5789C178.935 57.5364 179.012 57.521 179.085 57.5364C180.391 57.8138 181.789 57.4659 182.566 56.6717C183.359 55.8607 183.383 54.6166 182.62 53.84C181.723 52.9269 180.67 52.9636 179.49 53.9486C179.405 54.0198 179.285 54.0316 179.187 53.9794C179.088 53.9266 179.032 53.8187 179.044 53.7071C179.233 51.903 179.028 50.1062 178.931 49.2423L178.924 49.1865C178.904 49.0118 178.887 48.8305 178.871 48.6455C178.317 48.4708 177.808 48.2176 177.354 47.8925C176.052 46.9552 175.397 45.7184 175.019 44.7128C174.416 45.7081 173.758 46.5066 172.066 47.0645C170.733 47.5041 169.329 47.0725 168.638 46.0949C167.986 47.3955 166.27 48.8319 165.074 48.9538C163.796 49.0844 163.213 48.5398 162.71 47.4674C162.537 47.6282 162.369 47.7882 162.205 47.9453C161.439 48.6763 160.715 49.3663 159.807 49.7135C159.789 49.7208 159.77 49.7274 159.751 49.734ZM168.75 70.4634C165.677 70.4634 162.624 69.1753 160.746 67.0753C158.883 64.9937 158.05 62.0959 158.272 58.4627C158.35 57.1753 158.539 55.8812 158.722 54.6298C158.956 53.026 159.199 51.3672 159.204 49.7311C159.204 49.6651 159.205 49.5968 159.206 49.5278C159.208 49.4067 159.288 49.301 159.403 49.2672C159.473 49.2474 159.543 49.2254 159.612 49.199C160.418 48.8914 161.072 48.2675 161.828 47.546C162.081 47.3038 162.344 47.0527 162.626 46.8017C162.692 46.743 162.782 46.7202 162.868 46.74C162.954 46.7599 163.026 46.8201 163.059 46.9015C163.54 48.0539 163.919 48.5163 165.019 48.4055C166.155 48.2902 168.073 46.5272 168.329 45.3645C168.356 45.2442 168.458 45.1561 168.58 45.1487C168.702 45.1399 168.814 45.2163 168.855 45.3322C169.271 46.5184 170.763 46.9155 171.895 46.5411C173.672 45.9554 174.166 45.1025 174.849 43.9215C174.903 43.8276 175.006 43.7755 175.115 43.7865C175.222 43.7989 175.313 43.8731 175.346 43.9773C175.661 44.9733 176.244 46.4164 177.673 47.4447C178.124 47.7684 178.637 48.0121 179.201 48.1692C179.311 48.2 179.391 48.2969 179.4 48.4121C179.42 48.6573 179.442 48.8958 179.468 49.1234L179.474 49.1799C179.564 49.9667 179.74 51.511 179.638 53.1566C180.86 52.3698 182.041 52.4674 183.01 53.4532C183.985 54.4463 183.961 56.0295 182.956 57.0578C182.111 57.9224 180.654 58.3357 179.257 58.1265C179.234 58.2806 179.21 58.4436 179.185 58.6139C178.817 61.1329 178.261 64.9409 176.81 66.8008C175.089 69.0065 172.07 70.4099 168.933 70.462C168.872 70.4627 168.811 70.4634 168.75 70.4634Z" fill="black"/>
<path d="M162.184 53.9802C162.143 53.6198 162.417 53.2917 162.796 53.2491C163.175 53.2058 163.515 53.4634 163.556 53.8246C163.596 54.185 163.322 54.5123 162.943 54.5556C162.565 54.5989 162.225 54.3413 162.184 53.9802Z" fill="black"/>
<path d="M171.802 54.502C171.761 54.1417 172.036 53.8135 172.414 53.771C172.793 53.7277 173.133 53.9853 173.174 54.3464C173.215 54.7068 172.94 55.0342 172.562 55.0775C172.183 55.1208 171.843 54.8632 171.802 54.502Z" fill="black"/>
<path d="M168.941 65.8862C168.641 65.8862 168.34 65.8488 168.047 65.7703C167.901 65.7321 167.814 65.5809 167.853 65.4341C167.891 65.2873 168.041 65.2 168.187 65.2381C169.304 65.5354 170.559 65.1427 171.31 64.2605C171.409 64.1452 171.582 64.1313 171.696 64.2304C171.811 64.3294 171.825 64.5027 171.726 64.6186C171.039 65.4268 169.991 65.8862 168.941 65.8862Z" fill="black"/>
<path d="M167.304 62.2508C166.842 62.2508 166.351 62.1583 165.839 61.9733C165.566 61.8743 165.255 61.7385 165.029 61.4764C164.739 61.1403 164.635 60.6456 164.746 60.1186C164.823 59.7508 164.985 59.422 165.142 59.1042L165.212 58.9611C166.038 57.2582 166.47 55.3571 166.459 53.4634C166.459 53.3115 166.581 53.1875 166.732 53.1867C166.732 53.1867 166.733 53.1867 166.733 53.1867C166.884 53.1867 167.006 53.3086 167.007 53.4605C167.017 55.4386 166.567 57.4241 165.703 59.2025L165.632 59.3486C165.485 59.6488 165.344 59.9329 165.282 60.2323C165.208 60.5839 165.268 60.9135 165.442 61.1153C165.586 61.2819 165.817 61.3803 166.024 61.4552C166.636 61.6761 167.204 61.748 167.712 61.6695C168.286 61.5814 168.795 61.2783 169.075 60.8599C169.159 60.7336 169.329 60.7006 169.454 60.785C169.58 60.8694 169.613 61.0404 169.529 61.1667C169.16 61.7194 168.528 62.1011 167.796 62.2141C167.636 62.2383 167.472 62.2508 167.304 62.2508Z" fill="black"/>
<path d="M179.162 55.5039C179.15 55.5039 179.138 55.5032 179.126 55.5017C178.976 55.4819 178.871 55.3432 178.891 55.1927C178.995 54.3949 179.034 53.9699 179.104 53.1985C179.118 53.0465 179.25 52.9372 179.402 52.9496C179.552 52.9636 179.663 53.0972 179.649 53.2491C179.579 54.0272 179.539 54.4558 179.433 55.2647C179.415 55.4034 179.298 55.5039 179.162 55.5039Z" fill="black"/>
<path d="M157.009 47.7941C156.986 47.7941 156.962 47.7845 156.944 47.7662C156.288 47.0895 156.048 46.0325 156.347 45.137C156.363 45.0893 156.415 45.0629 156.463 45.0798C156.51 45.0959 156.536 45.148 156.519 45.1958C156.242 46.0281 156.465 47.0094 157.075 47.6385C157.11 47.6744 157.109 47.7324 157.073 47.7684C157.055 47.7853 157.032 47.7941 157.009 47.7941Z" fill="black"/>
<path d="M182.459 46.8891C182.434 46.8891 182.409 46.8788 182.391 46.8582C182.358 46.8201 182.361 46.7621 182.399 46.7283C183.493 45.7565 183.921 44.1095 183.44 42.723C183.424 42.6752 183.448 42.6231 183.496 42.6062C183.544 42.5894 183.596 42.6151 183.612 42.6628C184.117 44.1175 183.668 45.8461 182.52 46.8663C182.503 46.8817 182.481 46.8891 182.459 46.8891Z" fill="black"/>
<path d="M120.388 94.7504C117.503 88.0785 114.122 75.801 110.702 69.2787C108.494 67.8628 105.988 65.3739 104.692 62.9025C104.164 61.8977 104.083 61.4595 104.64 60.5861C105.047 59.9482 105.998 59.9284 106.65 60.1603C106.243 59.5438 105.475 59.0674 106.162 58.2065C106.47 57.8189 106.968 57.5437 107.431 57.7169C106.926 56.4016 108.272 55.2764 109.395 56.406C108.396 54.8631 107.486 53.4832 106.489 52.071C105.873 51.1968 105.231 50.1318 105.747 49.6129C106.408 48.9472 107.412 49.8536 108.609 51.2915C110.651 53.7445 111.329 54.5622 113.467 56.7128C115.479 58.7364 117.624 62.7917 116.788 64.6326C117.459 67.4364 127.637 83.6884 130.974 87.045C132.192 88.2708 131.198 89.451 130.912 91.1598C130.566 93.2245 129.067 100.492 123.855 98.129C122.378 97.4589 120.561 95.149 120.388 94.7504Z" fill="white"/>
<path d="M105.862 60.2998C105.454 60.2998 105.065 60.4283 104.87 60.7351C104.372 61.5146 104.442 61.8375 104.934 62.7749C106.287 65.3548 108.88 67.7836 110.849 69.0468C110.889 69.0725 110.921 69.1077 110.944 69.1503C112.955 72.9854 114.927 78.7245 116.833 84.2749C118.177 88.1871 119.446 91.8828 120.638 94.6404C120.793 94.9978 122.562 97.2402 123.967 97.878C125.198 98.4358 126.297 98.4645 127.232 97.9617C129.394 96.8012 130.296 93.1731 130.641 91.1143C130.725 90.6144 130.869 90.1535 130.995 89.7468C131.31 88.7339 131.538 88.0022 130.78 87.2395C127.508 83.9483 117.247 67.7264 116.521 64.6972C116.507 64.6377 116.513 64.5746 116.539 64.5181C117.265 62.9194 115.351 58.9963 113.273 56.9073C111.144 54.7648 110.465 53.9493 108.448 51.5272L108.399 51.4684C107.765 50.7073 106.855 49.6922 106.274 49.6658C106.145 49.6577 106.042 49.7054 105.94 49.8074C105.523 50.2265 106.418 51.4949 106.712 51.9118C107.767 53.4062 108.735 54.883 109.624 56.2563C109.701 56.3737 109.676 56.5315 109.567 56.6203C109.458 56.7091 109.301 56.7003 109.201 56.6005C108.807 56.2042 108.358 56.1073 108 56.3421C107.691 56.544 107.461 57.0299 107.686 57.6178C107.725 57.7191 107.701 57.8336 107.625 57.9107C107.55 57.9878 107.436 58.0127 107.336 57.9753C106.996 57.8468 106.608 58.0861 106.374 58.379C105.991 58.8612 106.167 59.1174 106.57 59.6062C106.675 59.7339 106.783 59.8653 106.877 60.0077C106.943 60.1068 106.938 60.236 106.866 60.3299C106.793 60.4231 106.669 60.4591 106.558 60.4195C106.342 60.3431 106.099 60.2998 105.862 60.2998ZM125.798 98.8711C125.152 98.8711 124.465 98.7074 123.743 98.3801C122.185 97.6732 120.333 95.3134 120.136 94.8606C118.936 92.0831 117.663 88.3772 116.315 84.4548C114.426 78.955 112.473 73.2695 110.493 69.4711C108.471 68.1587 105.835 65.6734 104.449 63.0317C103.885 61.955 103.794 61.4008 104.409 60.4378C104.738 59.9218 105.364 59.7258 105.983 59.7523C105.655 59.3236 105.365 58.7658 105.948 58.0347C106.26 57.6428 106.667 57.416 107.066 57.3918C106.983 56.7818 107.217 56.1975 107.702 55.8805C107.938 55.7248 108.251 55.6324 108.594 55.6764C107.868 54.5659 107.093 53.4025 106.266 52.2303C105.546 51.2101 104.898 50.0775 105.553 49.4177C105.764 49.2048 106.016 49.1043 106.299 49.116C106.93 49.1439 107.66 49.723 108.819 51.1154L108.867 51.1734C110.872 53.5816 111.547 54.3927 113.66 56.5183C115.621 58.4905 117.887 62.5958 117.076 64.6539C117.885 67.5069 127.775 83.4389 131.167 86.8505C132.16 87.8487 131.848 88.8506 131.518 89.912C131.39 90.3208 131.259 90.7429 131.181 91.206C130.819 93.3647 129.858 97.1763 127.49 98.4476C126.963 98.7302 126.398 98.8711 125.798 98.8711Z" fill="black"/>
<path d="M108.41 64.0593C108.262 64.0593 108.109 64.0314 107.958 63.9734C107.644 63.8523 107.396 63.6329 107.177 63.4398L106.172 62.5539C106.058 62.4541 106.046 62.2801 106.146 62.1656C106.246 62.0511 106.419 62.0394 106.532 62.1399L107.537 63.0258C107.731 63.1969 107.932 63.373 108.155 63.4589C108.358 63.5374 108.568 63.5228 108.691 63.42C108.819 63.3136 108.869 63.0875 108.812 62.8717C108.749 62.6273 108.58 62.4064 108.414 62.2016C107.784 61.428 107.628 61.3032 107.164 60.934C106.989 60.7952 106.772 60.622 106.474 60.371C106.358 60.2734 106.343 60.1002 106.44 59.9835C106.537 59.8675 106.71 59.8513 106.826 59.949C107.118 60.1956 107.331 60.3659 107.503 60.5024C107.988 60.8885 108.17 61.0331 108.837 61.8529C109.033 62.0937 109.25 62.3799 109.342 62.7315C109.454 63.1609 109.336 63.5976 109.04 63.8442C108.87 63.9859 108.647 64.0593 108.41 64.0593Z" fill="black"/>
<path d="M110.237 63.1778C110.006 63.1778 109.776 63.1015 109.567 63.0171C109.314 62.9143 109.061 62.8042 108.816 62.6882C108.679 62.6236 108.621 62.4592 108.684 62.3219C108.749 62.184 108.912 62.1245 109.048 62.1891C109.285 62.3014 109.528 62.4078 109.772 62.5062C109.99 62.595 110.233 62.6743 110.392 62.5935C110.588 62.493 110.631 62.1612 110.571 61.886C110.476 61.4412 109.833 60.4033 107.313 57.9841L107.241 57.9158C107.133 57.8108 107.128 57.6362 107.233 57.5268C107.338 57.4167 107.511 57.413 107.62 57.518L107.691 57.5855C109.051 58.8928 110.886 60.7475 111.106 61.7693C111.21 62.2515 111.107 62.8446 110.64 63.0838C110.508 63.1514 110.373 63.1778 110.237 63.1778Z" fill="black"/>
<path d="M112.058 64.9078C111.961 64.9078 111.866 64.855 111.817 64.761C111.203 63.5933 111.717 62.4057 112.091 61.5381C112.215 61.2518 112.423 60.7718 112.366 60.6749C112.097 60.3864 110.865 60.283 110.338 60.2389C110.011 60.211 109.863 60.1978 109.771 60.1677C109.115 59.9519 108.84 59.5974 108.725 59.3383C108.623 59.1064 108.61 58.8568 108.693 58.6689C108.801 58.4238 109.221 57.8828 109.557 57.7705C110.165 57.5679 111.604 57.612 112.905 57.6699C113.073 57.6773 113.219 57.6839 113.332 57.6876C113.826 57.7037 115.28 58.2388 115.452 58.8297C115.495 58.9757 115.412 59.1284 115.267 59.171C115.122 59.2135 114.97 59.1306 114.928 58.9845C114.846 58.7555 113.76 58.252 113.313 58.2373C113.199 58.2336 113.052 58.227 112.881 58.2197C111.976 58.1801 110.292 58.1052 109.729 58.2931C109.607 58.3342 109.277 58.7034 109.193 58.892C109.186 58.9082 109.172 58.9926 109.225 59.1144C109.283 59.2429 109.451 59.4836 109.941 59.6444C109.987 59.6569 110.198 59.6745 110.384 59.6899C111.38 59.7736 112.385 59.8895 112.765 60.2991C113.078 60.6353 112.864 61.1307 112.593 61.7575C112.244 62.5649 111.81 63.5698 112.301 64.5041C112.371 64.6385 112.32 64.8051 112.186 64.8763C112.145 64.8983 112.101 64.9078 112.058 64.9078Z" fill="black"/>
<path d="M110.702 58.1713C110.608 58.1713 110.516 58.1221 110.466 58.034C110.332 57.8035 109.912 57.347 109.573 56.98C109.394 56.7855 109.225 56.602 109.108 56.4625C109.01 56.3466 109.024 56.1726 109.14 56.075C109.254 55.9766 109.427 55.9906 109.525 56.1065C109.635 56.2365 109.8 56.4163 109.974 56.6057C110.369 57.0328 110.775 57.4747 110.939 57.758C111.014 57.8894 110.97 58.0582 110.839 58.1346C110.796 58.1595 110.749 58.1713 110.702 58.1713Z" fill="black"/>
<path d="M111.16 62.355C111.097 62.355 111.034 62.3477 110.973 62.333C110.827 62.2963 110.737 62.1473 110.773 61.9998C110.809 61.8522 110.957 61.7605 111.104 61.7979C111.218 61.8258 111.408 61.7641 111.533 61.5909C111.728 61.3223 111.679 60.9083 111.399 60.4547C111.32 60.3255 111.359 60.156 111.488 60.076C111.616 59.996 111.785 60.0356 111.864 60.1648C112.436 61.0918 112.133 61.6974 111.976 61.9146C111.777 62.1899 111.461 62.355 111.16 62.355Z" fill="black"/>
<path d="M206.853 105.38C205.038 95.7905 205.025 85.4963 197.345 79.0482C193.658 75.9529 184.919 74.617 179.795 74.286C179.482 79.275 174.633 80.4618 171.53 80.2614C166.346 79.9275 165.423 78.9021 164.107 74.9437C162.944 75.4098 155.943 75.7635 151.396 79.8489C142.957 87.4325 131.904 86.253 131.302 86.8586C130.465 87.7004 132.524 95.0602 125.083 98.5268C121.953 99.9853 140.714 102.985 153.634 99.5449C153.15 106.347 157.106 125.182 158.508 132.82C171.985 142.273 198.176 132.589 198.176 132.589C198.176 132.589 196.057 126.314 196.057 121.58C196.057 119.233 204.22 124.09 205.304 124.283C205.664 124.347 206.481 124.051 206.625 123.713C207.536 121.569 208.521 114.203 206.853 105.38Z" fill="black"/>
<path d="M158.756 132.658C165.642 137.421 175.92 137.096 183.346 135.979C190.57 134.892 196.561 132.867 197.833 132.42C197.438 131.184 195.784 125.761 195.784 121.58C195.784 121.16 195.989 120.942 196.162 120.834C197.166 120.199 199.967 121.472 203.253 123.071C204.199 123.531 205.093 123.966 205.352 124.013C205.624 124.061 206.293 123.795 206.373 123.605C207.164 121.744 208.315 114.584 206.584 105.432C206.242 103.626 205.96 101.769 205.688 99.9743C204.474 91.9804 203.327 84.4298 197.169 79.2596C193.815 76.4433 185.916 74.9855 180.046 74.5789C179.833 76.7457 178.729 78.4302 176.839 79.4622C174.744 80.6072 172.416 80.5947 171.512 80.5367C166.364 80.2042 165.254 79.1671 163.934 75.2865C163.629 75.3658 163.191 75.445 162.642 75.5441C159.997 76.0227 155.073 76.9138 151.579 80.0545C144.935 86.0233 136.651 86.623 133.113 86.8792C132.392 86.9313 131.647 86.9856 131.487 87.0634C131.361 87.2205 131.328 87.9258 131.298 88.549C131.173 91.1892 130.939 96.1025 125.199 98.7764C125.093 98.8256 125.044 98.8645 125.021 98.8858C125.32 99.3563 128.816 100.341 135.04 100.721C139.025 100.963 146.73 101.099 153.564 99.2792C153.65 99.2565 153.741 99.277 153.809 99.3335C153.877 99.3901 153.914 99.4767 153.907 99.5655C153.503 105.246 156.28 119.711 157.94 128.354C158.259 130.017 158.536 131.461 158.756 132.658ZM174.571 137.227C168.87 137.227 162.892 136.231 158.351 133.046C158.292 133.005 158.252 132.941 158.239 132.87C158.016 131.653 157.731 130.173 157.402 128.458C155.668 119.426 153.067 105.874 153.339 99.9068C146.51 101.65 138.927 101.511 134.973 101.268C130.204 100.975 124.891 100.156 124.494 99.0473C124.43 98.8719 124.408 98.5379 124.969 98.2766C130.409 95.7428 130.632 91.046 130.752 88.5226C130.798 87.5412 130.826 86.9482 131.109 86.6641C131.305 86.4667 131.738 86.427 133.074 86.3301C136.556 86.0784 144.711 85.4882 151.214 79.6435C154.824 76.4 159.846 75.4905 162.545 75.0024C163.233 74.8784 163.777 74.7793 164.006 74.6876C164.076 74.6597 164.154 74.6619 164.223 74.6942C164.29 74.7257 164.343 74.7844 164.367 74.8564C165.653 78.7223 166.469 79.6589 171.547 79.987C172.403 80.042 174.607 80.0545 176.578 78.9785C178.398 77.9839 179.389 76.4 179.523 74.2692C179.528 74.1958 179.56 74.1275 179.615 74.0798C179.669 74.0314 179.74 74.0071 179.814 74.0115C185.79 74.3969 194.013 75.8928 197.52 78.8368C203.838 84.1406 205.053 92.1477 206.229 99.8906C206.501 101.682 206.782 103.533 207.122 105.329C208.722 113.786 207.921 121.363 206.877 123.821C206.669 124.311 205.714 124.639 205.256 124.554C204.938 124.498 204.233 124.159 203.014 123.566C201.011 122.592 197.281 120.776 196.453 121.3C196.396 121.336 196.331 121.4 196.331 121.58C196.331 126.213 198.414 132.438 198.435 132.5C198.483 132.642 198.41 132.796 198.27 132.848C198.205 132.872 191.602 135.293 183.437 136.522C180.755 136.926 177.705 137.227 174.571 137.227Z" fill="black"/>
<path d="M197.303 114.014C189.999 113.605 182.65 113.098 175.3 112.59C174.642 112.482 171.373 112.01 170.567 111.891C169.883 111.791 169.231 111.537 168.603 111.246C166.418 110.231 161.727 108.239 160.681 108.828C158.27 109.541 156.085 111.292 154.377 113.508C153.418 114.752 152.632 116.814 153.029 117.167C153.282 117.393 153.663 117.487 153.942 117.252C155.079 114.802 157.105 112.783 159.55 111.66C158.413 112.307 157.353 113.091 156.401 113.991C155.437 114.904 154.55 116.004 154.333 117.318C154.317 117.42 154.306 117.532 154.359 117.621C154.49 117.838 154.825 117.711 155.024 117.555C155.414 117.247 160.439 113.142 161.378 113.251C160.13 113.725 155.678 117.358 155.66 117.745C155.651 117.93 155.686 118.124 155.802 118.268C155.96 118.465 156.239 118.527 156.488 118.486C156.736 118.445 156.96 118.317 157.174 118.185C158.611 117.308 159.927 116.207 161.479 115.557C162.254 115.233 163.201 115.045 163.89 115.528C162.505 116.056 161.21 116.824 160.124 117.827C159.95 117.988 159.805 118.177 159.69 118.384C159.52 118.69 159.327 119.135 159.564 119.389C159.952 119.804 160.279 119.595 160.611 119.4C161.944 118.516 163.305 117.788 164.728 117.217C165.17 117.04 165.697 116.885 166.097 117.143C166.444 117.366 168.121 118.414 171.567 118.593C172.744 118.654 173.877 118.963 175.348 119.37C194.715 124.738 200.501 126.881 205.192 124.851C206.111 124.454 206.421 123.969 206.114 122.383C205.297 118.149 204.498 115.742 197.303 114.014Z" fill="white"/>
<path d="M165.599 116.732C165.822 116.732 166.042 116.781 166.245 116.911C166.818 117.28 168.485 118.157 171.582 118.318C172.814 118.383 174.022 118.717 175.42 119.105C178.002 119.821 180.376 120.488 182.471 121.077C196.41 124.998 201.106 126.319 205.084 124.599C205.824 124.279 206.141 123.961 205.846 122.436C205.037 118.246 204.288 115.979 197.264 114.288C189.858 113.872 182.448 113.36 175.281 112.865C175.273 112.865 175.265 112.863 175.256 112.862C174.777 112.782 172.87 112.505 171.609 112.321C171.137 112.253 170.743 112.196 170.527 112.164C169.747 112.048 169.028 111.746 168.488 111.496C164.62 109.7 161.465 108.703 160.815 109.068C160.797 109.078 160.778 109.086 160.759 109.092C158.56 109.742 156.37 111.371 154.593 113.677C153.618 114.943 153.059 116.708 153.219 116.971C153.35 117.087 153.563 117.165 153.725 117.07C154.889 114.604 156.968 112.544 159.436 111.41C159.571 111.348 159.727 111.404 159.794 111.535C159.86 111.667 159.812 111.828 159.684 111.9C158.566 112.536 157.524 113.307 156.588 114.192C155.407 115.31 154.776 116.317 154.603 117.363C154.595 117.413 154.593 117.443 154.593 117.461C154.646 117.456 154.752 117.418 154.855 117.338C154.885 117.314 154.943 117.268 155.024 117.203C160.43 112.864 161.141 112.947 161.409 112.978C161.535 112.992 161.634 113.091 161.65 113.217C161.665 113.343 161.593 113.464 161.474 113.508C160.321 113.947 156.285 117.23 155.932 117.799C155.932 117.924 155.961 118.028 156.015 118.095C156.108 118.212 156.297 118.239 156.443 118.215C156.641 118.182 156.835 118.071 157.032 117.95C157.505 117.661 157.975 117.341 158.429 117.032C159.355 116.4 160.313 115.747 161.374 115.303C162.137 114.983 163.221 114.724 164.046 115.301C164.13 115.36 164.174 115.46 164.161 115.561C164.149 115.663 164.082 115.749 163.987 115.785C162.576 116.323 161.338 117.078 160.309 118.03C160.16 118.168 160.032 118.332 159.929 118.518C159.651 119.018 159.732 119.167 159.763 119.201C159.982 119.435 160.103 119.381 160.45 119.176L160.473 119.162C161.841 118.254 163.205 117.532 164.627 116.962C164.919 116.844 165.262 116.732 165.599 116.732ZM201.262 125.89C197.55 125.89 192.265 124.404 182.323 121.607C180.229 121.019 177.856 120.351 175.275 119.636C173.907 119.257 172.727 118.93 171.553 118.868C168.326 118.7 166.56 117.768 165.95 117.375C165.652 117.183 165.195 117.327 164.829 117.473C163.442 118.029 162.111 118.734 160.762 119.63L160.726 119.651C160.394 119.847 159.892 120.142 159.365 119.578C158.956 119.14 159.328 118.469 159.451 118.249C159.583 118.012 159.746 117.802 159.938 117.625C160.862 116.771 161.944 116.068 163.161 115.53C162.634 115.448 162.043 115.619 161.584 115.811C160.575 116.234 159.64 116.871 158.736 117.487C158.276 117.801 157.8 118.124 157.316 118.42C157.081 118.565 156.827 118.709 156.532 118.758C156.158 118.821 155.796 118.699 155.588 118.441C155.443 118.259 155.373 118.014 155.386 117.732C155.388 117.704 155.39 117.66 155.437 117.575C155.413 117.594 155.389 117.614 155.365 117.633C155.282 117.7 155.223 117.747 155.192 117.771C155.011 117.914 154.725 118.049 154.471 118.003C154.325 117.975 154.202 117.89 154.125 117.763C154.076 117.683 154.055 117.598 154.048 117.516C153.696 117.755 153.215 117.702 152.848 117.374C152.198 116.794 153.345 114.399 154.16 113.34C156.027 110.917 158.246 109.269 160.578 108.572C161.844 107.937 166.683 110.051 168.718 110.996C169.224 111.231 169.896 111.514 170.606 111.619C170.822 111.651 171.215 111.708 171.688 111.777C172.94 111.959 174.828 112.233 175.332 112.316C182.501 112.812 189.913 113.324 197.318 113.74C197.335 113.74 197.351 113.742 197.367 113.746C204.725 115.513 205.553 118.032 206.383 122.331C206.69 123.921 206.417 124.622 205.301 125.105C204.079 125.632 202.806 125.89 201.262 125.89Z" fill="black"/>
<path d="M192.945 114.035C192.83 114.035 192.723 113.961 192.685 113.846C189.933 105.465 188.377 100.162 188.377 88.67C188.377 88.5181 188.499 88.3948 188.65 88.3948C188.802 88.3948 188.924 88.5181 188.924 88.67C188.924 100.078 190.471 105.345 193.205 113.673C193.252 113.817 193.175 113.973 193.031 114.021C193.003 114.03 192.973 114.035 192.945 114.035Z" fill="black"/>
<path d="M153.634 99.8209C153.569 99.8209 153.504 99.7974 153.452 99.7504C153.299 99.6131 153.298 99.4744 153.273 97.7701C153.255 96.5135 153.225 94.4099 153.107 91.2141C153.101 91.0621 153.22 90.9344 153.371 90.9285C153.522 90.9205 153.649 91.0416 153.654 91.1935C153.772 94.3959 153.803 96.5032 153.82 97.762C153.832 98.6237 153.842 99.2557 153.872 99.4084C153.929 99.5089 153.919 99.6381 153.838 99.7291C153.784 99.7893 153.709 99.8209 153.634 99.8209Z" fill="black"/>
<path d="M168.157 95.1123C162.98 95.1123 158.278 94.6521 155.798 93.3823C155.753 93.3596 155.735 93.3038 155.758 93.259C155.781 93.2135 155.836 93.1959 155.88 93.2186C160.995 95.8375 175.687 94.9802 184.315 93.7647C184.363 93.7581 184.411 93.7933 184.418 93.8433C184.425 93.8932 184.39 93.9401 184.341 93.9467C179.855 94.578 173.731 95.1123 168.157 95.1123Z" fill="white"/>
<path d="M173.679 102.421C166.81 102.421 160.527 101.321 155.818 100.164C155.769 100.151 155.739 100.102 155.75 100.053C155.763 100.004 155.812 99.9736 155.861 99.9853C163.086 101.762 174.02 103.401 185.081 101.124C185.133 101.115 185.179 101.146 185.189 101.196C185.2 101.246 185.168 101.295 185.119 101.305C181.238 102.103 177.373 102.421 173.679 102.421Z" fill="white"/>
<path d="M207.458 116.31C207.431 116.31 207.406 116.3 207.388 116.278C204.078 112.359 198.683 110.385 193.643 111.251C193.594 111.259 193.546 111.226 193.538 111.176C193.529 111.126 193.562 111.078 193.612 111.069C198.713 110.194 204.176 112.192 207.527 116.16C207.559 116.198 207.555 116.256 207.517 116.289C207.499 116.303 207.478 116.31 207.458 116.31Z" fill="white"/>
<path d="M206.853 112.693C206.842 112.693 206.831 112.691 206.82 112.686C206.283 112.469 205.845 112.076 205.423 111.696C205.276 111.564 205.124 111.427 204.97 111.301C204.031 110.527 202.901 110.023 201.701 109.845C201.651 109.838 201.617 109.791 201.624 109.741C201.631 109.691 201.68 109.655 201.728 109.664C202.96 109.847 204.122 110.364 205.086 111.159C205.242 111.287 205.396 111.426 205.545 111.56C205.955 111.929 206.38 112.311 206.887 112.516C206.934 112.535 206.957 112.589 206.938 112.636C206.924 112.671 206.89 112.693 206.853 112.693Z" fill="white"/>
<path d="M132.475 94.2029C132.464 94.2029 132.452 94.2007 132.441 94.1963C132.394 94.1772 132.372 94.1236 132.391 94.0766C133.241 91.9884 133.657 89.6925 133.597 87.4369C133.596 87.3856 133.635 87.3437 133.686 87.3422C133.687 87.3422 133.687 87.3422 133.688 87.3422C133.738 87.3422 133.778 87.3819 133.779 87.4318C133.841 89.7123 133.419 92.0347 132.56 94.1456C132.545 94.1816 132.511 94.2029 132.475 94.2029Z" fill="white"/>
<path d="M135.572 89.9978C135.566 89.9978 135.559 89.9971 135.552 89.9956C135.503 89.9839 135.472 89.9347 135.483 89.8855C135.664 89.0833 135.715 88.2612 135.634 87.4435C135.628 87.3929 135.666 87.3481 135.715 87.343C135.765 87.3371 135.81 87.3745 135.815 87.4252C135.898 88.2627 135.847 89.1046 135.661 89.9259C135.651 89.9685 135.614 89.9978 135.572 89.9978Z" fill="white"/>
<path d="M193.627 114.532C193.507 114.532 193.397 114.452 193.363 114.329C191.501 107.442 190.23 100.361 189.585 93.2825C189.571 93.1313 189.682 92.9977 189.833 92.9838C189.984 92.9706 190.116 93.0814 190.13 93.2326C190.772 100.279 192.037 107.328 193.891 114.184C193.931 114.331 193.845 114.482 193.699 114.523C193.675 114.529 193.651 114.532 193.627 114.532Z" fill="white"/>
<path d="M153.079 101.107C153.078 101.107 153.076 101.107 153.075 101.107C152.924 101.105 152.803 100.98 152.805 100.828L152.924 93.0043C152.926 92.8538 153.048 92.7334 153.197 92.7334C153.199 92.7334 153.2 92.7334 153.202 92.7334C153.353 92.7356 153.473 92.8604 153.471 93.0124L153.353 100.836C153.35 100.986 153.228 101.107 153.079 101.107Z" fill="white"/>
<path d="M47.9373 133.292C48.7859 130.044 52.0923 128.104 55.3205 128.958C58.5496 129.813 60.479 133.138 59.6296 136.385C58.7809 139.633 55.4745 141.574 52.2455 140.72C49.0173 139.865 47.0879 136.54 47.9373 133.292Z" fill="#7D8B91"/>
<path d="M48.2015 133.362C47.3922 136.458 49.2377 139.639 52.3157 140.453C53.8057 140.847 55.3608 140.634 56.6925 139.853C58.0243 139.071 58.9729 137.815 59.3655 136.315C60.1747 133.22 58.3293 130.039 55.2513 129.225C52.1748 128.41 49.0108 130.267 48.2015 133.362ZM53.7941 141.197C53.2548 141.197 52.7119 141.128 52.1763 140.985C48.8064 140.094 46.7866 136.611 47.6725 133.222C48.5583 129.833 52.0209 127.799 55.3907 128.692C58.7598 129.583 60.7804 133.066 59.8945 136.455C59.4654 138.097 58.4263 139.473 56.9683 140.328C55.9883 140.903 54.8988 141.197 53.7941 141.197Z" fill="black"/>
<path d="M53.5955 138.303C53.4489 138.303 53.3007 138.284 53.1584 138.246C51.6785 137.855 51.2794 136.904 51.2633 136.865C51.2064 136.724 51.2736 136.563 51.4137 136.506C51.5545 136.448 51.7136 136.516 51.7705 136.657C51.7822 136.685 52.0988 137.397 53.297 137.714C53.5867 137.79 53.9035 137.752 54.1654 137.608C54.3654 137.499 54.6266 137.279 54.7382 136.851C54.9659 135.98 54.4186 135.527 53.7845 135.003C53.1445 134.473 52.4192 133.873 52.6491 132.79C52.7337 132.393 53.0453 131.987 53.4634 131.731C53.8714 131.481 54.3245 131.406 54.7397 131.519C56.1583 131.894 56.2802 132.837 56.2845 132.878C56.3013 133.028 56.1933 133.165 56.043 133.181C55.892 133.198 55.7599 133.092 55.7409 132.943C55.7358 132.91 55.6285 132.323 54.5989 132.051C54.2348 131.951 53.91 132.103 53.7488 132.201C53.4635 132.376 53.2365 132.659 53.1847 132.905C53.0241 133.661 53.5379 134.085 54.1319 134.577C54.8127 135.141 55.5847 135.779 55.268 136.991C55.1418 137.472 54.8433 137.864 54.4274 138.092C54.1735 138.231 53.8845 138.303 53.5955 138.303Z" fill="black"/>
<path d="M54.6892 132.066C54.6666 132.066 54.6425 132.063 54.6191 132.056C54.4732 132.018 54.3864 131.868 54.4243 131.72L54.6491 130.863C54.687 130.716 54.8366 130.627 54.9833 130.667C55.1292 130.705 55.2168 130.855 55.1781 131.002L54.9534 131.86C54.9213 131.984 54.8103 132.066 54.6892 132.066Z" fill="black"/>
<path d="M52.7547 139.048C52.7321 139.048 52.7087 139.045 52.6854 139.038C52.5394 139 52.4519 138.849 52.4906 138.702L52.7146 137.845C52.7533 137.698 52.9021 137.609 53.0488 137.648C53.1947 137.687 53.2823 137.837 53.2436 137.985L53.0196 138.842C52.9875 138.965 52.8766 139.048 52.7547 139.048Z" fill="black"/>
<path d="M272.447 100.798C270.778 97.8897 271.769 94.1706 274.661 92.4912C277.552 90.8126 281.249 91.8094 282.918 94.7174C284.588 97.6255 283.597 101.345 280.706 103.023C277.814 104.703 274.117 103.706 272.447 100.798Z" fill="#93A2AA"/>
<path d="M277.673 91.9532C276.694 91.9532 275.704 92.2035 274.797 92.7298C273.462 93.5056 272.507 94.7571 272.108 96.2552C271.708 97.7532 271.914 99.3174 272.684 100.661C273.455 102.003 274.7 102.964 276.189 103.365C277.678 103.767 279.233 103.561 280.569 102.785C283.324 101.185 284.272 97.627 282.681 94.8547C281.613 92.9948 279.669 91.9532 277.673 91.9532ZM277.693 104.116C277.144 104.116 276.592 104.044 276.047 103.897C274.416 103.457 273.054 102.406 272.211 100.936C271.366 99.4656 271.142 97.7525 271.579 96.1128C272.016 94.473 273.061 93.1019 274.523 92.2534C277.54 90.5014 281.412 91.5444 283.155 94.5795C284.897 97.6153 283.859 101.51 280.842 103.262C279.868 103.827 278.787 104.116 277.693 104.116Z" fill="black"/>
<path d="M278.01 101.096C277.587 101.096 277.33 100.989 277.31 100.981C277.171 100.92 277.106 100.759 277.166 100.619C277.225 100.479 277.385 100.414 277.525 100.474C277.553 100.486 278.276 100.767 279.349 100.144C279.609 99.9934 279.806 99.7416 279.892 99.4539C279.957 99.2351 279.989 98.8938 279.769 98.5107C279.321 97.7305 278.615 97.7965 277.798 97.8729C276.973 97.9492 276.038 98.0373 275.443 97.1044C275.226 96.7638 275.164 96.2544 275.281 95.7758C275.396 95.3097 275.665 94.9354 276.04 94.7226C277.311 93.9842 278.056 94.5684 278.087 94.5934C278.205 94.6888 278.224 94.8628 278.129 94.9809C278.035 95.0976 277.865 95.1174 277.747 95.025C277.72 95.0051 277.233 94.6646 276.311 95.1997C275.983 95.3876 275.858 95.7245 275.813 95.908C275.732 96.2346 275.769 96.5957 275.904 96.8071C276.319 97.4581 276.981 97.3965 277.747 97.3253C278.624 97.2424 279.62 97.1499 280.243 98.2355C280.491 98.667 280.552 99.1559 280.416 99.6117C280.291 100.033 280.002 100.401 279.622 100.621C278.974 100.997 278.416 101.096 278.01 101.096Z" fill="white"/>
<path d="M276.193 95.2261C276.098 95.2261 276.006 95.1769 275.956 95.0881L275.515 94.3203C275.439 94.189 275.485 94.0201 275.615 93.9445C275.746 93.8682 275.914 93.913 275.989 94.0451L276.43 94.8129C276.506 94.945 276.46 95.113 276.33 95.1894C276.287 95.2143 276.239 95.2261 276.193 95.2261Z" fill="white"/>
<path d="M279.705 101.555C279.61 101.555 279.518 101.505 279.468 101.417L279.026 100.649C278.951 100.517 278.996 100.349 279.127 100.273C279.258 100.197 279.425 100.242 279.501 100.374L279.941 101.142C280.017 101.273 279.972 101.442 279.841 101.518C279.798 101.543 279.751 101.555 279.705 101.555Z" fill="white"/>
<path d="M72.1282 95.9314L68.2869 92.3378L69.5807 70.8832L77.1516 84.0723L72.1282 95.9314Z" fill="black"/>
<path d="M68.5679 92.2248L72.029 95.4631L76.8458 84.0914L69.799 71.8139L68.5679 92.2248ZM72.1282 96.2067C72.0596 96.2067 71.9925 96.181 71.9414 96.1333L68.1009 92.5397C68.0411 92.4831 68.009 92.4031 68.0141 92.3217L69.3079 70.8664C69.3152 70.7452 69.4005 70.6432 69.518 70.6153C69.6348 70.5867 69.7574 70.6403 69.818 70.7452L77.388 83.9351C77.4311 84.0099 77.4369 84.1009 77.4034 84.1802L72.38 96.0393C72.345 96.1223 72.272 96.1825 72.1852 96.2008C72.1662 96.2052 72.1472 96.2067 72.1282 96.2067Z" fill="black"/>
<path d="M97.9652 80.9272L96.7911 75.7848L77.6724 66.1842L85.2433 79.3733L97.9652 80.9272Z" fill="black"/>
<path d="M85.412 79.1164L97.6115 80.6064L96.5541 75.9727L78.3644 66.8389L85.412 79.1164ZM97.9654 81.2024C97.9545 81.2024 97.9435 81.2017 97.9326 81.2002L85.2099 79.6464C85.1245 79.6361 85.0494 79.5862 85.0063 79.5106L77.4355 66.3215C77.3749 66.2165 77.3902 66.0837 77.4734 65.9948C77.5559 65.9068 77.6865 65.8833 77.7945 65.9376L96.9139 75.5382C96.9869 75.5749 97.0401 75.6432 97.0584 75.7232L98.2325 80.8655C98.2522 80.9529 98.2281 81.0446 98.169 81.1114C98.1165 81.1694 98.0428 81.2024 97.9654 81.2024Z" fill="black"/>
<path d="M76.3672 86.6619L62.1734 66.4096C56.4086 58.1845 54.3515 48.2903 56.8245 39.2423L56.8697 39.2563C65.5702 41.8209 73.1907 48.1471 77.2559 56.9903L87.8354 80.0016L76.3672 86.6619Z" fill="#BFBEBE"/>
<path d="M57.0155 39.5866C54.7081 48.3673 56.6631 58.0692 62.3972 66.251L76.4465 86.2971L87.482 79.8886L77.0076 57.1055C73.1102 48.6294 65.832 42.2554 57.0155 39.5866ZM76.367 86.9371C76.2809 86.9371 76.1962 86.896 76.1437 86.8204L61.9499 66.5688C56.0618 58.1676 54.0974 48.1809 56.5602 39.1697C56.5799 39.0985 56.6273 39.0383 56.6915 39.0023C56.755 38.9664 56.8309 38.9583 56.9017 38.9781L56.9469 38.9921C66.0151 41.6645 73.5079 48.1831 77.5038 56.8743L88.0833 79.8857C88.1431 80.0156 88.0943 80.169 87.9717 80.2402L76.5042 86.8997C76.4611 86.9246 76.4137 86.9371 76.367 86.9371Z" fill="black"/>
<path d="M64.6968 60.1626C63.7102 58.4443 64.2954 56.246 66.0044 55.2537C67.7127 54.2613 69.8982 54.8507 70.8848 56.569C71.8713 58.288 71.2854 60.4855 69.5771 61.4779C67.8681 62.4703 65.6833 61.8816 64.6968 60.1626Z" fill="white"/>
<path d="M64.9339 60.0253C65.374 60.7924 66.0855 61.3414 66.937 61.5711C67.7872 61.8009 68.6767 61.6827 69.44 61.2394C70.2032 60.7968 70.7491 60.0811 70.9767 59.2245C71.2051 58.3687 71.0884 57.4747 70.6476 56.707C69.7384 55.1223 67.7164 54.5777 66.1409 55.4922C64.5662 56.4068 64.024 58.4407 64.9339 60.0253ZM67.7966 62.2339C66.4671 62.2339 65.1711 61.5403 64.4596 60.3006C63.3993 58.4531 64.0305 56.0823 65.8673 55.0151C67.704 53.9486 70.0609 54.5842 71.1212 56.4317C71.635 57.3264 71.7714 58.3687 71.5058 59.3669C71.2402 60.3652 70.6031 61.1997 69.7136 61.7164C69.1094 62.0673 68.449 62.2339 67.7966 62.2339Z" fill="black"/>
<path d="M79.1598 89.4621L77.2559 86.1452L86.8131 80.5955L88.7162 83.9116L79.1598 89.4621Z" fill="white"/>
<path d="M77.6303 86.2457L79.2598 89.0855L88.3426 83.8111L86.7125 80.9712L77.6303 86.2457ZM79.1599 89.7373C79.0657 89.7373 78.9738 89.6874 78.9227 89.5993L77.0196 86.2832C76.9831 86.22 76.9729 86.1444 76.9918 86.074C77.0108 86.0035 77.0568 85.9433 77.1195 85.9073L86.676 80.3569C86.8066 80.2813 86.9744 80.3261 87.0496 80.4582L88.9534 83.7744C88.9899 83.8375 88.9994 83.9124 88.9811 83.9836C88.9622 84.0533 88.9162 84.1135 88.8535 84.1502L79.2963 89.6999C79.2532 89.7248 79.2066 89.7373 79.1599 89.7373Z" fill="black"/>
<path d="M56.5393 53.8943C56.5079 53.8943 56.4772 53.8774 56.4605 53.848C56.4349 53.8047 56.4502 53.7482 56.494 53.7233L69.4976 46.1712C69.5414 46.1455 69.5969 46.161 69.6224 46.205C69.6472 46.249 69.6326 46.3048 69.5889 46.3305L56.5852 53.8818C56.5707 53.8906 56.5546 53.8943 56.5393 53.8943Z" fill="black"/>
<path d="M94.1716 104.601C94.0768 104.601 93.9848 104.552 93.9345 104.464L85.7222 90.1564C85.647 90.025 85.6916 89.8569 85.8222 89.7806C85.9535 89.705 86.1206 89.7498 86.1965 89.8812L94.4081 104.189C94.484 104.32 94.4394 104.488 94.3081 104.565C94.265 104.59 94.2183 104.601 94.1716 104.601Z" fill="black"/>
<path d="M94.6129 96.0173C94.5188 96.0173 94.4269 95.9682 94.3758 95.8801L89.7486 87.8186C89.6735 87.6865 89.718 87.5184 89.8486 87.4421C89.9799 87.3658 90.147 87.4113 90.2229 87.5434L94.8501 95.6048C94.9253 95.7362 94.8807 95.9043 94.7494 95.9806C94.7063 96.0056 94.6596 96.0173 94.6129 96.0173Z" fill="black"/>
<path d="M96.7615 99.76C96.6674 99.76 96.5754 99.7108 96.5244 99.6227L95.5334 97.8949C95.4575 97.7635 95.502 97.5954 95.6334 97.5191C95.764 97.4435 95.9311 97.4883 96.007 97.6197L96.9987 99.3475C97.0738 99.4789 97.0293 99.6477 96.8987 99.7233C96.8549 99.7482 96.8082 99.76 96.7615 99.76Z" fill="black"/>
<path d="M88.2125 103.573C88.1177 103.573 88.0257 103.524 87.9754 103.436L81.6954 92.4949C81.6203 92.3635 81.6648 92.1954 81.7954 92.1191C81.926 92.0428 82.0939 92.0883 82.1697 92.2196L88.449 103.161C88.5249 103.292 88.4796 103.461 88.349 103.536C88.3059 103.561 88.2585 103.573 88.2125 103.573Z" fill="black"/>
<path d="M242.791 138.844C242.244 138.844 241.688 138.791 241.13 138.682C236.432 137.763 233.353 133.17 234.267 128.444C234.71 126.155 236.012 124.176 237.935 122.872C239.857 121.568 242.169 121.096 244.445 121.54C246.141 121.872 247.682 122.691 248.902 123.911C249.009 124.018 249.01 124.192 248.903 124.3C248.797 124.408 248.623 124.408 248.516 124.302C247.373 123.159 245.929 122.391 244.341 122.081C239.94 121.219 235.66 124.121 234.804 128.549C233.948 132.978 236.833 137.281 241.235 138.142C245.639 139.004 249.915 136.101 250.772 131.673C251.084 130.058 250.911 128.408 250.27 126.901C250.211 126.761 250.275 126.599 250.414 126.54C250.553 126.48 250.714 126.545 250.774 126.684C251.457 128.293 251.643 130.055 251.309 131.779C250.504 135.944 246.861 138.844 242.791 138.844Z" fill="black"/>
<path d="M242.794 144.092C241.916 144.092 241.027 144.009 240.134 143.834C232.612 142.362 227.682 135.009 229.146 127.442C229.854 123.777 231.94 120.608 235.018 118.521C238.096 116.433 241.798 115.676 245.442 116.388C248.528 116.993 251.244 118.573 253.295 120.959C253.394 121.074 253.382 121.248 253.267 121.348C253.153 121.447 252.98 121.435 252.881 121.319C250.911 119.027 248.302 117.509 245.337 116.929C241.836 116.244 238.28 116.971 235.324 118.977C232.367 120.983 230.364 124.026 229.683 127.547C228.277 134.816 233.013 141.879 240.239 143.293C241.096 143.461 241.951 143.542 242.793 143.542C249.053 143.543 254.655 139.082 255.893 132.676C256.468 129.705 256.052 126.714 254.69 124.025C254.622 123.889 254.675 123.723 254.81 123.654C254.944 123.586 255.109 123.64 255.178 123.775C256.595 126.575 257.029 129.689 256.431 132.781C255.141 139.449 249.309 144.092 242.794 144.092Z" fill="black"/>
<path d="M239.207 129.411C239.592 127.421 241.507 126.122 243.485 126.51C245.463 126.896 246.755 128.822 246.369 130.812C245.985 132.801 244.07 134.1 242.092 133.714C240.114 133.326 238.822 131.4 239.207 129.411Z" fill="#6F7980"/>
<path d="M239.476 129.463C239.121 131.3 240.318 133.086 242.144 133.443C243.971 133.802 245.745 132.597 246.101 130.759C246.456 128.922 245.259 127.136 243.433 126.78C241.607 126.422 239.831 127.626 239.476 129.463ZM242.79 134.056C242.542 134.056 242.292 134.033 242.04 133.984C239.917 133.568 238.525 131.493 238.938 129.358C239.351 127.223 241.415 125.823 243.537 126.239C245.66 126.654 247.051 128.729 246.638 130.864C246.274 132.746 244.628 134.056 242.79 134.056Z" fill="black"/>
<path d="M242.788 130.386C242.701 130.386 242.614 130.344 242.561 130.265C242.477 130.139 242.51 129.968 242.635 129.883L260.348 117.869C260.473 117.785 260.643 117.817 260.728 117.943C260.812 118.069 260.779 118.24 260.654 118.326L242.942 130.339C242.894 130.371 242.841 130.386 242.788 130.386Z" fill="black"/>
<path d="M256.099 121.137L260.526 118.135L263.92 119.164L259.494 122.166L256.099 121.137Z" fill="black"/>
<path d="M256.73 121.041L259.449 121.866L263.288 119.261L260.571 118.436L256.73 121.041ZM259.494 122.442C259.467 122.442 259.441 122.438 259.414 122.43L256.02 121.399C255.919 121.369 255.844 121.283 255.828 121.178C255.813 121.072 255.858 120.968 255.946 120.908L260.372 117.906C260.441 117.86 260.526 117.847 260.604 117.87L263.999 118.901C264.1 118.932 264.174 119.018 264.19 119.123C264.206 119.228 264.16 119.333 264.073 119.393L259.646 122.395C259.601 122.426 259.548 122.442 259.494 122.442Z" fill="black"/>
<path d="M256.075 121.099L260.501 118.097L260.848 114.583L256.422 117.585L256.075 121.099Z" fill="black"/>
<path d="M256.681 117.741L256.404 120.544L260.241 117.942L260.518 115.139L256.681 117.741ZM256.074 121.375C256.026 121.375 255.977 121.362 255.934 121.336C255.843 121.281 255.792 121.179 255.802 121.072L256.149 117.558C256.157 117.476 256.201 117.403 256.269 117.357L260.695 114.355C260.783 114.294 260.897 114.292 260.988 114.347C261.079 114.401 261.131 114.504 261.12 114.61L260.773 118.124C260.765 118.206 260.721 118.28 260.654 118.326L256.228 121.328C256.182 121.359 256.128 121.375 256.074 121.375Z" fill="black"/>
<path d="M84.9588 167.92C85.1434 165.393 86.1249 162.907 87.9324 160.872C92.2866 155.97 99.767 155.546 104.64 159.926C109.129 163.959 109.837 170.658 106.52 175.522L110.657 179.239C115.989 172.071 115.075 161.867 108.313 155.791C101.17 149.37 90.204 149.991 83.8212 157.177C80.9994 160.355 79.5465 164.284 79.4202 168.233L84.9588 167.92Z" fill="white"/>
<path d="M106.88 175.476L110.614 178.832C115.665 171.784 114.602 161.811 108.131 155.995C104.731 152.94 100.349 151.398 95.7974 151.657C91.2447 151.914 87.0634 153.94 84.0255 157.361C81.427 160.286 79.8997 164.033 79.7063 167.941L84.7057 167.659C84.9465 165.053 85.9885 162.648 87.7289 160.689C89.883 158.263 92.8479 156.826 96.0761 156.644C99.3073 156.461 102.412 157.554 104.823 159.72C109.289 163.735 110.153 170.467 106.88 175.476ZM110.657 179.514C110.59 179.514 110.525 179.49 110.474 179.444L106.337 175.727C106.235 175.635 106.216 175.48 106.294 175.366C109.569 170.564 108.78 164.015 104.458 160.131C102.155 158.062 99.1906 157.021 96.1068 157.193C93.0245 157.368 90.1939 158.739 88.1368 161.055C86.4249 162.983 85.4201 165.363 85.2318 167.94C85.2216 168.078 85.1114 168.187 84.9742 168.194L79.4356 168.508C79.359 168.512 79.2846 168.484 79.2291 168.43C79.1744 168.376 79.1444 168.302 79.1474 168.224C79.2794 164.079 80.8666 160.09 83.6177 156.994C86.7533 153.464 91.0673 151.373 95.7667 151.107C100.466 150.84 104.986 152.431 108.496 155.585C111.805 158.559 113.863 162.64 114.292 167.079C114.719 171.491 113.506 175.868 110.876 179.404C110.83 179.466 110.76 179.505 110.684 179.513C110.674 179.514 110.665 179.514 110.657 179.514Z" fill="black"/>
<path d="M104.491 177.806C102.452 179.582 99.9362 180.552 97.3742 180.687L97.0531 186.245C101.242 186.173 105.395 184.582 108.627 181.523L104.491 177.806Z" fill="#ED4C5C"/>
<path d="M97.6332 180.946L97.3435 185.963C101.392 185.823 105.233 184.256 108.22 181.527L104.487 178.171C102.557 179.784 100.141 180.762 97.6332 180.946ZM97.0531 186.521C96.9787 186.521 96.9072 186.49 96.8554 186.436C96.8028 186.381 96.7751 186.306 96.7795 186.23L97.1012 180.671C97.1093 180.531 97.2202 180.419 97.3596 180.412C99.9143 180.277 102.383 179.278 104.312 177.598C104.416 177.507 104.571 177.509 104.674 177.601L108.81 181.318C108.867 181.369 108.9 181.442 108.901 181.52C108.902 181.597 108.871 181.671 108.815 181.724C105.627 184.741 101.451 186.444 97.0575 186.521C97.056 186.521 97.0546 186.521 97.0531 186.521Z" fill="black"/>
<path d="M94.3371 180.451C92.3698 180.04 90.4791 179.121 88.873 177.678C86.8414 175.851 85.5863 173.479 85.1258 170.978L79.5887 171.292C80.1492 175.214 82.0326 178.966 85.1996 181.813C87.7733 184.126 90.8425 185.524 94.0145 186.032L94.3371 180.451Z" fill="#6F7980"/>
<path d="M79.9048 171.549C80.528 175.424 82.4654 178.986 85.3821 181.607C87.7544 183.74 90.6455 185.154 93.7592 185.71L94.0504 180.669C92.0633 180.213 90.215 179.252 88.6906 177.882C86.7349 176.125 85.4287 173.842 84.9026 171.267L79.9048 171.549ZM94.0146 186.307C94.0008 186.307 93.9862 186.306 93.9716 186.304C90.6404 185.771 87.5442 184.288 85.0172 182.018C81.9305 179.244 79.9062 175.449 79.3181 171.331C79.3071 171.254 79.329 171.177 79.3772 171.118C79.4261 171.058 79.4969 171.022 79.5735 171.017L85.1106 170.703C85.247 170.7 85.3696 170.792 85.3952 170.928C85.8651 173.48 87.1305 175.743 89.0555 177.472C90.5667 178.83 92.4122 179.767 94.3933 180.181C94.5262 180.209 94.6181 180.331 94.6108 180.467L94.2883 186.048C94.2832 186.125 94.2467 186.198 94.1861 186.246C94.1372 186.286 94.0767 186.307 94.0146 186.307Z" fill="#6F7980"/>
<path d="M200.764 40.6046L201.277 38.7418L205.258 39.8501L204.745 41.713L200.764 40.6046Z" fill="black"/>
<path d="M201.101 40.4131L204.554 41.3739L204.92 40.0417L201.467 39.0809L201.101 40.4131ZM204.745 41.9882C204.721 41.9882 204.696 41.9845 204.672 41.9779L200.691 40.8703C200.621 40.8505 200.562 40.8043 200.526 40.7404C200.49 40.6773 200.481 40.6017 200.501 40.5312L201.013 38.6684C201.054 38.5223 201.204 38.4357 201.35 38.4768L205.331 39.5844C205.4 39.6042 205.46 39.6504 205.495 39.7143C205.531 39.7774 205.541 39.853 205.521 39.9235L205.009 41.7864C204.975 41.9082 204.865 41.9882 204.745 41.9882Z" fill="black"/>
<path d="M218.45 23.805C220.023 18.0872 216.618 12.1669 210.866 10.7121C205.476 9.34907 199.895 12.5038 198.252 17.8435C197.354 20.7641 197.771 23.7595 199.151 26.2052C200.664 28.8857 201.867 30.698 201.05 33.6677L208.045 35.615C208.852 32.6812 210.744 31.7197 213.393 30.2487C215.784 28.921 217.663 26.6632 218.45 23.805Z" fill="white"/>
<path d="M201.382 33.4747L207.858 35.2773C208.706 32.5322 210.517 31.5281 212.996 30.1548L213.261 30.0073C215.696 28.656 217.445 26.4269 218.186 23.7316C218.929 21.0328 218.566 18.2135 217.165 15.7921C215.764 13.3728 213.503 11.6633 210.799 10.9793C205.52 9.6434 200.123 12.6946 198.514 17.925C197.667 20.6768 197.978 23.5687 199.389 26.0694C199.487 26.2419 199.583 26.4107 199.677 26.5766C200.993 28.8909 202.042 30.7339 201.382 33.4747ZM208.045 35.8902C208.021 35.8902 207.996 35.8873 207.972 35.8799L200.977 33.9334C200.831 33.8923 200.746 33.7411 200.786 33.5943C201.52 30.9262 200.548 29.216 199.202 26.8497C199.108 26.6838 199.011 26.5142 198.913 26.341C197.427 23.7074 197.099 20.6606 197.991 17.7621C199.686 12.2528 205.371 9.03934 210.933 10.4449C213.781 11.1657 216.163 12.9662 217.638 15.5153C219.114 18.0652 219.496 21.035 218.714 23.8784C217.933 26.7175 216.09 29.0656 213.525 30.4895L213.26 30.637C210.73 32.039 209.058 32.9653 208.309 35.6884C208.29 35.7588 208.244 35.8183 208.18 35.8543C208.139 35.8777 208.092 35.8902 208.045 35.8902Z" fill="black"/>
<path d="M200.016 34.9096L200.919 31.6257L209.2 33.9312L208.298 37.2151C207.664 39.5154 205.298 40.8637 203.011 40.2274C200.724 39.591 199.383 37.2099 200.016 34.9096Z" fill="#ED4C5C"/>
<path d="M200.16 35.419C199.905 36.3438 200.024 37.3134 200.495 38.1495C200.965 38.9847 201.731 39.5859 202.651 39.842L203.517 40.0828C204.436 40.3389 205.401 40.2193 206.231 39.7459C207.061 39.2725 207.659 38.5018 207.914 37.5769L208.864 34.1228L201.11 31.9648L200.16 35.419ZM204.476 40.7647C204.107 40.7647 203.735 40.7148 203.371 40.6127L202.505 40.372C200.315 39.7628 199.027 37.4749 199.632 35.2715L200.655 31.5523C200.696 31.4063 200.847 31.3204 200.992 31.3608L209.273 33.6655C209.419 33.7059 209.505 33.8578 209.464 34.0046L208.441 37.7237C208.147 38.791 207.458 39.6791 206.501 40.2244C205.873 40.5826 205.179 40.7647 204.476 40.7647Z" fill="black"/>
<path d="M207.839 35.2627C207.831 35.2627 207.823 35.2612 207.815 35.259L201.429 33.4813C201.381 33.468 201.352 33.4174 201.365 33.369C201.379 33.3198 201.429 33.2904 201.478 33.3051L207.863 35.0821C207.912 35.096 207.941 35.146 207.927 35.1951C207.916 35.2355 207.88 35.2627 207.839 35.2627Z" fill="black"/>
<path d="M210.553 25.3963C210.545 25.3963 210.537 25.3949 210.529 25.3934L204.143 23.6157C204.094 23.6017 204.066 23.5518 204.08 23.5026C204.093 23.4542 204.142 23.4248 204.192 23.4388L210.578 25.2165C210.626 25.2297 210.654 25.2803 210.641 25.3288C210.63 25.3699 210.593 25.3963 210.553 25.3963Z" fill="black"/>
<path d="M212.244 6.93716C212.22 6.93716 212.196 6.93348 212.171 6.92688C212.026 6.88577 211.94 6.73458 211.981 6.58778L213.068 2.6389C213.108 2.4921 213.259 2.40622 213.404 2.44659C213.55 2.48769 213.635 2.63964 213.594 2.7857L212.508 6.73531C212.475 6.85716 212.365 6.93716 212.244 6.93716Z" fill="black"/>
<path d="M222.213 13.8528C222.118 13.8528 222.025 13.8022 221.975 13.7134C221.9 13.5805 221.947 13.4124 222.078 13.3376L225.623 11.3184C225.754 11.2428 225.922 11.2897 225.995 11.4218C226.071 11.554 226.024 11.7221 225.893 11.7969L222.348 13.8169C222.305 13.8411 222.259 13.8528 222.213 13.8528Z" fill="black"/>
<path d="M227.557 25.8433C227.532 25.8433 227.508 25.8404 227.483 25.8331L223.557 24.7402C223.411 24.6998 223.326 24.5478 223.366 24.4018C223.406 24.2557 223.558 24.1691 223.703 24.2102L227.629 25.3031C227.775 25.3435 227.861 25.4947 227.82 25.6415C227.787 25.7633 227.677 25.8433 227.557 25.8433Z" fill="black"/>
<path d="M200.774 7.88547C200.679 7.88547 200.586 7.83557 200.536 7.74602L198.528 4.18102C198.453 4.04817 198.499 3.88007 198.631 3.80521C198.762 3.73034 198.929 3.77659 199.004 3.90945L201.012 7.47443C201.087 7.60728 201.04 7.77464 200.909 7.84951C200.867 7.87446 200.82 7.88547 200.774 7.88547Z" fill="black"/>
<path d="M193.989 16.5004C193.965 16.5004 193.94 16.4974 193.916 16.4908L189.99 15.3979C189.845 15.3575 189.759 15.2056 189.799 15.0588C189.839 14.9127 189.99 14.8261 190.136 14.8672L194.062 15.9601C194.208 16.0005 194.294 16.1517 194.253 16.2985C194.219 16.4204 194.109 16.5004 193.989 16.5004Z" fill="black"/>
<path d="M203.635 32.4529C203.615 32.4529 203.594 32.4507 203.573 32.4463C203.426 32.4118 203.334 32.2643 203.368 32.116C203.385 32.0426 205.029 24.7328 202.563 20.7751C202.482 20.6467 202.521 20.4764 202.649 20.3956C202.777 20.3149 202.946 20.3538 203.027 20.483C205.614 24.6352 203.972 31.9318 203.902 32.2401C203.872 32.3678 203.759 32.4529 203.635 32.4529Z" fill="black"/>
<path d="M206.588 33.2757C206.561 33.2757 206.533 33.2713 206.504 33.2625C206.361 33.2156 206.282 33.0607 206.329 32.9161C206.425 32.6144 208.746 25.5072 213.088 23.2832C213.222 23.2149 213.387 23.2678 213.456 23.4036C213.524 23.5393 213.471 23.7052 213.336 23.7742C209.199 25.8933 206.872 33.013 206.849 33.0849C206.812 33.2016 206.704 33.2757 206.588 33.2757Z" fill="black"/>
<path d="M213.214 23.7962C213.19 23.7962 213.165 23.7926 213.141 23.786C212.583 23.6303 212.394 23.2032 212.242 22.8604C212.092 22.5198 211.993 22.3238 211.698 22.2416C211.404 22.1602 211.217 22.2769 210.914 22.4904C210.609 22.707 210.229 22.9756 209.67 22.82C209.112 22.6644 208.923 22.2372 208.771 21.8945C208.621 21.5539 208.521 21.3579 208.226 21.275C207.93 21.1927 207.745 21.3102 207.442 21.5245C207.137 21.7403 206.757 22.009 206.198 21.8533C205.639 21.6977 205.45 21.2706 205.298 20.9278C205.147 20.5872 205.048 20.3905 204.753 20.3083C204.457 20.2261 204.271 20.3435 203.969 20.5578C203.663 20.7736 203.283 21.0423 202.724 20.886C202.578 20.8456 202.493 20.6944 202.533 20.5476C202.574 20.4008 202.725 20.3156 202.87 20.356C203.165 20.4382 203.351 20.3208 203.654 20.1072C203.959 19.8914 204.34 19.6227 204.898 19.7784C205.457 19.934 205.646 20.3604 205.798 20.7032C205.949 21.0438 206.049 21.2405 206.344 21.3227C206.638 21.4049 206.825 21.2882 207.128 21.0738C207.433 20.858 207.812 20.5894 208.372 20.745C208.93 20.8999 209.119 21.3271 209.271 21.6706C209.421 22.0104 209.521 22.2071 209.816 22.2893C210.111 22.3715 210.297 22.2541 210.6 22.0405C210.905 21.824 211.284 21.5561 211.844 21.7117C212.402 21.8666 212.591 22.2937 212.743 22.6365C212.893 22.9771 212.993 23.1731 213.287 23.2553C213.433 23.2964 213.519 23.4476 213.478 23.5944C213.445 23.7162 213.335 23.7962 213.214 23.7962Z" fill="black"/>
<path d="M257.654 80.4274L256.257 79.5011C254.486 78.3274 252.091 79.1231 251.363 81.1261L250.789 82.7072C248.485 82.404 248.881 82.4561 246.578 82.1537L246.427 80.4773C246.235 78.3531 244.124 76.9651 242.113 77.6419L240.526 78.1755C239.325 76.1753 239.532 76.5196 238.331 74.5195L239.54 73.3554C241.071 71.8808 240.833 69.3544 239.054 68.1947L237.65 67.2801C238.455 65.0884 238.317 65.4657 239.123 63.274L240.781 63.4986C242.882 63.7834 244.697 62.0211 244.489 59.8984L244.325 58.2241C246.53 57.4916 246.152 57.6178 248.357 56.8853L249.216 58.3291C250.305 60.1589 252.807 60.4877 254.327 59.0007L255.526 57.8278C257.47 59.1056 257.136 58.8854 259.081 60.1641L258.494 61.7399C257.75 63.7371 259.054 65.9097 261.158 66.1777L262.818 66.3891C263.037 68.7151 262.999 68.315 263.218 70.6411L261.627 71.1622C259.611 71.8228 258.736 74.2024 259.839 76.0242L260.709 77.4613C259.038 79.0834 259.326 78.8045 257.654 80.4274Z" fill="white"/>
<path d="M246.831 81.9086L250.607 82.4055L251.107 81.0322C251.482 79.9972 252.294 79.206 253.334 78.861C254.373 78.516 255.494 78.6651 256.408 79.2713L257.622 80.0765L260.362 77.4158L259.606 76.1673C259.036 75.227 258.927 74.0952 259.307 73.0625C259.687 72.0298 260.502 71.2415 261.543 70.9002L262.925 70.4473L262.566 66.6342L261.123 66.4507C260.038 66.312 259.09 65.6925 258.524 64.7493C257.958 63.8069 257.854 62.6743 258.237 61.643L258.748 60.2734L255.56 58.1786L254.517 59.1981C253.733 59.9659 252.66 60.3248 251.574 60.1817C250.489 60.0393 249.544 59.4154 248.982 58.4707L248.235 57.2156L244.619 58.4164L244.762 59.8712C244.869 60.9678 244.479 62.035 243.691 62.7991C242.904 63.5639 241.828 63.9184 240.745 63.7716L239.303 63.5764L237.982 67.1685L239.203 67.9635C240.121 68.5624 240.707 69.5342 240.811 70.6308C240.914 71.7274 240.52 72.7931 239.729 73.5543L238.679 74.5657L240.648 77.8445L242.026 77.3806C243.064 77.0312 244.186 77.1765 245.102 77.7791C246.019 78.3817 246.601 79.3557 246.7 80.4523L246.831 81.9086ZM250.789 82.9824C250.778 82.9824 250.766 82.9817 250.753 82.9795L246.543 82.426C246.416 82.4099 246.317 82.3064 246.306 82.1779L246.155 80.5022C246.072 79.5745 245.578 78.7495 244.803 78.2401C244.027 77.7299 243.078 77.6074 242.2 77.9032L240.613 78.4368C240.492 78.4771 240.358 78.428 240.292 78.3179L238.097 74.6619C238.031 74.5518 238.049 74.4101 238.142 74.3206L239.351 73.1572C240.019 72.512 240.353 71.6107 240.266 70.6829C240.178 69.7551 239.682 68.9323 238.905 68.4259L237.501 67.5106C237.393 67.4409 237.348 67.3051 237.393 67.1847L238.866 63.1786C238.911 63.0575 239.033 62.9818 239.16 63.0017L240.818 63.2263C241.736 63.3503 242.645 63.0501 243.312 62.4035C243.978 61.7561 244.308 60.8533 244.217 59.9255L244.052 58.2513C244.04 58.1228 244.117 58.0032 244.239 57.9628L248.271 56.624C248.393 56.5836 248.526 56.6335 248.592 56.7436L249.452 58.1874C249.927 58.9875 250.726 59.5152 251.645 59.6363C252.565 59.756 253.472 59.4536 254.136 58.804L255.335 57.6303C255.427 57.54 255.569 57.5268 255.676 57.5973L259.231 59.9329C259.338 60.0041 259.382 60.1391 259.337 60.2602L258.75 61.8361C258.426 62.7088 258.514 63.6674 258.993 64.4653C259.471 65.2624 260.273 65.7872 261.193 65.9039L262.852 66.1153C262.979 66.1321 263.078 66.2342 263.09 66.3626L263.491 70.6146C263.503 70.7431 263.425 70.8627 263.303 70.9024L261.712 71.4235C260.832 71.7127 260.142 72.3791 259.82 73.2533C259.499 74.1275 259.591 75.0846 260.073 75.881L260.943 77.3182C261.01 77.4283 260.992 77.5699 260.9 77.6595L257.845 80.6255C257.752 80.7151 257.611 80.7283 257.504 80.6571L256.107 79.7308C255.333 79.2185 254.385 79.0915 253.505 79.3836C252.625 79.6758 251.939 80.3459 251.62 81.2208L251.046 82.8011C251.007 82.9112 250.903 82.9824 250.789 82.9824Z" fill="black"/>
<path d="M256.417 69.7962C256.417 73.1197 253.738 75.8135 250.434 75.8135C247.13 75.8135 244.451 73.1197 244.451 69.7962C244.451 66.4727 247.13 63.7782 250.434 63.7782C253.738 63.7782 256.417 66.4727 256.417 69.7962Z" fill="black"/>
<path d="M250.434 64.0535C247.286 64.0535 244.725 66.6298 244.725 69.7962C244.725 72.9627 247.286 75.5382 250.434 75.5382C253.582 75.5382 256.143 72.9627 256.143 69.7962C256.143 66.6298 253.582 64.0535 250.434 64.0535ZM250.434 76.0887C246.984 76.0887 244.178 73.2658 244.178 69.7962C244.178 66.3259 246.984 63.503 250.434 63.503C253.883 63.503 256.69 66.3259 256.69 69.7962C256.69 73.2658 253.883 76.0887 250.434 76.0887Z" fill="black"/>
<path d="M254.328 69.7962C254.328 71.9585 252.584 73.712 250.434 73.712C248.284 73.712 246.541 71.9585 246.541 69.7962C246.541 67.6331 248.284 65.8796 250.434 65.8796C252.584 65.8796 254.328 67.6331 254.328 69.7962Z" fill="white"/>
<path d="M250.434 66.1549C248.438 66.1549 246.814 67.7887 246.814 69.7962C246.814 71.8037 248.438 73.4368 250.434 73.4368C252.429 73.4368 254.054 71.8037 254.054 69.7962C254.054 67.7887 252.429 66.1549 250.434 66.1549ZM250.434 73.9873C248.136 73.9873 246.267 72.1068 246.267 69.7962C246.267 67.4848 248.136 65.6044 250.434 65.6044C252.732 65.6044 254.601 67.4848 254.601 69.7962C254.601 72.1068 252.732 73.9873 250.434 73.9873Z" fill="black"/>
<path d="M116.06 133.963L114.651 133.165C113.704 133.446 113.187 133.598 112.241 133.879L111.486 135.317C109.718 134.887 109.95 134.944 108.183 134.514L108.166 132.886C107.451 132.202 107.061 131.829 106.346 131.145L104.73 131.206C104.217 129.451 104.284 129.681 103.771 127.927L105.163 127.098C105.395 126.134 105.522 125.607 105.753 124.643L104.893 123.265C106.146 121.941 105.982 122.115 107.236 120.791L108.645 121.588C109.591 121.309 110.109 121.155 111.055 120.875L111.81 119.437C113.577 119.867 113.345 119.81 115.113 120.241L115.13 121.867C115.844 122.552 116.235 122.925 116.949 123.61L118.566 123.548C119.079 125.303 119.011 125.072 119.524 126.827L118.133 127.656C117.901 128.62 117.775 129.147 117.542 130.111L118.404 131.488C117.149 132.813 117.313 132.639 116.06 133.963Z" fill="white"/>
<path d="M108.454 134.296L111.342 135L111.998 133.75C112.033 133.684 112.093 133.636 112.163 133.615L114.573 132.901C114.644 132.881 114.72 132.889 114.784 132.925L116.008 133.618L118.058 131.454L117.31 130.258C117.271 130.195 117.258 130.119 117.276 130.047L117.866 127.591C117.884 127.519 117.93 127.456 117.993 127.419L119.202 126.699L118.363 123.831L116.959 123.885C116.886 123.888 116.813 123.86 116.76 123.809L114.941 122.067C114.887 122.015 114.857 121.944 114.856 121.87L114.841 120.458L111.952 119.755L111.296 121.004C111.262 121.069 111.202 121.118 111.132 121.139L108.722 121.852C108.651 121.873 108.575 121.865 108.511 121.829L107.287 121.136L105.237 123.301L105.985 124.496C106.024 124.559 106.037 124.635 106.019 124.708L105.428 127.163C105.411 127.235 105.365 127.297 105.302 127.335L104.093 128.055L104.933 130.922L106.336 130.869C106.41 130.865 106.481 130.894 106.535 130.945L108.353 132.688C108.407 132.739 108.437 132.809 108.438 132.884L108.454 134.296ZM111.485 135.593C111.464 135.593 111.442 135.59 111.42 135.585L108.119 134.781C107.997 134.752 107.911 134.642 107.909 134.517L107.892 133.006L106.241 131.424L104.74 131.481C104.619 131.488 104.503 131.405 104.467 131.283L103.508 128.005C103.473 127.884 103.523 127.754 103.631 127.69L104.924 126.921L105.46 124.691L104.66 123.412C104.594 123.306 104.608 123.167 104.694 123.076L107.037 120.601C107.124 120.51 107.26 120.489 107.37 120.551L108.678 121.292L110.866 120.644L111.568 119.308C111.626 119.197 111.753 119.14 111.874 119.169L115.176 119.973C115.298 120.003 115.384 120.111 115.386 120.238L115.403 121.748L117.054 123.33L118.555 123.273C118.682 123.265 118.792 123.35 118.828 123.471L119.787 126.75C119.822 126.87 119.771 127 119.663 127.064L118.371 127.834L117.835 130.063L118.635 131.342C118.701 131.449 118.687 131.587 118.601 131.678L116.258 134.153C116.171 134.244 116.035 134.265 115.925 134.203L114.617 133.463L112.428 134.11L111.727 135.446C111.679 135.538 111.585 135.593 111.485 135.593Z" fill="black"/>
<path d="M114.827 127.377C114.827 129.143 113.404 130.575 111.648 130.575C109.891 130.575 108.468 129.143 108.468 127.377C108.468 125.61 109.891 124.178 111.648 124.178C113.404 124.178 114.827 125.61 114.827 127.377Z" fill="white"/>
<path d="M111.647 124.454C110.045 124.454 108.742 125.765 108.742 127.377C108.742 128.989 110.045 130.3 111.647 130.3C113.25 130.3 114.554 128.989 114.554 127.377C114.554 125.765 113.25 124.454 111.647 124.454ZM111.647 130.85C109.743 130.85 108.194 129.292 108.194 127.377C108.194 125.461 109.743 123.903 111.647 123.903C113.552 123.903 115.101 125.461 115.101 127.377C115.101 129.292 113.552 130.85 111.647 130.85Z" fill="black"/>
<path d="M165.748 166.961C165.624 166.961 165.512 166.876 165.483 166.749C162.96 155.98 161.017 144.95 159.707 133.964C159.689 133.814 159.796 133.676 159.945 133.658C160.097 133.638 160.232 133.747 160.25 133.899C161.557 144.864 163.497 155.874 166.015 166.623C166.05 166.77 165.958 166.919 165.812 166.954C165.791 166.959 165.769 166.961 165.748 166.961Z" fill="black"/>
<path d="M181.877 150.745C181.75 150.745 181.636 150.656 181.61 150.525C181.185 148.439 180.507 146.409 179.594 144.488C178.682 144.646 177.753 144.714 176.825 144.692C176.674 144.688 176.555 144.561 176.558 144.409C176.562 144.26 176.684 144.141 176.832 144.141C176.834 144.141 176.836 144.141 176.838 144.141C177.796 144.167 178.759 144.088 179.699 143.91C179.819 143.888 179.941 143.948 179.996 144.059C180.974 146.077 181.698 148.216 182.146 150.415C182.176 150.564 182.081 150.709 181.933 150.74C181.914 150.744 181.896 150.745 181.877 150.745Z" fill="black"/>
<path d="M197.403 135.374C197.301 135.374 197.203 135.317 197.156 135.218C196.88 134.637 196.712 133.992 196.669 133.351C196.659 133.199 196.773 133.069 196.924 133.058C197.073 133.049 197.205 133.162 197.215 133.314C197.254 133.886 197.404 134.462 197.65 134.981C197.715 135.118 197.657 135.282 197.521 135.348C197.483 135.366 197.443 135.374 197.403 135.374Z" fill="black"/>
<path d="M34.3812 41.9324C33.2151 41.9324 32.2657 42.8874 32.2657 44.0603C32.2657 45.2339 33.2151 46.1881 34.3812 46.1881C35.548 46.1881 36.4966 45.2339 36.4966 44.0603C36.4966 42.8874 35.548 41.9324 34.3812 41.9324ZM34.3812 46.7386C32.913 46.7386 31.7184 45.5371 31.7184 44.0603C31.7184 42.5835 32.913 41.382 34.3812 41.382C35.8494 41.382 37.0439 42.5835 37.0439 44.0603C37.0439 45.5371 35.8494 46.7386 34.3812 46.7386Z" fill="black"/>
<path d="M212.244 146.823C211.078 146.823 210.129 147.778 210.129 148.951C210.129 150.124 211.078 151.078 212.244 151.078C213.411 151.078 214.36 150.124 214.36 148.951C214.36 147.778 213.411 146.823 212.244 146.823ZM212.244 151.63C210.776 151.63 209.582 150.427 209.582 148.951C209.582 147.474 210.776 146.272 212.244 146.272C213.713 146.272 214.907 147.474 214.907 148.951C214.907 150.427 213.713 151.63 212.244 151.63Z" fill="black"/>
<path d="M172.488 0.584468C171.321 0.584468 170.372 1.53866 170.372 2.71231C170.372 3.88596 171.321 4.84015 172.488 4.84015C173.654 4.84015 174.603 3.88596 174.603 2.71231C174.603 1.53866 173.654 0.584468 172.488 0.584468ZM172.488 5.39064C171.02 5.39064 169.825 4.1891 169.825 2.71231C169.825 1.23552 171.02 0.0339748 172.488 0.0339748C173.956 0.0339748 175.151 1.23552 175.151 2.71231C175.151 4.1891 173.956 5.39064 172.488 5.39064Z" fill="black"/>
<path d="M135.572 142.436C134.811 142.436 134.192 143.06 134.192 143.826C134.192 144.591 134.811 145.215 135.572 145.215C136.333 145.215 136.953 144.591 136.953 143.826C136.953 143.06 136.333 142.436 135.572 142.436ZM135.572 145.765C134.509 145.765 133.644 144.895 133.644 143.826C133.644 142.756 134.509 141.886 135.572 141.886C136.635 141.886 137.5 142.756 137.5 143.826C137.5 144.895 136.635 145.765 135.572 145.765Z" fill="black"/>
<path d="M104.258 1.5526C103.496 1.5526 102.876 2.17576 102.876 2.94205C102.876 3.7076 103.496 4.33004 104.258 4.33004C105.019 4.33004 105.638 3.7076 105.638 2.94205C105.638 2.17576 105.019 1.5526 104.258 1.5526ZM104.258 4.88053C103.195 4.88053 102.329 4.01074 102.329 2.94205C102.329 1.87262 103.195 1.00211 104.258 1.00211C105.32 1.00211 106.186 1.87262 106.186 2.94205C106.186 4.01074 105.32 4.88053 104.258 4.88053Z" fill="black"/>
<path d="M51.9638 169.461L56.0495 165.352L60.1352 169.461L56.0495 173.571L51.9638 169.461Z" fill="black"/>
<path d="M52.3513 169.461L56.0496 173.181L59.7485 169.461L56.0496 165.741L52.3513 169.461ZM56.0496 173.846C55.9802 173.846 55.9102 173.819 55.8562 173.765L51.7705 169.656C51.7194 169.604 51.6902 169.534 51.6902 169.461C51.6902 169.388 51.7194 169.318 51.7705 169.267L55.8562 165.157C55.9635 165.049 56.1364 165.049 56.2437 165.157L60.3294 169.267C60.3804 169.318 60.4096 169.388 60.4096 169.461C60.4096 169.534 60.3804 169.604 60.3294 169.656L56.2437 173.765C56.1897 173.819 56.1196 173.846 56.0496 173.846Z" fill="black"/>
<path d="M73.0659 25.0213L77.1516 20.9116L81.2372 25.0213L77.1516 29.1316L73.0659 25.0213Z" fill="#ED4C5C"/>
<path d="M73.4525 25.0213L77.1515 28.7419L80.8497 25.0213L77.1515 21.3014L73.4525 25.0213ZM77.1515 29.4069C77.0814 29.4069 77.0114 29.3797 76.9574 29.3261L72.8717 25.2165C72.7651 25.1086 72.7651 24.9347 72.8717 24.8268L76.9574 20.7171C77.0646 20.61 77.2376 20.61 77.3449 20.7171L81.4305 24.8268C81.5371 24.9347 81.5371 25.1086 81.4305 25.2165L77.3449 29.3261C77.2909 29.3797 77.2215 29.4069 77.1515 29.4069Z" fill="black"/>
<path d="M216.783 53.5537L219.274 51.0472L221.766 53.5537L219.274 56.0603L216.783 53.5537Z" fill="black"/>
<path d="M217.169 53.5537L219.274 55.6706L221.379 53.5537L219.274 51.4369L217.169 53.5537ZM219.274 56.3356C219.201 56.3356 219.132 56.3062 219.08 56.2548L216.589 53.7482C216.482 53.6411 216.482 53.4664 216.589 53.3592L219.08 50.8526C219.188 50.7455 219.361 50.7455 219.468 50.8526L221.959 53.3592C222.066 53.4664 222.066 53.6411 221.959 53.7482L219.468 56.2548C219.416 56.3062 219.347 56.3356 219.274 56.3356Z" fill="black"/>
<path d="M163.755 192.316L166.246 189.81L168.738 192.316L166.246 194.822L163.755 192.316Z" fill="black"/>
<path d="M164.141 192.316L166.247 194.433L168.351 192.316L166.247 190.199L164.141 192.316ZM166.247 195.097C166.177 195.097 166.107 195.071 166.053 195.016L163.561 192.511C163.51 192.459 163.481 192.389 163.481 192.316C163.481 192.243 163.51 192.173 163.561 192.122L166.053 189.615C166.16 189.507 166.334 189.507 166.44 189.615L168.932 192.122C169.039 192.229 169.039 192.403 168.932 192.511L166.44 195.016C166.387 195.071 166.317 195.097 166.247 195.097Z" fill="black"/>
<path d="M245.609 32.0844C245.526 32.0844 245.445 32.047 245.391 31.9758C245.299 31.8547 245.323 31.6822 245.443 31.5905C246.058 31.12 246.783 30.7956 247.54 30.651C247.689 30.6238 247.832 30.7207 247.859 30.8704C247.888 31.0202 247.79 31.164 247.641 31.1919C246.968 31.3204 246.322 31.6096 245.774 32.0287C245.725 32.0661 245.666 32.0844 245.609 32.0844ZM251.658 32.3406C251.593 32.3406 251.528 32.3171 251.475 32.2694C250.963 31.8055 250.344 31.4628 249.684 31.2778C249.539 31.2367 249.454 31.0855 249.495 30.9387C249.535 30.7919 249.686 30.7068 249.832 30.7471C250.572 30.9548 251.267 31.3402 251.841 31.8606C251.954 31.9626 251.963 32.1366 251.862 32.2496C251.808 32.3098 251.733 32.3406 251.658 32.3406ZM243.73 35.8902C243.579 35.8902 243.457 35.7669 243.457 35.615C243.457 34.8259 243.633 34.0692 243.98 33.3675C244.047 33.2309 244.211 33.1759 244.347 33.2434C244.482 33.3117 244.538 33.4768 244.47 33.6126C244.161 34.238 244.004 34.9111 244.004 35.615C244.004 35.7669 243.882 35.8902 243.73 35.8902ZM253.213 36.291C253.206 36.291 253.198 36.2902 253.191 36.2895C253.04 36.277 252.928 36.1442 252.94 35.9922C252.951 35.8682 252.956 35.7412 252.956 35.615C252.956 35.0424 252.851 34.4846 252.643 33.9576C252.587 33.8167 252.656 33.6567 252.797 33.6002C252.937 33.5436 253.096 33.6134 253.152 33.755C253.385 34.3473 253.503 34.9727 253.503 35.615C253.503 35.7559 253.497 35.8983 253.486 36.0385C253.474 36.1816 253.354 36.291 253.213 36.291ZM245.016 39.1594C244.944 39.1594 244.871 39.13 244.817 39.072C244.288 38.5054 243.891 37.8147 243.669 37.0734C243.626 36.9281 243.708 36.7747 243.852 36.7306C243.997 36.6873 244.149 36.7695 244.193 36.9149C244.391 37.5747 244.745 38.1905 245.216 38.6955C245.319 38.8063 245.314 38.9803 245.204 39.0845C245.151 39.1344 245.083 39.1594 245.016 39.1594ZM251.025 39.925C250.934 39.925 250.845 39.8794 250.793 39.7972C250.712 39.6688 250.75 39.4985 250.877 39.417C251.457 39.0464 251.952 38.5385 252.309 37.9476C252.387 37.8177 252.556 37.7766 252.685 37.8551C252.814 37.9344 252.855 38.1032 252.777 38.2331C252.377 38.8959 251.822 39.4662 251.171 39.8816C251.125 39.911 251.075 39.925 251.025 39.925ZM248.485 40.6678C248.483 40.6678 248.482 40.6678 248.48 40.6678C247.877 40.6678 247.287 40.5613 246.727 40.3514C246.585 40.2978 246.514 40.14 246.566 39.9969C246.619 39.8545 246.777 39.7818 246.918 39.8354C247.417 40.0218 247.942 40.1173 248.48 40.1173C248.482 40.1173 248.483 40.1173 248.485 40.1173C248.639 40.1173 248.794 40.1092 248.947 40.093C249.098 40.0791 249.232 40.187 249.248 40.3382C249.263 40.4894 249.154 40.6244 249.003 40.6406C248.832 40.6582 248.658 40.6678 248.485 40.6678Z" fill="black"/>
<path d="M20.9538 134.814C20.8713 134.814 20.7896 134.776 20.7356 134.705C20.6444 134.584 20.6677 134.412 20.7881 134.319C21.404 133.85 22.1294 133.526 22.8861 133.383C23.0335 133.355 23.1772 133.454 23.2057 133.604C23.2334 133.753 23.1356 133.896 22.9868 133.925C22.3132 134.052 21.6674 134.34 21.1187 134.758C21.0691 134.796 21.0114 134.814 20.9538 134.814ZM27.0017 135.083C26.936 135.083 26.8696 135.06 26.8178 135.012C26.307 134.547 25.6889 134.202 25.03 134.015C24.884 133.974 24.7994 133.822 24.8403 133.675C24.8811 133.529 25.0329 133.445 25.1781 133.485C25.918 133.695 26.6127 134.082 27.1856 134.604C27.2972 134.707 27.306 134.881 27.2045 134.993C27.1505 135.053 27.0761 135.083 27.0017 135.083ZM19.0733 138.618C18.9222 138.618 18.7996 138.495 18.7996 138.343C18.7996 137.554 18.9755 136.797 19.3236 136.095C19.3907 135.96 19.5549 135.905 19.6906 135.972C19.8256 136.04 19.8804 136.206 19.8132 136.341C19.5038 136.966 19.3469 137.64 19.3469 138.343C19.3469 138.495 19.2243 138.618 19.0733 138.618ZM28.5407 139.039C28.5326 139.039 28.5246 139.039 28.5166 139.038C28.3663 139.025 28.2546 138.891 28.2678 138.74C28.2794 138.609 28.2853 138.475 28.2853 138.343C28.2853 137.778 28.1824 137.227 27.9795 136.705C27.9241 136.563 27.9934 136.403 28.1342 136.348C28.2743 136.292 28.4334 136.362 28.4889 136.504C28.7173 137.09 28.8326 137.709 28.8326 138.343C28.8326 138.491 28.826 138.641 28.8136 138.788C28.8004 138.932 28.6815 139.039 28.5407 139.039ZM20.3328 141.857C20.2591 141.857 20.1861 141.826 20.1321 141.768C19.6067 141.197 19.2156 140.502 18.9996 139.76C18.9573 139.614 19.0405 139.462 19.1857 139.419C19.3309 139.376 19.4827 139.46 19.525 139.605C19.7169 140.267 20.0657 140.885 20.5335 141.394C20.6363 141.506 20.6298 141.68 20.5189 141.783C20.4656 141.832 20.3992 141.857 20.3328 141.857ZM26.3347 142.662C26.2435 142.662 26.1545 142.616 26.1027 142.533C26.0224 142.404 26.0604 142.235 26.1888 142.154C26.7704 141.786 27.268 141.281 27.6278 140.692C27.7066 140.563 27.8752 140.522 28.0043 140.601C28.1327 140.681 28.1729 140.85 28.0941 140.98C27.6905 141.641 27.1323 142.207 26.4799 142.62C26.4347 142.649 26.3843 142.662 26.3347 142.662ZM23.8157 143.389C23.202 143.389 22.6022 143.279 22.033 143.061C21.8915 143.007 21.8207 142.847 21.8739 142.706C21.9279 142.563 22.0863 142.493 22.2271 142.546C22.8693 142.792 23.5676 142.885 24.2543 142.817C24.4017 142.801 24.5389 142.913 24.5535 143.064C24.5681 143.216 24.4586 143.35 24.3076 143.365C24.1456 143.381 23.9799 143.389 23.8157 143.389Z" fill="black"/>
<path d="M111.643 21.8592C109.274 19.898 106.351 19.4238 104.117 21.592C101.884 23.7588 101.585 28.336 103.819 30.5034C106.248 32.8603 112.022 32.8287 115.177 32.7737C121.25 32.668 127.428 32.9616 133.502 32.9616C144.885 32.9616 143.651 23.1268 140.614 21.0306C139.14 20.0125 137.133 20.1769 135.793 21.424C136.363 17.2843 133.834 12.8854 130.338 11.9349C126.843 10.9844 122.912 13.6268 121.858 17.6351C120.284 15.7253 117.675 15.1021 115.586 16.1363C113.496 17.1705 112.153 19.3761 111.643 21.8592Z" fill="white"/>
<path d="M117.948 32.4757C120.559 32.4757 123.188 32.5293 125.753 32.5814C128.3 32.6328 130.933 32.6863 133.503 32.6863C139.74 32.6863 141.592 29.7012 142.14 27.922C142.965 25.2473 141.916 22.2629 140.459 21.2581C139.1 20.3193 137.216 20.4742 135.979 21.6266C135.895 21.7051 135.769 21.722 135.667 21.6684C135.565 21.6148 135.506 21.5018 135.522 21.3865C136.07 17.4032 133.614 13.1108 130.267 12.2006C128.808 11.8036 127.199 12.0531 125.736 12.9031C123.973 13.9285 122.656 15.679 122.123 17.7056C122.097 17.8054 122.018 17.8817 121.917 17.9038C121.818 17.9265 121.713 17.8905 121.648 17.8105C120.166 16.013 117.668 15.4126 115.706 16.3837C113.826 17.3144 112.442 19.3306 111.911 21.9143C111.891 22.009 111.824 22.086 111.734 22.1183C111.644 22.1506 111.543 22.133 111.469 22.0714C108.95 19.9876 106.274 19.8826 104.308 21.7895C103.213 22.8523 102.56 24.5706 102.56 26.385C102.56 27.9829 103.088 29.412 104.009 30.3053C106.426 32.6504 112.555 32.544 115.173 32.4985C116.093 32.4823 117.019 32.4757 117.948 32.4757ZM133.503 33.2368C130.928 33.2368 128.292 33.1833 125.742 33.1319C122.269 33.0614 118.679 32.988 115.182 33.0489C112.269 33.0996 106.209 33.2046 103.629 30.7016C102.601 29.7049 102.012 28.1312 102.012 26.385C102.012 24.4238 102.728 22.558 103.928 21.3939C105.99 19.3923 108.85 19.3967 111.472 21.3733C112.098 18.8279 113.538 16.8431 115.465 15.8897C117.543 14.8614 120.054 15.3597 121.734 17.0861C122.376 15.1234 123.714 13.4433 125.463 12.4267C127.051 11.5026 128.808 11.234 130.41 11.6692C133.884 12.6139 136.394 16.7044 136.13 20.8074C137.526 19.8738 139.383 19.8466 140.769 20.8038C142.417 21.9407 143.571 25.1387 142.663 28.085C142.07 30.0095 140.091 33.2368 133.503 33.2368Z" fill="black"/>
<path d="M184.128 178.311C189.866 178.472 195.606 178.633 201.346 178.559C204.228 178.522 207.555 178.193 209.177 175.798C210.541 173.787 209.95 170.706 207.943 169.348C205.935 167.99 202.876 168.602 201.538 170.631C202.259 167.321 199.57 163.691 196.21 163.44C192.851 163.189 189.657 166.378 189.884 169.759C189.422 168.612 188.213 167.888 186.99 167.759C184.359 167.482 181.226 168.136 179.752 172.621C179.163 174.413 179.912 178.193 184.128 178.311Z" fill="white"/>
<path d="M186.008 167.981C183.059 167.981 181.044 169.568 180.012 172.708C179.714 173.616 179.774 175.141 180.613 176.342C181.355 177.406 182.574 177.993 184.135 178.036C189.773 178.194 195.602 178.358 201.342 178.284C204.245 178.247 207.42 177.903 208.951 175.642C209.561 174.744 209.78 173.555 209.556 172.38C209.331 171.204 208.687 170.183 207.79 169.577C206.893 168.969 205.709 168.755 204.542 168.989C203.376 169.223 202.364 169.877 201.767 170.783C201.694 170.893 201.553 170.937 201.432 170.884C201.31 170.832 201.243 170.702 201.271 170.572C201.597 169.072 201.202 167.425 200.185 166.053C199.168 164.681 197.712 163.829 196.19 163.715C194.666 163.6 193.103 164.227 191.896 165.432C190.688 166.638 190.055 168.208 190.157 169.74C190.166 169.875 190.076 169.997 189.945 170.027C189.814 170.057 189.68 169.988 189.63 169.862C189.235 168.88 188.187 168.162 186.961 168.033C186.633 167.998 186.316 167.981 186.008 167.981ZM198.392 178.853C193.608 178.853 188.798 178.718 184.12 178.586C181.92 178.525 180.754 177.504 180.165 176.658C179.218 175.301 179.153 173.569 179.493 172.535C180.724 168.788 183.256 167.09 187.018 167.485C188.075 167.597 189.021 168.094 189.631 168.82C189.781 167.45 190.439 166.112 191.51 165.042C192.83 163.724 194.55 163.039 196.231 163.166C197.911 163.291 199.512 164.224 200.624 165.724C201.526 166.941 201.98 168.362 201.926 169.74C202.59 169.099 203.467 168.644 204.436 168.449C205.744 168.187 207.078 168.431 208.095 169.119C209.113 169.808 209.841 170.958 210.093 172.275C210.345 173.594 210.094 174.934 209.404 175.953C207.731 178.422 204.394 178.795 201.349 178.834C200.366 178.847 199.38 178.853 198.392 178.853Z" fill="black"/>
</svg>
