<svg width="224" height="36" viewBox="0 0 224 36" fill="none" xmlns="http://www.w3.org/2000/svg">
<path d="M14.328 25.416C15 24.792 15.528 24.048 15.912 23.184C16.32 22.32 16.524 21.348 16.524 20.268C16.524 18.516 16.212 17.136 15.588 16.128C14.964 15.12 14.148 14.376 13.14 13.896C12.036 13.368 10.884 12.936 9.684 12.6C8.484 12.24 7.452 11.832 6.588 11.376C6.036 11.064 5.592 10.692 5.256 10.26C4.92 9.804 4.752 9.216 4.752 8.496C4.752 7.968 4.824 7.476 4.968 7.02C5.136 6.54 5.376 6.12 5.688 5.76C6.024 5.376 6.456 5.076 6.984 4.86C7.512 4.62 8.136 4.5 8.856 4.5C9.576 4.5 10.236 4.572 10.836 4.716C11.436 4.86 11.964 5.028 12.42 5.22V7.344H15.264V3.816C14.688 3.336 14.1 2.952 13.5 2.664C12.924 2.376 12.36 2.16 11.808 2.016C11.256 1.872 10.728 1.776 10.224 1.728C9.72 1.68 9.252 1.656 8.82 1.656C7.5 1.656 6.384 1.86 5.472 2.268C4.56 2.676 3.828 3.204 3.276 3.852C2.724 4.5 2.328 5.22 2.088 6.012C1.848 6.804 1.74 7.596 1.764 8.388C1.788 9.876 2.088 11.028 2.664 11.844C3.264 12.66 4.008 13.296 4.896 13.752C5.76 14.208 6.696 14.568 7.704 14.832C8.712 15.096 9.648 15.408 10.512 15.768C11.064 16.032 11.544 16.32 11.952 16.632C12.384 16.92 12.756 17.316 13.068 17.82C13.26 18.132 13.38 18.504 13.428 18.936C13.5 19.368 13.536 19.8 13.536 20.232C13.536 20.928 13.404 21.54 13.14 22.068C12.876 22.596 12.528 23.04 12.096 23.4C11.64 23.736 11.124 24 10.548 24.192C9.972 24.36 9.372 24.444 8.748 24.444C7.668 24.444 6.696 24.276 5.832 23.94C4.968 23.58 4.224 23.16 3.6 22.68V19.476H0.756V23.652C1.068 24.132 1.5 24.588 2.052 25.02C2.628 25.452 3.276 25.836 3.996 26.172C4.716 26.508 5.508 26.784 6.372 27C7.236 27.192 8.124 27.288 9.036 27.288C10.044 27.288 11.004 27.132 11.916 26.82C12.828 26.484 13.632 26.016 14.328 25.416ZM30.7994 25.236C31.4474 24.588 31.9514 23.844 32.3114 23.004C32.6954 22.14 32.8874 21.216 32.8874 20.232C32.8874 19.272 32.6954 18.36 32.3114 17.496C31.9514 16.632 31.4474 15.876 30.7994 15.228C30.1514 14.604 29.3834 14.112 28.4954 13.752C27.6074 13.368 26.6594 13.176 25.6514 13.176C24.6434 13.176 23.6954 13.368 22.8074 13.752C21.9434 14.112 21.1874 14.604 20.5394 15.228C19.8914 15.876 19.3754 16.632 18.9914 17.496C18.6314 18.36 18.4514 19.272 18.4514 20.232C18.4514 21.24 18.6314 22.164 18.9914 23.004C19.3754 23.844 19.8914 24.588 20.5394 25.236C21.1874 25.884 21.9434 26.4 22.8074 26.784C23.6954 27.144 24.6434 27.324 25.6514 27.324C26.6594 27.324 27.6074 27.144 28.4954 26.784C29.3834 26.4 30.1514 25.884 30.7994 25.236ZM22.6634 23.184C22.2794 22.824 21.9794 22.392 21.7634 21.888C21.5474 21.384 21.4394 20.844 21.4394 20.268C21.4394 19.692 21.5474 19.152 21.7634 18.648C21.9794 18.144 22.2794 17.7 22.6634 17.316C23.0234 16.932 23.4554 16.632 23.9594 16.416C24.4634 16.2 25.0034 16.092 25.5794 16.092C26.1554 16.092 26.6954 16.2 27.1994 16.416C27.7034 16.632 28.1474 16.932 28.5314 17.316C28.9154 17.7 29.2154 18.144 29.4314 18.648C29.6474 19.152 29.7554 19.692 29.7554 20.268C29.7554 20.844 29.6474 21.384 29.4314 21.888C29.2154 22.392 28.9154 22.824 28.5314 23.184C28.1474 23.568 27.7034 23.868 27.1994 24.084C26.6954 24.3 26.1554 24.408 25.5794 24.408C25.0034 24.408 24.4634 24.3 23.9594 24.084C23.4554 23.868 23.0234 23.568 22.6634 23.184ZM45.4407 36V33.156H43.6767C45.0927 30.324 46.4967 27.528 47.8887 24.768C49.3047 21.984 50.7207 19.176 52.1367 16.344H55.0887V13.5H46.8447V16.344H49.0767C48.3807 17.664 47.6847 18.996 46.9887 20.34C46.3167 21.66 45.7527 22.992 45.2967 24.336C44.8407 22.992 44.2647 21.66 43.5687 20.34C42.8727 18.996 42.1767 17.664 41.4807 16.344H43.3887V13.5H35.3967V16.344H38.4207C39.3327 18.144 40.2207 19.92 41.0847 21.672C41.9727 23.424 42.8727 25.2 43.7847 27C43.2567 28.008 42.7287 29.028 42.2007 30.06C41.6967 31.092 41.1927 32.124 40.6887 33.156H37.4487V36H45.4407Z" fill="#100D0B"/>
<path d="M66.3275 27V24.156H63.6275V16.416H67.1555V13.5H63.6275V4.716H60.6395V13.5H57.6155V16.416H60.6395V27H66.3275ZM77.6661 27V24.156H75.3981V20.448C75.3981 19.704 75.5541 19.032 75.8661 18.432C76.2021 17.832 76.6581 17.34 77.2341 16.956C77.6181 16.692 78.0621 16.488 78.5661 16.344C79.0941 16.2 79.6581 16.128 80.2581 16.128L80.4741 13.176C80.1141 13.176 79.6941 13.26 79.2141 13.428C78.7581 13.596 78.2781 13.848 77.7741 14.184C77.2941 14.496 76.8261 14.892 76.3701 15.372C75.9381 15.828 75.5781 16.356 75.2901 16.956C75.2421 16.38 75.2181 16.116 75.2181 16.164C75.2421 16.212 75.2301 15.948 75.1821 15.372L75.0381 13.5H70.0341V16.344H72.4101V24.156H69.6741V27H77.6661ZM100.17 27V24.156H97.4343V13.5H94.9503C94.9503 13.788 94.9263 14.088 94.8783 14.4C94.8543 14.688 94.8303 14.952 94.8063 15.192C94.6143 14.784 94.1343 14.352 93.3663 13.896C92.5983 13.416 91.5543 13.176 90.2343 13.176C89.2263 13.176 88.2783 13.368 87.3903 13.752C86.5023 14.136 85.7343 14.652 85.0863 15.3C84.4383 15.948 83.9223 16.704 83.5383 17.568C83.1783 18.432 82.9983 19.332 82.9983 20.268C82.9983 21.228 83.1783 22.14 83.5383 23.004C83.9223 23.844 84.4383 24.588 85.0863 25.236C85.7343 25.884 86.5023 26.4 87.3903 26.784C88.2783 27.144 89.2263 27.324 90.2343 27.324C90.9303 27.324 91.5543 27.24 92.1063 27.072C92.6583 26.928 93.1383 26.748 93.5463 26.532C93.9303 26.34 94.2303 26.148 94.4463 25.956C94.6623 25.764 94.7823 25.632 94.8063 25.56C94.8063 25.728 94.8063 25.848 94.8063 25.92C94.8063 25.992 94.8063 26.112 94.8063 26.28V27H100.17ZM90.2343 16.092C90.8343 16.092 91.3743 16.188 91.8543 16.38C92.3583 16.572 92.8023 16.836 93.1863 17.172C93.5703 17.532 93.8703 17.976 94.0863 18.504C94.3263 19.032 94.4463 19.608 94.4463 20.232C94.4463 20.856 94.3263 21.432 94.0863 21.96C93.8703 22.488 93.5583 22.944 93.1503 23.328C92.7903 23.664 92.3583 23.928 91.8543 24.12C91.3743 24.312 90.8343 24.408 90.2343 24.408C89.7063 24.408 89.2143 24.336 88.7583 24.192C88.3023 24.024 87.9063 23.808 87.5703 23.544C87.0903 23.16 86.7063 22.68 86.4183 22.104C86.1543 21.528 86.0223 20.904 86.0223 20.232C86.0223 19.656 86.1063 19.128 86.2743 18.648C86.4663 18.168 86.7303 17.748 87.0663 17.388C87.4263 16.98 87.8823 16.668 88.4343 16.452C88.9863 16.212 89.5863 16.092 90.2343 16.092ZM111.362 25.668C111.698 25.212 111.926 24.744 112.046 24.264C112.19 23.784 112.262 23.376 112.262 23.04C112.262 22.296 112.13 21.684 111.866 21.204C111.602 20.7 111.266 20.28 110.858 19.944C110.45 19.632 110.006 19.368 109.526 19.152C109.046 18.936 108.602 18.744 108.194 18.576C107.762 18.408 107.39 18.24 107.078 18.072C106.766 17.88 106.586 17.64 106.538 17.352C106.514 17.16 106.526 16.992 106.574 16.848C106.622 16.68 106.706 16.536 106.826 16.416C106.946 16.32 107.102 16.248 107.294 16.2C107.486 16.128 107.714 16.092 107.978 16.092C108.17 16.092 108.35 16.116 108.518 16.164C108.686 16.188 108.866 16.224 109.058 16.272V17.82H111.722V14.688C111.458 14.4 111.146 14.16 110.786 13.968C110.45 13.776 110.102 13.62 109.742 13.5C109.382 13.38 109.022 13.296 108.662 13.248C108.326 13.2 108.038 13.176 107.798 13.176C107.39 13.176 106.934 13.248 106.43 13.392C105.926 13.536 105.458 13.776 105.026 14.112C104.594 14.424 104.234 14.832 103.946 15.336C103.658 15.84 103.514 16.464 103.514 17.208C103.514 18.048 103.658 18.72 103.946 19.224C104.234 19.728 104.594 20.112 105.026 20.376C105.482 20.664 105.962 20.892 106.466 21.06C106.97 21.204 107.426 21.36 107.834 21.528C108.266 21.672 108.602 21.864 108.842 22.104C109.106 22.32 109.238 22.644 109.238 23.076C109.238 23.316 109.19 23.52 109.094 23.688C109.022 23.832 108.926 23.952 108.806 24.048C108.638 24.168 108.446 24.252 108.23 24.3C108.038 24.348 107.846 24.372 107.654 24.372C107.246 24.372 106.898 24.36 106.61 24.336C106.346 24.288 106.07 24.204 105.782 24.084V22.68H103.118V25.812C103.598 26.34 104.246 26.724 105.062 26.964C105.878 27.18 106.73 27.288 107.618 27.288C108.578 27.288 109.358 27.132 109.958 26.82C110.558 26.508 111.026 26.124 111.362 25.668ZM114.999 36H122.991V33.156H120.399V26.316C120.399 26.268 120.387 26.196 120.363 26.1C120.363 26.004 120.351 25.92 120.327 25.848C120.399 25.944 120.507 26.052 120.651 26.172C120.795 26.268 121.059 26.412 121.443 26.604C121.827 26.796 122.283 26.964 122.811 27.108C123.339 27.252 123.939 27.324 124.611 27.324C125.619 27.324 126.567 27.144 127.455 26.784C128.343 26.4 129.111 25.884 129.759 25.236C130.407 24.588 130.911 23.832 131.271 22.968C131.655 22.104 131.847 21.192 131.847 20.232C131.847 19.272 131.655 18.372 131.271 17.532C130.911 16.668 130.407 15.912 129.759 15.264C129.111 14.616 128.343 14.112 127.455 13.752C126.567 13.368 125.619 13.176 124.611 13.176C123.339 13.176 122.319 13.428 121.551 13.932C120.783 14.436 120.279 14.856 120.039 15.192C120.015 14.928 119.991 14.664 119.967 14.4C119.943 14.112 119.919 13.812 119.895 13.5H114.639V16.344H117.411V33.156H114.999V36ZM124.611 16.092C125.163 16.092 125.679 16.176 126.159 16.344C126.639 16.512 127.059 16.74 127.419 17.028C127.851 17.412 128.187 17.88 128.427 18.432C128.691 18.96 128.823 19.56 128.823 20.232C128.823 20.88 128.703 21.48 128.463 22.032C128.223 22.584 127.887 23.04 127.455 23.4C127.095 23.712 126.675 23.964 126.195 24.156C125.715 24.324 125.187 24.408 124.611 24.408C124.035 24.408 123.495 24.312 122.991 24.12C122.511 23.928 122.091 23.676 121.731 23.364C121.299 22.98 120.963 22.524 120.723 21.996C120.507 21.444 120.399 20.856 120.399 20.232C120.399 19.656 120.495 19.116 120.687 18.612C120.879 18.108 121.155 17.676 121.515 17.316C121.875 16.932 122.319 16.632 122.847 16.416C123.375 16.2 123.963 16.092 124.611 16.092ZM151.534 27V24.156H148.798V13.5H146.314C146.314 13.788 146.29 14.088 146.242 14.4C146.218 14.688 146.194 14.952 146.17 15.192C145.978 14.784 145.498 14.352 144.73 13.896C143.962 13.416 142.918 13.176 141.598 13.176C140.59 13.176 139.642 13.368 138.754 13.752C137.866 14.136 137.098 14.652 136.45 15.3C135.802 15.948 135.286 16.704 134.902 17.568C134.542 18.432 134.362 19.332 134.362 20.268C134.362 21.228 134.542 22.14 134.902 23.004C135.286 23.844 135.802 24.588 136.45 25.236C137.098 25.884 137.866 26.4 138.754 26.784C139.642 27.144 140.59 27.324 141.598 27.324C142.294 27.324 142.918 27.24 143.47 27.072C144.022 26.928 144.502 26.748 144.91 26.532C145.294 26.34 145.594 26.148 145.81 25.956C146.026 25.764 146.146 25.632 146.17 25.56C146.17 25.728 146.17 25.848 146.17 25.92C146.17 25.992 146.17 26.112 146.17 26.28V27H151.534ZM141.598 16.092C142.198 16.092 142.738 16.188 143.218 16.38C143.722 16.572 144.166 16.836 144.55 17.172C144.934 17.532 145.234 17.976 145.45 18.504C145.69 19.032 145.81 19.608 145.81 20.232C145.81 20.856 145.69 21.432 145.45 21.96C145.234 22.488 144.922 22.944 144.514 23.328C144.154 23.664 143.722 23.928 143.218 24.12C142.738 24.312 142.198 24.408 141.598 24.408C141.07 24.408 140.578 24.336 140.122 24.192C139.666 24.024 139.27 23.808 138.934 23.544C138.454 23.16 138.07 22.68 137.782 22.104C137.518 21.528 137.386 20.904 137.386 20.232C137.386 19.656 137.47 19.128 137.638 18.648C137.83 18.168 138.094 17.748 138.43 17.388C138.79 16.98 139.246 16.668 139.798 16.452C140.35 16.212 140.95 16.092 141.598 16.092ZM162.041 27V24.156H159.773V-2.14577e-06H154.409V2.844H156.785V24.156H154.049V27H162.041ZM181.733 27V24.156H178.997V13.5H176.513C176.513 13.788 176.489 14.088 176.441 14.4C176.417 14.688 176.393 14.952 176.369 15.192C176.177 14.784 175.697 14.352 174.929 13.896C174.161 13.416 173.117 13.176 171.797 13.176C170.789 13.176 169.841 13.368 168.953 13.752C168.065 14.136 167.297 14.652 166.649 15.3C166.001 15.948 165.485 16.704 165.101 17.568C164.741 18.432 164.561 19.332 164.561 20.268C164.561 21.228 164.741 22.14 165.101 23.004C165.485 23.844 166.001 24.588 166.649 25.236C167.297 25.884 168.065 26.4 168.953 26.784C169.841 27.144 170.789 27.324 171.797 27.324C172.493 27.324 173.117 27.24 173.669 27.072C174.221 26.928 174.701 26.748 175.109 26.532C175.493 26.34 175.793 26.148 176.009 25.956C176.225 25.764 176.345 25.632 176.369 25.56C176.369 25.728 176.369 25.848 176.369 25.92C176.369 25.992 176.369 26.112 176.369 26.28V27H181.733ZM171.797 16.092C172.397 16.092 172.937 16.188 173.417 16.38C173.921 16.572 174.365 16.836 174.749 17.172C175.133 17.532 175.433 17.976 175.649 18.504C175.889 19.032 176.009 19.608 176.009 20.232C176.009 20.856 175.889 21.432 175.649 21.96C175.433 22.488 175.121 22.944 174.713 23.328C174.353 23.664 173.921 23.928 173.417 24.12C172.937 24.312 172.397 24.408 171.797 24.408C171.269 24.408 170.777 24.336 170.321 24.192C169.865 24.024 169.469 23.808 169.133 23.544C168.653 23.16 168.269 22.68 167.981 22.104C167.717 21.528 167.585 20.904 167.585 20.232C167.585 19.656 167.669 19.128 167.837 18.648C168.029 18.168 168.293 17.748 168.629 17.388C168.989 16.98 169.445 16.668 169.997 16.452C170.549 16.212 171.149 16.092 171.797 16.092ZM195.948 25.776L194.148 23.508C193.764 23.82 193.344 24.048 192.888 24.192C192.456 24.336 191.976 24.408 191.448 24.408C190.848 24.408 190.296 24.312 189.792 24.12C189.288 23.904 188.844 23.628 188.46 23.292C188.076 22.908 187.776 22.452 187.56 21.924C187.344 21.396 187.236 20.832 187.236 20.232C187.236 19.584 187.344 18.996 187.56 18.468C187.8 17.94 188.136 17.484 188.568 17.1C188.928 16.788 189.348 16.548 189.828 16.38C190.332 16.188 190.872 16.092 191.448 16.092C191.784 16.092 192.108 16.128 192.42 16.2C192.756 16.248 193.068 16.344 193.356 16.488V18.9H196.02V14.724C195.396 14.244 194.7 13.872 193.932 13.608C193.164 13.32 192.336 13.176 191.448 13.176C190.44 13.176 189.492 13.368 188.604 13.752C187.74 14.112 186.984 14.616 186.336 15.264C185.688 15.888 185.172 16.632 184.788 17.496C184.428 18.36 184.248 19.272 184.248 20.232C184.248 21.24 184.428 22.164 184.788 23.004C185.172 23.844 185.688 24.588 186.336 25.236C186.984 25.884 187.74 26.4 188.604 26.784C189.492 27.144 190.44 27.324 191.448 27.324C192.312 27.324 193.116 27.192 193.86 26.928C194.628 26.64 195.324 26.256 195.948 25.776ZM206.549 27V24.156H204.065V13.5H198.557V16.344H201.077V24.156H198.557V27H206.549ZM204.461 8.28C204.461 7.728 204.269 7.272 203.885 6.912C203.501 6.552 203.081 6.372 202.625 6.372C202.145 6.372 201.713 6.552 201.329 6.912C200.945 7.272 200.753 7.728 200.753 8.28C200.753 8.832 200.945 9.288 201.329 9.648C201.713 9.984 202.145 10.152 202.625 10.152C203.081 10.152 203.501 9.984 203.885 9.648C204.269 9.288 204.461 8.832 204.461 8.28ZM221.417 25.236C222.065 24.588 222.569 23.844 222.929 23.004C223.313 22.14 223.505 21.216 223.505 20.232C223.505 19.272 223.313 18.36 222.929 17.496C222.569 16.632 222.065 15.876 221.417 15.228C220.769 14.604 220.001 14.112 219.113 13.752C218.225 13.368 217.277 13.176 216.269 13.176C215.261 13.176 214.313 13.368 213.425 13.752C212.561 14.112 211.805 14.604 211.157 15.228C210.509 15.876 209.993 16.632 209.609 17.496C209.249 18.36 209.069 19.272 209.069 20.232C209.069 21.24 209.249 22.164 209.609 23.004C209.993 23.844 210.509 24.588 211.157 25.236C211.805 25.884 212.561 26.4 213.425 26.784C214.313 27.144 215.261 27.324 216.269 27.324C217.277 27.324 218.225 27.144 219.113 26.784C220.001 26.4 220.769 25.884 221.417 25.236ZM213.281 23.184C212.897 22.824 212.597 22.392 212.381 21.888C212.165 21.384 212.057 20.844 212.057 20.268C212.057 19.692 212.165 19.152 212.381 18.648C212.597 18.144 212.897 17.7 213.281 17.316C213.641 16.932 214.073 16.632 214.577 16.416C215.081 16.2 215.621 16.092 216.197 16.092C216.773 16.092 217.313 16.2 217.817 16.416C218.321 16.632 218.765 16.932 219.149 17.316C219.533 17.7 219.833 18.144 220.049 18.648C220.265 19.152 220.373 19.692 220.373 20.268C220.373 20.844 220.265 21.384 220.049 21.888C219.833 22.392 219.533 22.824 219.149 23.184C218.765 23.568 218.321 23.868 217.817 24.084C217.313 24.3 216.773 24.408 216.197 24.408C215.621 24.408 215.081 24.3 214.577 24.084C214.073 23.868 213.641 23.568 213.281 23.184Z" fill="#ED4C5C"/>
</svg>
