<svg width="59" height="19" viewBox="0 0 59 19" fill="none" xmlns="http://www.w3.org/2000/svg">
<path d="M7.164 13.208C7.5 12.896 7.764 12.524 7.956 12.092C8.16 11.66 8.262 11.174 8.262 10.634C8.262 9.758 8.106 9.068 7.794 8.564C7.482 8.06 7.074 7.688 6.57 7.448C6.018 7.184 5.442 6.968 4.842 6.8C4.242 6.62 3.726 6.416 3.294 6.188C3.018 6.032 2.796 5.846 2.628 5.63C2.46 5.402 2.376 5.108 2.376 4.748C2.376 4.484 2.412 4.238 2.484 4.01C2.568 3.77 2.688 3.56 2.844 3.38C3.012 3.188 3.228 3.038 3.492 2.93C3.756 2.81 4.068 2.75 4.428 2.75C4.788 2.75 5.118 2.786 5.418 2.858C5.718 2.93 5.982 3.014 6.21 3.11V4.172H7.632V2.408C7.344 2.168 7.05 1.976 6.75 1.832C6.462 1.688 6.18 1.58 5.904 1.508C5.628 1.436 5.364 1.388 5.112 1.364C4.86 1.34 4.626 1.328 4.41 1.328C3.75 1.328 3.192 1.43 2.736 1.634C2.28 1.838 1.914 2.102 1.638 2.426C1.362 2.75 1.164 3.11 1.044 3.506C0.924 3.902 0.87 4.298 0.882 4.694C0.894 5.438 1.044 6.014 1.332 6.422C1.632 6.83 2.004 7.148 2.448 7.376C2.88 7.604 3.348 7.784 3.852 7.916C4.356 8.048 4.824 8.204 5.256 8.384C5.532 8.516 5.772 8.66 5.976 8.816C6.192 8.96 6.378 9.158 6.534 9.41C6.63 9.566 6.69 9.752 6.714 9.968C6.75 10.184 6.768 10.4 6.768 10.616C6.768 10.964 6.702 11.27 6.57 11.534C6.438 11.798 6.264 12.02 6.048 12.2C5.82 12.368 5.562 12.5 5.274 12.596C4.986 12.68 4.686 12.722 4.374 12.722C3.834 12.722 3.348 12.638 2.916 12.47C2.484 12.29 2.112 12.08 1.8 11.84V10.238H0.378V12.326C0.534 12.566 0.75 12.794 1.026 13.01C1.314 13.226 1.638 13.418 1.998 13.586C2.358 13.754 2.754 13.892 3.186 14C3.618 14.096 4.062 14.144 4.518 14.144C5.022 14.144 5.502 14.066 5.958 13.91C6.414 13.742 6.816 13.508 7.164 13.208ZM15.3997 13.118C15.7237 12.794 15.9757 12.422 16.1557 12.002C16.3477 11.57 16.4437 11.108 16.4437 10.616C16.4437 10.136 16.3477 9.68 16.1557 9.248C15.9757 8.816 15.7237 8.438 15.3997 8.114C15.0757 7.802 14.6917 7.556 14.2477 7.376C13.8037 7.184 13.3297 7.088 12.8257 7.088C12.3217 7.088 11.8477 7.184 11.4037 7.376C10.9717 7.556 10.5937 7.802 10.2697 8.114C9.9457 8.438 9.6877 8.816 9.4957 9.248C9.3157 9.68 9.2257 10.136 9.2257 10.616C9.2257 11.12 9.3157 11.582 9.4957 12.002C9.6877 12.422 9.9457 12.794 10.2697 13.118C10.5937 13.442 10.9717 13.7 11.4037 13.892C11.8477 14.072 12.3217 14.162 12.8257 14.162C13.3297 14.162 13.8037 14.072 14.2477 13.892C14.6917 13.7 15.0757 13.442 15.3997 13.118ZM11.3317 12.092C11.1397 11.912 10.9897 11.696 10.8817 11.444C10.7737 11.192 10.7197 10.922 10.7197 10.634C10.7197 10.346 10.7737 10.076 10.8817 9.824C10.9897 9.572 11.1397 9.35 11.3317 9.158C11.5117 8.966 11.7277 8.816 11.9797 8.708C12.2317 8.6 12.5017 8.546 12.7897 8.546C13.0777 8.546 13.3477 8.6 13.5997 8.708C13.8517 8.816 14.0737 8.966 14.2657 9.158C14.4577 9.35 14.6077 9.572 14.7157 9.824C14.8237 10.076 14.8777 10.346 14.8777 10.634C14.8777 10.922 14.8237 11.192 14.7157 11.444C14.6077 11.696 14.4577 11.912 14.2657 12.092C14.0737 12.284 13.8517 12.434 13.5997 12.542C13.3477 12.65 13.0777 12.704 12.7897 12.704C12.5017 12.704 12.2317 12.65 11.9797 12.542C11.7277 12.434 11.5117 12.284 11.3317 12.092ZM22.7204 18.5V17.078H21.8384C22.5464 15.662 23.2484 14.264 23.9444 12.884C24.6524 11.492 25.3604 10.088 26.0684 8.672H27.5444V7.25H23.4224V8.672H24.5384C24.1904 9.332 23.8424 9.998 23.4944 10.67C23.1584 11.33 22.8764 11.996 22.6484 12.668C22.4204 11.996 22.1324 11.33 21.7844 10.67C21.4364 9.998 21.0884 9.332 20.7404 8.672H21.6944V7.25H17.6984V8.672H19.2104C19.6664 9.572 20.1104 10.46 20.5424 11.336C20.9864 12.212 21.4364 13.1 21.8924 14C21.6284 14.504 21.3644 15.014 21.1004 15.53C20.8484 16.046 20.5964 16.562 20.3444 17.078H18.7244V18.5H22.7204Z" fill="#100D0B"/>
<path d="M32.8037 14V12.578H31.6697V10.724C31.6697 10.352 31.7477 10.016 31.9037 9.716C32.0717 9.416 32.2997 9.17 32.5877 8.978C32.7797 8.846 33.0017 8.744 33.2537 8.672C33.5177 8.6 33.7997 8.564 34.0997 8.564L34.2077 7.088C34.0277 7.088 33.8177 7.13 33.5777 7.214C33.3497 7.298 33.1097 7.424 32.8577 7.592C32.6177 7.748 32.3837 7.946 32.1557 8.186C31.9397 8.414 31.7597 8.678 31.6157 8.978C31.5917 8.69 31.5797 8.558 31.5797 8.582C31.5917 8.606 31.5857 8.474 31.5617 8.186L31.4897 7.25H28.9877V8.672H30.1757V12.578H28.8077V14H32.8037ZM35.4698 14H38.1518V13.64C38.1518 13.556 38.1518 13.496 38.1518 13.46C38.1518 13.424 38.1518 13.364 38.1518 13.28C38.1638 13.316 38.2238 13.382 38.3318 13.478C38.4398 13.574 38.5958 13.67 38.7998 13.766C38.9918 13.874 39.2258 13.964 39.5018 14.036C39.7778 14.12 40.0898 14.162 40.4378 14.162C40.9418 14.162 41.4158 14.072 41.8598 13.892C42.3038 13.7 42.6878 13.442 43.0118 13.118C43.3358 12.794 43.5878 12.416 43.7678 11.984C43.9598 11.552 44.0558 11.096 44.0558 10.616C44.0558 10.136 43.9598 9.686 43.7678 9.266C43.5878 8.834 43.3358 8.456 43.0118 8.132C42.6878 7.808 42.3038 7.556 41.8598 7.376C41.4158 7.184 40.9418 7.088 40.4378 7.088C40.1258 7.088 39.8318 7.13 39.5558 7.214C39.2918 7.298 39.0578 7.394 38.8538 7.502C38.6498 7.61 38.5058 7.706 38.4218 7.79C38.3378 7.862 38.2898 7.916 38.2778 7.952C38.3018 7.856 38.3138 7.778 38.3138 7.718C38.3258 7.646 38.3318 7.568 38.3318 7.484V0.499999H35.6498V1.922H36.8378V12.578H35.4698V14ZM40.4378 8.546C40.7258 8.546 40.9898 8.594 41.2298 8.69C41.4818 8.774 41.6978 8.894 41.8778 9.05C42.0818 9.23 42.2438 9.458 42.3638 9.734C42.4838 9.998 42.5438 10.292 42.5438 10.616C42.5438 10.916 42.4898 11.198 42.3818 11.462C42.2738 11.714 42.1298 11.936 41.9498 12.128C41.7578 12.308 41.5358 12.452 41.2838 12.56C41.0318 12.656 40.7498 12.704 40.4378 12.704C40.1498 12.704 39.8798 12.656 39.6278 12.56C39.3878 12.464 39.1718 12.338 38.9798 12.182C38.7758 11.99 38.6138 11.762 38.4938 11.498C38.3858 11.222 38.3318 10.928 38.3318 10.616C38.3318 10.34 38.3738 10.082 38.4578 9.842C38.5538 9.59 38.6858 9.374 38.8538 9.194C39.0338 8.99 39.2558 8.834 39.5198 8.726C39.7958 8.606 40.1018 8.546 40.4378 8.546ZM49.6696 14V12.578H48.3196V8.708H50.0836V7.25H48.3196V2.858H46.8256V7.25H45.3136V8.708H46.8256V14H49.6696ZM57.5169 13.118C57.8409 12.794 58.0929 12.422 58.2729 12.002C58.4649 11.57 58.5609 11.108 58.5609 10.616C58.5609 10.136 58.4649 9.68 58.2729 9.248C58.0929 8.816 57.8409 8.438 57.5169 8.114C57.1929 7.802 56.8089 7.556 56.3649 7.376C55.9209 7.184 55.4469 7.088 54.9429 7.088C54.4389 7.088 53.9649 7.184 53.5209 7.376C53.0889 7.556 52.7109 7.802 52.3869 8.114C52.0629 8.438 51.8049 8.816 51.6129 9.248C51.4329 9.68 51.3429 10.136 51.3429 10.616C51.3429 11.12 51.4329 11.582 51.6129 12.002C51.8049 12.422 52.0629 12.794 52.3869 13.118C52.7109 13.442 53.0889 13.7 53.5209 13.892C53.9649 14.072 54.4389 14.162 54.9429 14.162C55.4469 14.162 55.9209 14.072 56.3649 13.892C56.8089 13.7 57.1929 13.442 57.5169 13.118ZM53.4489 12.092C53.2569 11.912 53.1069 11.696 52.9989 11.444C52.8909 11.192 52.8369 10.922 52.8369 10.634C52.8369 10.346 52.8909 10.076 52.9989 9.824C53.1069 9.572 53.2569 9.35 53.4489 9.158C53.6289 8.966 53.8449 8.816 54.0969 8.708C54.3489 8.6 54.6189 8.546 54.9069 8.546C55.1949 8.546 55.4649 8.6 55.7169 8.708C55.9689 8.816 56.1909 8.966 56.3829 9.158C56.5749 9.35 56.7249 9.572 56.8329 9.824C56.9409 10.076 56.9949 10.346 56.9949 10.634C56.9949 10.922 56.9409 11.192 56.8329 11.444C56.7249 11.696 56.5749 11.912 56.3829 12.092C56.1909 12.284 55.9689 12.434 55.7169 12.542C55.4649 12.65 55.1949 12.704 54.9069 12.704C54.6189 12.704 54.3489 12.65 54.0969 12.542C53.8449 12.434 53.6289 12.284 53.4489 12.092Z" fill="#ED4C5C"/>
</svg>
