<svg width="17" height="12" viewBox="0 0 17 12" fill="none" xmlns="http://www.w3.org/2000/svg">
<path d="M2.48302 0.600098H14.408C15.533 0.600098 16.1 1.1311 16.1 2.2111V9.7891C16.1 10.8601 15.533 11.4001 14.408 11.4001H2.48302C1.35802 11.4001 0.791016 10.8601 0.791016 9.7891V2.2111C0.791016 1.1311 1.35802 0.600098 2.48302 0.600098ZM8.44101 8.3401L14.507 3.3631C14.723 3.1831 14.894 2.7691 14.624 2.4001C14.363 2.0311 13.886 2.0221 13.571 2.2471L8.44101 5.7211L3.32001 2.2471C3.00502 2.0221 2.52802 2.0311 2.26702 2.4001C1.99702 2.7691 2.16802 3.1831 2.38402 3.3631L8.44101 8.3401Z" fill="white"/>
</svg>
