<svg width="57" height="57" viewBox="0 0 57 57" fill="none" xmlns="http://www.w3.org/2000/svg">
<circle cx="28.5005" cy="28.5" r="22.5" fill="#ED4C5C"/>
<path d="M29.4215 19.6501C29.0309 19.2595 28.3978 19.2595 28.0072 19.6501L21.6433 26.014C21.2528 26.4046 21.2528 27.0377 21.6433 27.4282C22.0338 27.8188 22.667 27.8188 23.0575 27.4282L28.7144 21.7714L34.3712 27.4282C34.7617 27.8188 35.3949 27.8188 35.7854 27.4282C36.1759 27.0377 36.1759 26.4046 35.7854 26.014L29.4215 19.6501ZM29.7144 37.5V20.3572H27.7144V37.5H29.7144Z" fill="white"/>
<path d="M0.000488281 28.5C0.00048769 35.2609 2.40394 41.8015 6.78155 46.9537C11.1592 52.1059 17.2258 55.5341 23.8979 56.6259C30.57 57.7178 37.4129 56.4022 43.2044 52.9141C48.996 49.426 53.3589 43.9926 55.5139 37.5844C57.6689 31.1762 57.4757 24.2107 54.9686 17.9318C52.4616 11.653 47.8042 6.46991 41.8281 3.3083C35.8521 0.146697 28.9467 -0.787487 22.3455 0.672616C15.7442 2.13272 9.87697 5.89201 5.79177 11.279L7.15901 12.3159C10.9983 7.25319 16.5122 3.72024 22.7161 2.34805C28.9199 0.975856 35.4095 1.85379 41.0257 4.82505C46.6419 7.7963 51.019 12.6673 53.375 18.5681C55.7311 24.4689 55.9127 31.0151 53.8875 37.0375C51.8622 43.0598 47.762 48.1661 42.3191 51.4441C36.8763 54.7222 30.4454 55.9586 24.175 54.9325C17.9046 53.9064 12.2033 50.6847 8.08921 45.8427C3.97516 41.0007 1.71641 34.8538 1.71642 28.5H0.000488281Z" fill="#3E4347"/>
</svg>
