<svg width="18" height="18" viewBox="0 0 18 18" fill="none" xmlns="http://www.w3.org/2000/svg">
<path d="M9.1875 4.42602C8.31993 4.42602 7.47185 4.68328 6.7505 5.16527C6.02915 5.64726 5.46692 6.33234 5.13492 7.13386C4.80292 7.93539 4.71605 8.81736 4.8853 9.66825C5.05456 10.5191 5.47233 11.3007 6.08579 11.9142C6.69925 12.5277 7.48084 12.9454 8.33174 13.1147C9.18263 13.2839 10.0646 13.1971 10.8661 12.8651C11.6677 12.5331 12.3527 11.9708 12.8347 11.2495C13.3167 10.5281 13.574 9.68006 13.574 8.8125C13.574 7.64913 13.1118 6.53341 12.2892 5.71079C11.4666 4.88816 10.3509 4.42602 9.1875 4.42602ZM9.18709 11.6199C8.63198 11.6198 8.08935 11.4552 7.62779 11.1468C7.16612 10.8383 6.80628 10.3998 6.5938 9.88684C6.38131 9.37385 6.32572 8.80938 6.43404 8.2648C6.54237 7.72022 6.80974 7.21999 7.20237 6.82737C7.59499 6.43474 8.09522 6.16737 8.6398 6.05904C9.18438 5.95072 9.74885 6.00631 10.2618 6.2188C10.7748 6.43128 11.2133 6.79112 11.5218 7.25279C11.8302 7.71435 11.9948 8.25698 11.9949 8.81209C11.9926 9.55607 11.6961 10.2689 11.17 10.795C10.6439 11.3211 9.93107 11.6176 9.18709 11.6199ZM13.1441 -0.25H5.23086C3.8767 -0.25 2.57801 0.287938 1.62047 1.24547C0.662938 2.20301 0.125 3.5017 0.125 4.85586V12.7691C0.125 14.1233 0.662938 15.422 1.62047 16.3795C2.57801 17.3371 3.8767 17.875 5.23086 17.875H13.1441C14.4983 17.875 15.797 17.3371 16.7545 16.3795C17.7121 15.422 18.25 14.1233 18.25 12.7691V4.85586C18.25 3.5017 17.7121 2.20301 16.7545 1.24547C15.797 0.287938 14.4983 -0.25 13.1441 -0.25ZM16.6709 12.7691C16.6709 13.7045 16.2993 14.6015 15.6379 15.2629C14.9765 15.9243 14.0795 16.2959 13.1441 16.2959H5.23086C4.2955 16.2959 3.39845 15.9243 2.73705 15.2629C2.07565 14.6015 1.70408 13.7045 1.70408 12.7691V4.85586C1.70408 3.9205 2.07565 3.02345 2.73705 2.36205C3.39845 1.70065 4.2955 1.32908 5.23086 1.32908H13.1441C14.0795 1.32908 14.9765 1.70065 15.6379 2.36205C16.2993 3.02345 16.6709 3.9205 16.6709 4.85586V12.7691ZM14.8191 4.77496C14.9453 4.58597 15.0127 4.36377 15.0127 4.13648C15.0127 3.83168 14.8917 3.53937 14.6761 3.32385C14.4606 3.10832 14.1683 2.98724 13.8635 2.98724C13.6362 2.98724 13.414 3.05464 13.225 3.18092C13.036 3.3072 12.8887 3.48669 12.8018 3.69668C12.7148 3.90668 12.692 4.13775 12.7364 4.36068C12.7807 4.58361 12.8902 4.78838 13.0509 4.94911C13.2116 5.10983 13.4164 5.21929 13.6393 5.26363C13.8622 5.30797 14.0933 5.28521 14.3033 5.19823C14.5133 5.11125 14.6928 4.96395 14.8191 4.77496Z" fill="white" stroke="white" stroke-width="0.5"/>
</svg>
