<svg width="48" height="48" viewBox="0 0 48 48" fill="none" xmlns="http://www.w3.org/2000/svg">
<path d="M24 12.7041C21.7659 12.7041 19.5819 13.3666 17.7243 14.6078C15.8667 15.849 14.4189 17.6132 13.5639 19.6772C12.709 21.7413 12.4853 24.0125 12.9211 26.2037C13.357 28.3949 14.4328 30.4077 16.0126 31.9874C17.5923 33.5672 19.6051 34.643 21.7963 35.0789C23.9875 35.5147 26.2587 35.291 28.3228 34.4361C30.3868 33.5811 32.151 32.1333 33.3922 30.2757C34.6334 28.4181 35.2959 26.2341 35.2959 24C35.2959 21.0041 34.1058 18.131 31.9874 16.0126C29.869 13.8942 26.9959 12.7041 24 12.7041ZM23.9992 31.4796C22.5202 31.4794 21.0744 31.0408 19.8446 30.2191C18.6145 29.3972 17.6559 28.229 17.0898 26.8623C16.5236 25.4956 16.3755 23.9917 16.6641 22.5408C16.9527 21.0899 17.6651 19.7572 18.7111 18.7111C19.7572 17.6651 21.0899 16.9527 22.5408 16.6641C23.9917 16.3755 25.4956 16.5236 26.8623 17.0898C28.229 17.6559 29.3972 18.6145 30.2191 19.8446C31.0408 21.0744 31.4794 22.5202 31.4796 23.9992C31.4736 25.9813 30.6836 27.8805 29.282 29.282C27.8805 30.6836 25.9813 31.4736 23.9992 31.4796ZM34.3265 0.5H13.6735C10.1796 0.5 6.82893 1.88792 4.35842 4.35842C1.88792 6.82893 0.5 10.1796 0.5 13.6735V34.3265C0.5 37.8204 1.88792 41.1711 4.35842 43.6416C6.82893 46.1121 10.1796 47.5 13.6735 47.5H34.3265C37.8204 47.5 41.1711 46.1121 43.6416 43.6416C46.1121 41.1711 47.5 37.8204 47.5 34.3265V13.6735C47.5 10.1796 46.1121 6.82893 43.6416 4.35842C41.1711 1.88792 37.8204 0.5 34.3265 0.5ZM43.6837 34.3265C43.6837 36.8082 42.6978 39.1882 40.943 40.943C39.1882 42.6978 36.8082 43.6837 34.3265 43.6837H13.6735C11.1918 43.6837 8.81177 42.6978 7.05697 40.943C5.30217 39.1882 4.31633 36.8082 4.31633 34.3265V13.6735C4.31633 11.1918 5.30217 8.81177 7.05697 7.05697C8.81177 5.30217 11.1918 4.31633 13.6735 4.31633H34.3265C36.8082 4.31633 39.1882 5.30217 40.943 7.05697C42.6978 8.81177 43.6837 11.1918 43.6837 13.6735V34.3265ZM38.5712 13.3776C38.8841 12.9094 39.051 12.359 39.051 11.7959C39.051 11.0409 38.7511 10.3167 38.2172 9.78283C37.6833 9.24892 36.9591 8.94898 36.2041 8.94898C35.641 8.94898 35.0906 9.11595 34.6224 9.42878C34.1542 9.7416 33.7893 10.1862 33.5739 10.7064C33.3584 11.2267 33.302 11.7991 33.4118 12.3513C33.5217 12.9036 33.7928 13.4109 34.191 13.809C34.5891 14.2072 35.0964 14.4783 35.6487 14.5882C36.2009 14.698 36.7733 14.6416 37.2936 14.4261C37.8138 14.2107 38.2584 13.8458 38.5712 13.3776Z" fill="white" stroke="white"/>
</svg>
