<svg width="60" height="60" viewBox="0 0 60 60" fill="none" xmlns="http://www.w3.org/2000/svg">
<path d="M60.0001 4.00001C60.0001 2 58.0001 0 56.0001 0H4.00001C2 0 0 2 0 4.00001V42.0001H60.0001V4.00001Z" fill="#ED4C5C"/>
<path d="M0 42.0001V46.0002C0 48.0002 2 50.0002 4.00001 50.0002H56.0001C58.0001 50.0002 60.0001 48.0002 60.0001 46.0002V42.0001H0Z" fill="#DDDDDD"/>
<path d="M22.0003 52.0001C22.0003 56.0001 18.0003 56.0001 14.0003 56.0001H46.0004C42.0003 56.0001 38.0003 56.0001 38.0003 52.0001V50.0001H22.0003V52.0001Z" fill="#BFBEBE"/>
<path d="M4.00025 3.99995H56.0004V38H4.00025V3.99995Z" fill="#ED4C5C"/>
<path d="M29.9998 46.9C30.5521 46.9 30.9998 46.4523 30.9998 45.9C30.9998 45.3478 30.5521 44.9 29.9998 44.9C29.4475 44.9 28.9998 45.3478 28.9998 45.9C28.9998 46.4523 29.4475 46.9 29.9998 46.9Z" fill="#94989B"/>
<path d="M14.0003 56.0001H46.0004L45.9999 60H13.9998L14.0003 56.0001Z" fill="#94989B"/>
</svg>
