<svg width="45" height="48" viewBox="0 0 45 48" fill="none" xmlns="http://www.w3.org/2000/svg">
<path d="M27.3598 28.5022L37.7426 31.5769H29.8152L18.9413 28.5022H27.3598Z" fill="#C94747"/>
<path d="M3.50751 16.503H18.9414V45.0002H3.50751V16.503Z" fill="#F9F3D9"/>
<path d="M18.9414 16.503H27.3598L27.3598 28.5022H18.9413L18.9414 16.503Z" fill="#DBB471"/>
<path d="M14.7286 6.00366L0.767933 16.5027H18.9379L14.7286 6.00366Z" fill="#ED4C5C"/>
<path d="M20.3445 7.50362H22.4491V13.503H20.3445V7.50362Z" fill="#D0D0D0"/>
<path d="M22.4491 7.50362H23.8519V14.253H22.4488L22.4491 7.50362Z" fill="#94989B"/>
<path d="M14.7322 6.00369L30.1661 16.5027L18.9414 16.503L14.7322 6.00369Z" fill="#C94747"/>
<path d="M19.6429 6.00369H23.1506V7.50355H19.6429V6.00369Z" fill="#D0D0D0"/>
<path d="M23.1506 6.00369H24.5535V7.50355H23.1506V6.00369Z" fill="#94989B"/>
<path d="M8.41657 20.8525H12.9064V25.652H8.41657V20.8525Z" fill="#D6EEF0"/>
<path d="M7.85694 20.253V26.2525H13.4693V20.253H7.85694ZM12.908 20.853V22.9528H10.9437V20.853H12.908ZM10.3825 20.853V22.9528H8.41817V20.853H10.3825ZM8.41817 25.6525V23.5527H10.3825V25.6525H8.41817ZM10.9437 25.6525V23.5527H12.908V25.6525H10.9437Z" fill="#89664C"/>
<path d="M21.4649 20.5523H24.8323V25.9518H21.4649V20.5523Z" fill="#D6EEF0"/>
<path d="M21.1879 20.253V26.2525H25.1165V20.253H21.1879ZM21.7491 20.853H22.8716V22.9528H21.7491V20.853ZM21.7491 25.6525V23.5527H22.8716V25.6525H21.7491ZM24.5553 25.6525H23.4328V23.5527H24.5553V25.6525ZM24.5553 22.9528H23.4328V20.853H24.5553V22.9528ZM9.61248 36.8264H13.962V45.0007H9.61248V36.8264ZM13.471 35.6266H14.5934V36.8264H13.471V35.6266Z" fill="#89664C"/>
<path d="M7.9238 36.8262H9.04626V45.0005H7.9238V36.8262Z" fill="#594640"/>
<path d="M7.4398 35.6264H12.9118V36.8263H7.4398V35.6264Z" fill="#DBB471"/>
<path d="M12.487 40.8004C12.7194 40.8004 12.9079 40.599 12.9079 40.3505C12.9079 40.102 12.7194 39.9005 12.487 39.9005C12.2545 39.9005 12.0661 40.102 12.0661 40.3505C12.0661 40.599 12.2545 40.8004 12.487 40.8004Z" fill="#F9F3D9"/>
<path d="M0.0668721 45.0003H36.547V48H0.0668721V45.0003Z" fill="#83BF4F"/>
<path d="M27.9942 31.5767H34.5185V45.0004H27.9942V31.5767Z" fill="#DBB471"/>
<path d="M18.9413 31.5767H27.9912V45.0004L18.9414 45.0002L18.9413 31.5767Z" fill="#F9F3D9"/>
<path d="M18.9413 28.5022H3.50771L0 31.5769H29.8152L18.9413 28.5022Z" fill="#ED4C5C"/>
<path d="M19.8517 35.8509H24.3416V40.6505H19.8517V35.8509Z" fill="#D6EEF0"/>
<path d="M19.2921 35.2514V41.2508H24.9044V35.2514H19.2921ZM24.3432 35.8513V37.9511H22.3789V35.8513H24.3432ZM21.8176 35.8513V37.9511H19.8533V35.8513H21.8176ZM19.8533 40.6509V38.5511H21.8176V40.6509H19.8533ZM22.3789 40.6509V38.5511H24.3432V40.6509H22.3789Z" fill="#89664C"/>
<path d="M29.5334 35.5517H32.9008V40.9512H29.5334V35.5517Z" fill="#D6EEF0"/>
<path d="M29.2554 35.2514V41.2508H33.184V35.2514H29.2554ZM29.8166 35.8513H30.9391V37.9511H29.8166V35.8513ZM29.8166 40.6509V38.5511H30.9391V40.6509H29.8166ZM32.6228 40.6509H31.5003V38.5511H32.6228V40.6509ZM32.6228 37.9511H31.5003V35.8513H32.6228V37.9511Z" fill="#89664C"/>
<path d="M36.4124 45.0003H44.8309V48H36.4124V45.0003Z" fill="#699635"/>
<path d="M36.6212 25.5025H39.4273V45.0006H36.6212V25.5025Z" fill="#D3976E"/>
<path d="M39.4292 25.5026H38.3769V25.8775C38.3769 27.6024 37.8156 27.6024 37.8156 29.3272C37.8156 31.052 38.3769 31.052 38.3769 32.7019C38.3769 34.4267 37.8156 34.4267 37.8156 36.1515C37.8156 37.8764 38.3769 37.8764 38.3769 39.5262C38.3769 41.251 37.8156 41.251 37.8156 42.9009C37.8156 43.9508 37.9559 44.4007 38.0962 44.9257H39.359C39.4292 45.0007 39.4292 25.5026 39.4292 25.5026Z" fill="#89664C"/>
<path d="M37.3228 2.17948C35.9899 4.20428 34.3763 0.529637 32.2717 3.67933C30.1671 6.82903 31.2896 9.60377 31.921 11.6286C33.1837 15.7532 30.588 17.0281 32.3419 20.4777C34.0256 23.9274 31.5702 25.5772 34.7973 27.452C38.0244 29.3269 36.4108 25.2773 39.7081 27.677C43.0053 30.0768 43.4262 26.0272 43.0755 24.5273C42.3739 21.7526 44.2681 21.0777 44.8293 18.7529C45.7413 14.6283 42.6545 12.3785 43.6367 8.47887C44.4785 4.65424 41.3216 -4.04492 37.3228 2.17948Z" fill="#83BF4F"/>
<path d="M43.4963 8.55366C44.268 5.62894 42.6545 0.00448494 40.1289 0.00448494C40.1289 0.00448494 41.8126 2.40425 39.4274 5.40397C37.0421 8.40368 41.4618 9.90353 39.4274 12.6783C37.3929 15.453 41.3215 18.1527 39.7781 20.3275C37.884 23.0273 34.8673 22.6523 36.6212 27.8268V27.9018C37.3227 27.4519 37.3929 26.177 39.5677 27.7518C42.8649 30.1516 43.2858 26.102 42.9351 24.6021C42.2335 21.8274 44.1277 21.1525 44.6889 18.8277C45.6711 14.7031 42.5843 12.4533 43.4963 8.55366Z" fill="#699635"/>
<path d="M40.5468 8.40375C40.0558 8.40375 40.8275 7.9538 40.8275 7.35386C40.8275 6.75391 40.0558 6.30396 40.5468 6.30396C41.0379 6.30396 41.529 6.75391 41.529 7.35386C41.529 7.9538 41.1081 8.40375 40.5468 8.40375ZM41.8096 17.4779C41.0379 17.4779 42.2305 16.8029 42.2305 15.978C42.2305 15.1531 41.0379 14.4782 41.8096 14.4782C42.5813 14.4782 43.2127 15.1531 43.2127 15.978C43.2127 16.8029 42.5813 17.4779 41.8096 17.4779ZM40.5468 25.1271C39.9856 25.1271 40.5468 24.6022 40.5468 24.0022C40.5468 23.4023 39.9856 22.8774 40.5468 22.8774C41.1081 22.8774 41.5992 23.4023 41.5992 24.0022C41.5992 24.6022 41.1081 25.1271 40.5468 25.1271ZM34.5837 9.07869C35.145 9.07869 34.4434 9.60364 34.4434 10.2036C34.4434 10.8035 35.2151 11.3285 34.5837 11.3285C33.9524 11.3285 33.5314 10.8035 33.5314 10.2036C33.5314 9.60364 34.0225 9.07869 34.5837 9.07869ZM36.8988 4.8041C37.6705 4.8041 36.5481 5.47904 36.5481 6.30396C36.5481 7.12888 37.7407 7.80381 36.8988 7.80381C36.1271 7.80381 35.4957 7.12888 35.4957 6.30396C35.4957 5.47904 36.057 4.8041 36.8988 4.8041Z" fill="#83BF4F"/>
<path d="M36.2707 16.2035C37.4633 16.2035 35.7796 17.1784 35.7796 18.4532C35.7796 19.7281 37.3932 20.703 36.2707 20.703C35.0781 20.703 34.1661 19.7281 34.1661 18.4532C34.1661 17.1784 35.0781 16.2035 36.2707 16.2035ZM36.9021 12.0788C37.4633 12.0788 36.9021 12.6038 36.9021 13.2037C36.9021 13.8037 37.4633 14.3286 36.9021 14.3286C36.3409 14.3286 35.8498 13.8037 35.8498 13.2037C35.8498 12.6038 36.3409 12.0788 36.9021 12.0788Z" fill="#699635"/>
<path d="M40.7591 42.7506H41.0397V45.0004H40.7591V42.7506Z" fill="#83BF4F"/>
<path d="M40.1292 40.4259V42.1508C40.1292 42.4507 40.3397 42.7507 40.6905 42.7507H41.2517V41.5508C41.1815 40.7259 40.1292 40.4259 40.1292 40.4259Z" fill="#C94747"/>
<path d="M41.7445 40.4259V42.1508C41.7445 42.4508 41.5341 42.7507 41.1833 42.7507H40.6221V41.5508C40.6221 40.7259 41.7445 40.4259 41.7445 40.4259Z" fill="#ED4C5C"/>
<path d="M43.8457 41.0255H44.1263V45.0001H43.8457V41.0255Z" fill="#83BF4F"/>
<path d="M43.2147 38.6261V40.3509C43.2147 40.6509 43.4252 40.9509 43.776 40.9509H44.3372V39.751C44.267 39.0011 43.2147 38.6261 43.2147 38.6261Z" fill="#C94747"/>
<path d="M44.8261 38.6261V40.3509C44.8261 40.6509 44.6157 40.9509 44.2649 40.9509H43.7037V39.751C43.7037 39.0011 44.8261 38.6261 44.8261 38.6261Z" fill="#ED4C5C"/>
<path d="M41.1811 37.6509V39.3757C41.1811 39.6757 41.3916 39.9757 41.7423 39.9757H42.3036V38.7758C42.3036 38.0259 41.1811 37.6509 41.1811 37.6509Z" fill="#F2B200"/>
<path d="M42.8633 37.6509V39.3757C42.8633 39.6757 42.6529 39.9757 42.3021 39.9757H41.7409V38.7758C41.7409 38.0259 42.8633 37.6509 42.8633 37.6509Z" fill="#FFCE31"/>
<path d="M41.8827 40.0509H42.1633V45.0005H41.8827V40.0509Z" fill="#83BF4F"/>
<path d="M38.935 38.5511V40.276C38.935 40.5759 39.2156 40.8759 39.4962 40.8759H39.9873V39.751C39.9873 38.8511 38.935 38.5511 38.935 38.5511Z" fill="#F2B200"/>
<path d="M40.5501 38.5511V40.276C40.5501 40.5759 40.3396 40.8759 39.9888 40.8759H39.4276V39.751C39.4276 38.8511 40.5501 38.5511 40.5501 38.5511Z" fill="#FFCE31"/>
<path d="M39.5665 40.8758H39.8471V45.0004H39.5665V40.8758ZM34.3751 42.7506H34.6557V45.0004H34.3751V42.7506Z" fill="#83BF4F"/>
<path d="M33.6734 40.4259V42.1508C33.6734 42.4507 33.8839 42.7507 34.2347 42.7507H34.7959V41.5508C34.7959 40.7259 33.6734 40.4259 33.6734 40.4259Z" fill="#C94747"/>
<path d="M35.3555 40.4259V42.1508C35.3555 42.4508 35.145 42.7507 34.7943 42.7507H34.233V41.5508C34.233 40.7259 35.3555 40.4259 35.3555 40.4259Z" fill="#ED4C5C"/>
<path d="M37.4648 41.0254H37.7454V45.0001H37.4648V41.0254Z" fill="#83BF4F"/>
<path d="M36.7632 38.6261V40.3509C36.7632 40.6509 36.9737 40.9509 37.3244 40.9509H37.8857V39.751C37.8857 39.0011 36.7632 38.6261 36.7632 38.6261Z" fill="#C94747"/>
<path d="M38.4453 38.6261V40.3509C38.4453 40.6509 38.2348 40.9509 37.884 40.9509H37.3228V39.751C37.3228 39.001 38.4453 38.6261 38.4453 38.6261Z" fill="#ED4C5C"/>
<path d="M34.7954 37.6509V39.3757C34.7954 39.6757 35.0059 39.9757 35.3567 39.9757H35.9179V38.7758C35.9179 38.0258 34.7954 37.6509 34.7954 37.6509Z" fill="#F2B200"/>
<path d="M36.4074 37.6509V39.3757C36.4074 39.6757 36.1969 39.9757 35.8461 39.9757H35.2849V38.7758C35.3551 38.0258 36.4074 37.6509 36.4074 37.6509Z" fill="#FFCE31"/>
<path d="M35.497 40.0509H35.7776V45.0005H35.497V40.0509Z" fill="#83BF4F"/>
<path d="M32.479 38.5512V40.276C32.479 40.576 32.6895 40.8759 33.0402 40.8759H33.6015V39.751C33.6015 38.8511 32.479 38.5512 32.479 38.5512Z" fill="#C94747"/>
<path d="M34.1639 38.5512V40.276C34.1639 40.576 33.9534 40.8759 33.6026 40.8759H33.0414V39.751C33.0414 38.8511 34.1639 38.5512 34.1639 38.5512Z" fill="#ED4C5C"/>
<path d="M33.1806 40.8758H33.4612V45.0004H33.1806V40.8758Z" fill="#83BF4F"/>
</svg>
