<svg width="61" height="60" viewBox="0 0 61 60" fill="none" xmlns="http://www.w3.org/2000/svg">
<g opacity="0.6">
<path d="M30.5013 42.3C17.3013 42.3 6.30128 38.2 3.80127 32.8C8.40128 46.9 5.60128 60 30.5013 60C55.4014 60 52.6013 46.9 57.2014 32.8C54.7014 38.2 43.7013 42.3 30.5013 42.3Z" fill="#3E4347"/>
<path d="M18.2014 18.5C32.3014 14.6 64.7014 20.5 57.6014 33.9C61.5014 38.3 62.9014 43 44.3014 42.7C15.7014 49.4 -7.89867 35.5 2.50135 25C0.00134522 19.9 5.50135 17.3 18.2014 18.5Z" fill="#6F7980"/>
<path d="M30.5011 41.7C43.0011 41.7 53.4011 37.8 55.8011 32.7C56.0011 32.2 56.1011 31.7 56.3011 31.2C56.3011 30.9 56.4011 30.7 56.4011 30.4C56.4011 24.1999 44.8011 19.1999 30.6011 19.1999C16.401 19.1999 4.80103 24.1999 4.80103 30.4C4.80103 30.7 4.80103 30.9 4.90103 31.2C5.00103 31.7 5.20103 32.2 5.40103 32.7C7.60104 37.8 18.0011 41.7 30.5011 41.7Z" fill="#3E4347"/>
<path d="M30.5011 41.7C43.0011 41.7 53.4011 37.8 55.8011 32.7C55.8011 32.5 55.9012 32.4001 55.9012 32.2001C53.8012 26.9001 43.2012 22.9 30.4012 22.9C17.6011 22.9 7.00113 26.9001 4.90113 32.2001C5.00113 32.4001 5.00113 32.5001 5.00113 32.7001C7.60113 37.8001 18.0011 41.7 30.5011 41.7Z" fill="#FBBF67"/>
<path d="M34.0009 28.3999C29.0009 28.2999 22.9009 32.2999 18.8009 31.9999C12.0009 31.4999 19.0009 34.8 23.8009 34.8C27.0009 34.8 29.2009 31.8999 30.9009 30.6999C33.3009 29.1999 39.2009 28.4999 34.0009 28.3999Z" fill="#D33B23"/>
<path d="M19.2012 25.1C17.9012 21.5 10.4012 27.4 16.8012 28.7C17.8012 28.9 20.3012 28.3 19.2012 25.1ZM33.7013 36.4C32.1012 32 22.8012 39.3 30.8012 40.8C32.0012 41 35.1013 40.3 33.7013 36.4ZM35.4013 23.8C33.9013 20.2 24.6012 26.1 32.5013 27.4C33.6013 27.5 36.7013 26.9 35.4013 23.8ZM50.7013 27.7C50.1013 23.8 38.2013 26 46.4013 30.1C47.6013 30.7 51.2013 31.2 50.7013 27.7Z" fill="#FF8736"/>
<path d="M13.1016 31.2002C12.0016 29.7002 10.4016 27.7002 9.80156 28.7002C8.90156 30.1002 8.60156 32.9002 9.30156 33.0002C14.3016 34.0002 13.9016 32.4002 13.1016 31.2002ZM40.6016 28.4002C38.8016 29.2002 37.7016 28.6002 36.9016 29.8002C35.0016 32.5002 41.5016 33.4002 42.7016 31.8002C43.6016 30.7002 41.8016 27.9002 40.6016 28.4002ZM42.1016 35.1002C40.8016 34.5002 41.1016 36.5002 39.1016 34.9002C37.7016 33.8002 34.7016 36.6002 36.7016 38.5002C38.9016 40.6002 39.5016 38.6002 40.4016 38.8002C42.3016 39.1002 45.6016 36.6002 42.1016 35.1002ZM20.1016 35.7002C18.9016 34.5002 17.0016 37.9002 17.7016 38.8002C19.2016 40.8002 24.6016 40.4002 26.0016 38.9002C27.8016 37.1002 23.0016 38.5002 20.1016 35.7002Z" fill="#89664C"/>
<path d="M15.5011 34.7001C15.5011 34.7001 15.6011 35.9001 15.8011 36.4001C14.5011 35.9001 14.5011 33.6001 14.5011 33.6001C14.5011 33.6001 13.6011 34.1001 13.7011 35.0001C12.3011 33.8001 11.1011 34.4001 11.1011 34.4001C11.1011 34.4001 12.9011 35.4001 13.2011 36.1001C12.2011 36.2001 11.6011 36.5001 11.2011 37.3001C11.2011 37.3001 13.2011 36.3001 14.7011 37.0001C14.1011 37.5001 14.4011 38.7001 14.4011 38.7001C16.8011 36.2001 18.3011 38.4001 19.4011 37.8001C18.5011 36.6001 17.2011 36.4001 17.2011 36.4001C16.7011 35.4001 15.5011 34.7001 15.5011 34.7001ZM26.3011 24.9001C25.1011 24.7001 23.9011 25.3001 23.9011 25.3001C23.9011 25.3001 25.0011 25.8001 25.5011 26.0001C24.4011 26.9001 22.4011 25.7001 22.4011 25.7001C22.4011 25.7001 22.4011 26.7001 23.2011 27.1001C21.5011 27.7001 21.3011 29.1001 21.3011 29.1001C21.3011 29.1001 23.1011 28.1001 23.8011 28.2001C23.3011 29.1001 23.3011 29.8001 23.9011 30.5001C23.9011 30.5001 24.1011 28.3001 25.5011 27.4001C25.6011 28.2001 26.8011 28.5001 26.8011 28.5001C25.9011 25.2001 28.6011 25.0001 28.6011 23.8001C27.2011 23.8001 26.3011 24.9001 26.3011 24.9001ZM49.6011 33.9001C50.1011 33.4001 52.2011 33.1001 52.2011 33.1001C52.2011 33.1001 51.3011 32.1001 49.5011 32.6001C49.9011 31.8001 49.3011 31.0001 49.3011 31.0001C49.3011 31.0001 48.4011 33.1001 47.0011 33.1001C47.4011 32.6001 47.9011 31.6001 47.9011 31.6001C47.9011 31.6001 46.5011 31.9001 45.7011 32.8001C45.7011 32.8001 44.4011 32.4001 43.2011 33.2001C43.9011 34.2001 46.2011 32.7001 47.4011 35.9001C47.4011 35.9001 48.1011 34.9001 47.8011 34.2001C49.4011 34.1001 50.9012 35.8001 50.9012 35.8001C50.9012 34.9001 50.5011 34.4001 49.6011 33.9001Z" fill="#699635"/>
<path d="M31.3015 9.40001C27.6015 5.60001 30.1015 0 30.1015 0C30.1015 0 22.3015 7.40001 27.2015 12.5C32.9015 18.4 30.1015 22 30.1015 22C30.1015 22 37.1015 15.4 31.3015 9.40001ZM20.3015 12.8C17.5015 10.1 19.4015 6.00001 19.4015 6.00001C19.4015 6.00001 13.6015 11.4 17.3015 15.1C21.6015 19.4 19.4015 22 19.4015 22C19.4015 22 24.6015 17.2 20.3015 12.8ZM42.3015 12.8C39.5015 10.1 41.4015 6.00001 41.4015 6.00001C41.4015 6.00001 35.6015 11.4 39.3015 15.1C43.6015 19.4 41.4015 22 41.4015 22C41.4015 22 46.6015 17.2 42.3015 12.8Z" fill="#A6AEB0"/>
</g>
</svg>
