<svg width="88" height="110" viewBox="0 0 88 110" fill="none" xmlns="http://www.w3.org/2000/svg">
<path d="M52.8609 103.762C52.2366 103.763 51.6022 103.702 50.9662 103.578C45.6058 102.53 42.0934 97.2916 43.1357 91.903C43.6411 89.2923 45.1271 87.0349 47.3207 85.5484C49.5135 84.061 52.1517 83.5228 54.7482 84.0301C56.6821 84.4075 58.4404 85.3425 59.8323 86.7328C59.9547 86.855 59.9555 87.0542 59.834 87.1772C59.7124 87.3002 59.5143 87.3003 59.3919 87.1789C58.0882 85.8757 56.4407 85.0002 54.6292 84.6461C49.6084 83.6635 44.7258 86.973 43.7493 92.0226C42.7719 97.0723 46.0636 101.98 51.0861 102.962C56.1094 103.944 60.9886 100.635 61.966 95.585C62.3223 93.7427 62.1242 91.8611 61.3932 90.1427C61.3258 89.9837 61.399 89.7987 61.5572 89.7309C61.7162 89.6623 61.8994 89.7368 61.9676 89.8958C62.7477 91.7305 62.9591 93.7393 62.5787 95.7055C61.6596 100.455 57.5038 103.762 52.8609 103.762Z" fill="black"/>
<path d="M52.8636 109.747C51.8629 109.747 50.8481 109.652 49.83 109.452C41.2478 107.774 35.6242 99.389 37.2934 90.7603C38.1017 86.5803 40.481 82.9669 43.9925 80.5865C47.5048 78.206 51.7281 77.3423 55.8847 78.155C59.4062 78.8438 62.5039 80.6459 64.844 83.367C64.9573 83.4984 64.9431 83.6968 64.8124 83.8106C64.6817 83.9236 64.4844 83.9094 64.372 83.778C62.1243 81.164 59.1481 79.4331 55.7657 78.7719C51.7713 77.9901 47.7146 78.8196 44.3421 81.1071C40.9689 83.3938 38.6828 86.8649 37.9061 90.88C36.3027 99.1689 41.7056 107.223 49.949 108.836C50.9272 109.027 51.902 109.119 52.8627 109.119C60.0047 109.12 66.3958 104.034 67.8086 96.7282C68.4646 93.3408 67.9892 89.93 66.4358 86.8632C66.3575 86.7084 66.4183 86.5192 66.5723 86.4405C66.7255 86.3627 66.9136 86.4238 66.9919 86.5778C68.6094 89.771 69.1039 93.3224 68.4221 96.8479C66.9502 104.452 60.297 109.747 52.8636 109.747Z" fill="black"/>
<path d="M48.772 93.0052C49.2107 90.7361 51.396 89.2546 53.6521 89.6965C55.909 90.1376 57.3825 92.334 56.9429 94.6031C56.5042 96.8714 54.3197 98.3529 52.0628 97.9118C49.8068 97.4698 48.3332 95.2735 48.772 93.0052Z" fill="#F27045"/>
<path d="M49.0783 93.0647C48.6737 95.1597 50.039 97.1962 52.1227 97.603C54.2073 98.0123 56.2311 96.6379 56.6365 94.5429C57.0419 92.4478 55.6766 90.4114 53.5929 90.0046C51.51 89.597 49.4837 90.9697 49.0783 93.0647ZM52.8594 98.3027C52.5764 98.3027 52.2909 98.2759 52.0037 98.2198C49.5819 97.7461 47.9944 95.3799 48.4656 92.945C48.9368 90.5101 51.2911 88.9131 53.712 89.3877C56.1337 89.8615 57.7204 92.2277 57.2492 94.6625C56.8346 96.8086 54.9565 98.3027 52.8594 98.3027Z" fill="black"/>
<path d="M29.7887 20.744L34.1709 24.8419L32.6949 49.3077L24.0578 34.2675L29.7887 20.744Z" fill="#F27045"/>
<path d="M33.8504 24.9708L29.9018 21.278L24.4065 34.2457L32.4459 48.2464L33.8504 24.9708ZM29.7886 20.4301C29.8669 20.4301 29.9435 20.4594 30.0017 20.5138L34.3832 24.6118C34.4514 24.6762 34.4881 24.7674 34.4822 24.8603L33.0062 49.3269C32.9979 49.465 32.9005 49.5814 32.7665 49.6132C32.6333 49.6458 32.4934 49.5847 32.4243 49.465L23.788 34.424C23.7389 34.3386 23.7322 34.2349 23.7705 34.1445L29.5014 20.6209C29.5414 20.5263 29.6246 20.4577 29.7237 20.4368C29.7453 20.4317 29.767 20.4301 29.7886 20.4301Z" fill="black"/>
<path d="M0.312592 37.854L1.65211 43.7181L23.4635 54.6662L14.8264 39.626L0.312592 37.854Z" fill="#F27045"/>
<path d="M14.6339 39.919L0.716156 38.2198L1.92247 43.5039L22.6741 53.9196L14.6339 39.919ZM0.312386 37.5402C0.324873 37.5402 0.337374 37.541 0.349861 37.5427L14.8645 39.3146C14.9619 39.3264 15.0476 39.3833 15.0967 39.4695L23.7339 54.5097C23.803 54.6294 23.7855 54.7809 23.6906 54.8822C23.5965 54.9826 23.4475 55.0094 23.3243 54.9474L1.51202 43.9994C1.42877 43.9575 1.36801 43.8797 1.3472 43.7884L0.00772095 37.9244C-0.0147565 37.8248 0.012684 37.7201 0.0801163 37.644C0.140056 37.5779 0.224141 37.5402 0.312386 37.5402Z" fill="black"/>
<path d="M24.9527 31.3145L41.1456 54.4092C47.7223 63.7887 50.0691 75.0716 47.2478 85.3894L47.1962 85.3735C37.2703 82.449 28.5765 75.2348 23.9387 65.1505L11.8692 38.9095L24.9527 31.3145Z" fill="white"/>
<path d="M47.0299 84.9968C49.6622 74.9837 47.432 63.9201 40.8902 54.59L24.8621 31.7305L12.2723 39.0384L24.222 65.0191C28.6683 74.6849 36.9717 81.9535 47.0299 84.9968ZM24.9529 31.0006C25.0511 31.0006 25.1477 31.0475 25.2076 31.1337L41.4005 54.2276C48.118 63.808 50.359 75.1963 47.5493 85.4723C47.5269 85.5535 47.4728 85.6221 47.3995 85.6631C47.3271 85.7041 47.2405 85.7133 47.1597 85.6907L47.1081 85.6748C36.7627 82.6273 28.2146 75.1938 23.6559 65.2828L11.5863 39.0418C11.5181 38.8936 11.5738 38.7187 11.7137 38.6375L24.7964 31.0433C24.8455 31.0148 24.8996 31.0006 24.9529 31.0006Z" fill="black"/>
<path d="M38.2668 61.533C39.3923 63.4924 38.7246 65.9992 36.7749 67.1309C34.8261 68.2625 32.3327 67.5904 31.2072 65.6309C30.0817 63.6707 30.7502 61.1647 32.699 60.0331C34.6487 58.9014 37.1412 59.5727 38.2668 61.533Z" fill="#F27045"/>
<path d="M37.9962 61.6895C37.4942 60.8148 36.6825 60.1887 35.711 59.9268C34.7411 59.6648 33.7263 59.7995 32.8555 60.3051C31.9847 60.8098 31.362 61.6259 31.1023 62.6027C30.8417 63.5786 30.9749 64.5981 31.4778 65.4736C32.515 67.2807 34.8219 67.9018 36.6192 66.8588C38.4158 65.8159 39.0343 63.4966 37.9962 61.6895ZM34.7303 59.1709C36.2471 59.1709 37.7256 59.9619 38.5373 61.3756C39.7469 63.4824 39.0268 66.1859 36.9314 67.4029C34.836 68.6191 32.1471 67.8942 30.9374 65.7875C30.3514 64.7672 30.1957 63.5786 30.4987 62.4403C30.8017 61.302 31.5285 60.3503 32.5433 59.761C33.2326 59.3609 33.986 59.1709 34.7303 59.1709Z" fill="black"/>
<path d="M21.7667 28.1213L23.9387 31.9037L13.0355 38.2323L10.8643 34.4507L21.7667 28.1213Z" fill="white"/>
<path d="M23.5116 31.789L21.6526 28.5507L11.2905 34.5654L13.1503 37.8038L23.5116 31.789ZM21.7666 27.8074C21.874 27.8074 21.9789 27.8643 22.0372 27.9648L24.2083 31.7464C24.25 31.8184 24.2616 31.9046 24.24 31.9849C24.2184 32.0653 24.1659 32.1339 24.0943 32.1749L13.1919 38.5044C13.0429 38.5906 12.8514 38.5395 12.7657 38.3889L10.5937 34.6073C10.552 34.5353 10.5412 34.4499 10.562 34.3687C10.5837 34.2892 10.6361 34.2206 10.7077 34.1787L21.611 27.8501C21.6601 27.8216 21.7133 27.8074 21.7666 27.8074Z" fill="black"/>
<path d="M47.5732 68.681C47.609 68.681 47.644 68.7003 47.6631 68.7338C47.6922 68.7832 47.6748 68.8476 47.6248 68.8761L32.7897 77.488C32.7398 77.5173 32.6765 77.4997 32.6474 77.4495C32.619 77.3993 32.6357 77.3357 32.6856 77.3064L47.5207 68.6953C47.5374 68.6852 47.5557 68.681 47.5732 68.681Z" fill="black"/>
<path d="M4.64052 10.8572C4.74874 10.8572 4.85364 10.9133 4.91108 11.0137L14.28 27.3295C14.3657 27.4793 14.315 27.671 14.1659 27.758C14.0161 27.8443 13.8255 27.7932 13.7389 27.6434L4.37077 11.3276C4.28419 11.1778 4.33498 10.9861 4.48483 10.899C4.53394 10.8706 4.58724 10.8572 4.64052 10.8572Z" fill="white"/>
<path d="M4.13705 20.646C4.24444 20.646 4.34933 20.7021 4.4076 20.8025L9.68648 29.9954C9.77222 30.146 9.72144 30.3377 9.57242 30.4248C9.42257 30.5118 9.23194 30.4599 9.14536 30.3092L6.50592 25.7128L3.86648 21.1164C3.78073 20.9666 3.83155 20.7749 3.9814 20.6879C4.03052 20.6594 4.08377 20.646 4.13705 20.646Z" fill="white"/>
<path d="M1.68585 16.3781C1.79324 16.3781 1.89813 16.4341 1.95641 16.5346L3.08695 18.5049C3.17353 18.6547 3.12273 18.8464 2.97289 18.9334C2.82387 19.0197 2.63326 18.9686 2.54668 18.8188L1.41528 16.8485C1.32954 16.6986 1.38033 16.5061 1.52935 16.4199C1.5793 16.3915 1.63257 16.3781 1.68585 16.3781Z" fill="white"/>
<path d="M11.4389 12.0298C11.5472 12.0298 11.652 12.0859 11.7095 12.1864L18.8739 24.6628C18.9597 24.8126 18.9089 25.0043 18.7599 25.0913C18.6109 25.1784 18.4194 25.1265 18.3328 24.9767L11.1692 12.5002C11.0826 12.3504 11.1342 12.1579 11.2832 12.0717C11.3324 12.0432 11.3865 12.0298 11.4389 12.0298Z" fill="white"/>
<path d="M74.1477 15.885C76.4238 14.0025 79.2301 13.5472 81.3754 15.628C83.5199 17.7088 83.808 22.1031 81.6627 24.1831C79.3292 26.4463 73.7839 26.4154 70.7536 26.3626C64.9203 26.2614 58.9871 26.5434 53.1538 26.5434C42.2214 26.5434 43.4061 17.102 46.3232 15.0898C47.7392 14.1122 49.6665 14.2695 50.9527 15.4673C50.4065 11.4923 52.8349 7.26964 56.1924 6.3573C59.549 5.44496 63.3244 7.98194 64.3367 11.8297C65.8485 9.99662 68.3544 9.39816 70.3615 10.3909C72.3678 11.3835 73.6582 13.5012 74.1477 15.885Z" fill="white"/>
<path d="M48.3812 14.7692C47.721 14.7692 47.0625 14.9601 46.4998 15.3484C45.1153 16.3035 44.1197 19.1434 44.9047 21.6904C45.4283 23.3854 47.1949 26.2295 53.1539 26.2295C55.6206 26.2295 58.1497 26.1785 60.5948 26.1282C63.9356 26.0604 67.3888 25.991 70.7587 26.0487C73.2662 26.0931 79.1395 26.1944 81.4455 23.9579C82.3204 23.1092 82.8224 21.7499 82.8224 20.229C82.8224 18.5006 82.2006 16.8651 81.1583 15.854C79.291 14.0418 76.7435 14.144 74.3468 16.1268C74.2619 16.1971 74.147 16.2172 74.0438 16.1804C73.9414 16.1436 73.8648 16.0557 73.8423 15.9486C73.3353 13.4827 72.0166 11.5593 70.2234 10.6721C68.3603 9.75051 65.986 10.3222 64.5774 12.0297C64.5025 12.1209 64.3826 12.1611 64.2694 12.136C64.1553 12.1109 64.0646 12.0238 64.0346 11.91C63.5268 9.97735 62.2697 8.30752 60.5873 7.32989C59.1953 6.5205 57.6627 6.28196 56.2733 6.66029C53.0815 7.52827 50.7397 11.6237 51.2625 15.4246C51.2808 15.5552 51.2142 15.6841 51.0976 15.7452C50.9802 15.8063 50.8379 15.7878 50.7413 15.6975C50.082 15.0848 49.2295 14.7692 48.3812 14.7692ZM53.1539 26.8573C46.7945 26.8573 44.8822 23.7369 44.3086 21.8763C43.4295 19.0271 44.5492 15.9326 46.1468 14.8303C47.4679 13.9196 49.2287 13.9255 50.5748 14.7809C50.3667 10.852 52.7809 6.9591 56.1109 6.05429C57.6627 5.63244 59.3627 5.89275 60.9003 6.78667C62.5669 7.75509 63.8481 9.34791 64.4767 11.2111C66.1059 9.58478 68.5076 9.1236 70.499 10.1096C72.3446 11.0219 73.7274 12.9111 74.3418 15.335C76.8651 13.4651 79.6082 13.4777 81.592 15.402C82.7533 16.5286 83.4468 18.3332 83.4468 20.229C83.4468 21.9189 82.8757 23.4431 81.8792 24.409C79.3867 26.8272 73.5526 26.725 70.7479 26.6765C67.3913 26.6187 63.9422 26.6882 60.6081 26.756C58.1589 26.8054 55.6264 26.8573 53.1539 26.8573Z" fill="black"/>
<path d="M59.3127 55.857L63.9739 51.1706L68.635 55.857L63.9739 60.5443L59.3127 55.857Z" fill="#F27045"/>
<path d="M59.7538 55.857L63.9738 60.0998L68.1929 55.857L63.9738 51.6151L59.7538 55.857ZM63.9738 60.8582C63.8939 60.8582 63.8139 60.8272 63.7523 60.7661L59.0912 56.0797C58.9696 55.9567 58.9696 55.7583 59.0912 55.6352L63.7523 50.9488C63.8747 50.8266 64.072 50.8266 64.1944 50.9488L68.8555 55.6352C68.9771 55.7583 68.9771 55.9567 68.8555 56.0797L64.1944 60.7661C64.1328 60.8272 64.0537 60.8582 63.9738 60.8582Z" fill="black"/>
<path d="M78.3127 85.857L82.9739 81.1706L87.635 85.857L82.9739 90.5443L78.3127 85.857Z" fill="#F27045"/>
<path d="M78.7538 85.857L82.9738 90.0998L87.1929 85.857L82.9738 81.6151L78.7538 85.857ZM82.9738 90.8582C82.8939 90.8582 82.8139 90.8272 82.7523 90.7661L78.0912 86.0797C77.9696 85.9567 77.9696 85.7583 78.0912 85.6352L82.7523 80.9488C82.8747 80.8266 83.072 80.8266 83.1944 80.9488L87.8555 85.6352C87.9771 85.7583 87.9771 85.9567 87.8555 86.0797L83.1944 90.7661C83.1328 90.8272 83.0537 90.8582 82.9738 90.8582Z" fill="black"/>
<path d="M3.31271 72.857L7.97388 68.1706L12.635 72.857L7.97388 77.5443L3.31271 72.857Z" fill="#F27045"/>
<path d="M3.75382 72.857L7.97379 77.0998L12.1929 72.857L7.97379 68.6151L3.75382 72.857ZM7.97379 77.8582C7.89387 77.8582 7.81393 77.8272 7.75233 77.7661L3.09116 73.0797C2.96961 72.9567 2.96961 72.7583 3.09116 72.6352L7.75233 67.9488C7.87471 67.8266 8.07201 67.8266 8.19439 67.9488L12.8555 72.6352C12.9771 72.7583 12.9771 72.9567 12.8555 73.0797L8.19439 77.7661C8.13279 77.8272 8.05371 77.8582 7.97379 77.8582Z" fill="black"/>
<path d="M26.942 0.627756C26.0729 0.627756 25.3661 1.33837 25.3661 2.21221C25.3661 3.08521 26.0729 3.795 26.942 3.795C27.8103 3.795 28.5171 3.08521 28.5171 2.21221C28.5171 1.33837 27.8103 0.627756 26.942 0.627756ZM26.942 4.42276C25.729 4.42276 24.7417 3.43089 24.7417 2.21221C24.7417 0.992686 25.729 0 26.942 0C28.1541 0 29.1414 0.992686 29.1414 2.21221C29.1414 3.43089 28.1541 4.42276 26.942 4.42276Z" fill="white"/>
<path d="M61.2003 33.4849C60.3312 33.4849 59.6244 34.1955 59.6244 35.0694C59.6244 35.9424 60.3312 36.6522 61.2003 36.6522C62.0686 36.6522 62.7754 35.9424 62.7754 35.0694C62.7754 34.1955 62.0686 33.4849 61.2003 33.4849ZM61.2003 37.2799C59.9873 37.2799 59 36.2881 59 35.0694C59 33.8499 59.9873 32.8572 61.2003 32.8572C62.4124 32.8572 63.3997 33.8499 63.3997 35.0694C63.3997 36.2881 62.4124 37.2799 61.2003 37.2799Z" fill="white"/>
<path d="M19.2003 89.4849C18.3312 89.4849 17.6244 90.1955 17.6244 91.0694C17.6244 91.9424 18.3312 92.6522 19.2003 92.6522C20.0686 92.6522 20.7754 91.9424 20.7754 91.0694C20.7754 90.1955 20.0686 89.4849 19.2003 89.4849ZM19.2003 93.2799C17.9873 93.2799 17 92.2881 17 91.0694C17 89.8499 17.9873 88.8572 19.2003 88.8572C20.4124 88.8572 21.3997 89.8499 21.3997 91.0694C21.3997 92.2881 20.4124 93.2799 19.2003 93.2799Z" fill="white"/>
</svg>
