<svg width="56" height="60" viewBox="0 0 56 60" fill="none" xmlns="http://www.w3.org/2000/svg">
<path d="M55.7962 56.1981C55.7962 58.2905 54.1024 59.8846 51.9104 59.8846H6.77522C4.68286 59.8846 2.8894 58.1908 2.8894 56.1981V12.0593C2.8894 9.9669 4.58322 8.27309 6.77522 8.27309H52.01C54.1024 8.27309 55.8959 9.9669 55.8959 12.0593V56.1981H55.7962Z" fill="#93A2AA"/>
<path d="M52.9068 56.1981C52.9068 58.2905 51.213 59.8846 49.021 59.8846H3.88581C1.69382 59.9843 0 58.2905 0 56.1981V12.0593C0 9.9669 1.69382 8.27309 3.88581 8.27309H49.1206C51.213 8.27309 53.0065 9.9669 53.0065 12.0593V56.1981H52.9068Z" fill="#F0F4F5"/>
<path d="M48.1243 54.4047C41.7476 60.5821 30.1898 59.9843 30.1898 59.9843C30.1898 59.9843 38.6589 57.4934 46.4305 48.3268C52.3091 41.4519 52.9069 33.0825 52.9069 33.0825C52.9069 33.0825 56.3941 46.3341 48.1243 54.4047Z" fill="#93A2AA"/>
<path d="M9.06694 17.9377C10.6627 17.9377 11.9564 16.6887 11.9564 15.1479C11.9564 13.6071 10.6627 12.3581 9.06694 12.3581C7.47114 12.3581 6.17749 13.6071 6.17749 15.1479C6.17749 16.6887 7.47114 17.9377 9.06694 17.9377Z" fill="#3E4347"/>
<path d="M20.724 17.9377C22.3198 17.9377 23.6135 16.6887 23.6135 15.1479C23.6135 13.6071 22.3198 12.3581 20.724 12.3581C19.1282 12.3581 17.8346 13.6071 17.8346 15.1479C17.8346 16.6887 19.1282 17.9377 20.724 17.9377Z" fill="#3E4347"/>
<path d="M32.1822 17.9377C33.778 17.9377 35.0716 16.6887 35.0716 15.1479C35.0716 13.6071 33.778 12.3581 32.1822 12.3581C30.5864 12.3581 29.2927 13.6071 29.2927 15.1479C29.2927 16.6887 30.5864 17.9377 32.1822 17.9377Z" fill="#3E4347"/>
<path d="M43.7404 17.9377C45.3362 17.9377 46.6299 16.6887 46.6299 15.1479C46.6299 13.6071 45.3362 12.3581 43.7404 12.3581C42.1446 12.3581 40.851 13.6071 40.851 15.1479C40.851 16.6887 42.1446 17.9377 43.7404 17.9377Z" fill="#3E4347"/>
<path d="M36.4669 2.79296C35.7694 1.59733 34.7731 0.302059 32.88 0.202423C31.0865 0.102787 30.9869 2.29478 32.7804 2.39442C32.6807 2.39442 33.1789 2.69333 33.0793 2.59369C33.4778 2.99224 33.6771 3.49042 33.976 3.9886C34.5738 5.38351 34.7731 6.87805 34.7731 8.37259H37.6625C37.5629 6.4795 37.264 4.48678 36.4669 2.79296ZM32.7804 2.39442C32.88 2.39442 32.88 2.39442 32.7804 2.39442ZM24.9091 2.79296C24.3113 1.59733 23.2153 0.302059 21.3222 0.202423C19.5287 0.102787 19.4291 2.29478 21.2226 2.39442C21.1229 2.39442 21.6211 2.69333 21.5215 2.59369C21.92 2.99224 22.1193 3.49042 22.4182 3.9886C23.016 5.38351 23.2153 6.87805 23.2153 8.37259H26.1047C26.0051 6.4795 25.8058 4.48678 24.9091 2.79296ZM13.3513 2.79296C12.7535 1.59733 11.6575 0.302059 9.7644 0.202423C7.97095 0.102787 7.97095 2.29478 9.7644 2.39442C9.66476 2.39442 10.1629 2.69333 10.0633 2.59369C10.4619 2.99224 10.6611 3.49042 10.96 3.9886C11.5579 5.38351 11.7571 6.87805 11.7571 8.37259H14.6466C14.5469 6.4795 14.248 4.48678 13.3513 2.79296ZM47.9251 2.79296C47.3272 1.59733 46.2313 0.302059 44.3382 0.202423C42.5447 0.102787 42.4451 2.29478 44.2385 2.39442C44.2385 2.39442 44.6371 2.69333 44.5374 2.59369C44.936 2.99224 45.1353 3.49042 45.4342 3.9886C46.032 5.38351 46.2313 6.87805 46.2313 8.37259H49.1207C49.1207 6.4795 48.8218 4.48678 47.9251 2.79296Z" fill="#3E4347"/>
<path d="M32.1825 14.1516C32.5811 14.2513 31.8836 14.1516 32.1825 14.1516C32.4814 14.2513 31.784 13.8527 31.9832 13.9524C31.5847 13.5538 31.3854 13.0556 31.0865 12.5575C30.4887 11.1625 30.2894 9.66801 30.2894 8.17346C30.2894 6.67892 30.4887 5.18438 31.0865 3.78947C31.2858 3.29129 31.4851 2.99238 31.8836 2.4942C31.8836 2.39456 31.9832 2.39456 32.2821 2.19529C31.9832 2.39456 32.2821 2.19529 32.3818 2.19529C32.1825 2.29493 32.1825 2.29493 32.2821 2.19529H32.1825C34.0756 2.09566 34.0756 -0.0963407 32.1825 0.00329551C30.2894 0.102932 29.2931 1.3982 28.5956 2.59384C27.6989 4.28765 27.4996 6.28038 27.4996 8.07383C27.4996 9.86728 27.7985 11.86 28.5956 13.5538C29.1934 14.7495 30.2894 16.0447 32.1825 16.1444C34.0756 16.4433 34.0756 14.2513 32.1825 14.1516ZM20.7243 14.1516C21.0233 14.2513 20.3258 14.1516 20.7243 14.1516C21.0233 14.2513 20.3258 13.8527 20.5251 13.9524C20.1265 13.5538 19.9273 13.0556 19.6283 12.5575C19.0305 11.1625 18.8313 9.66801 18.8313 8.17346C18.8313 6.67892 19.0305 5.18438 19.6283 3.78947C19.8276 3.29129 20.0269 2.99238 20.4254 2.4942C20.4254 2.39456 20.5251 2.39456 20.824 2.19529C20.5251 2.39456 20.824 2.19529 20.9236 2.19529C20.7243 2.29493 20.7243 2.29493 20.824 2.19529H20.7243C22.6174 2.09566 22.6174 -0.0963407 20.7243 0.00329551C18.8313 0.102932 17.8349 1.3982 17.1374 2.59384C16.2407 4.28765 16.0414 6.28038 16.0414 8.07383C16.0414 9.86728 16.3404 11.86 17.1374 13.5538C17.7353 14.7495 18.8313 16.0447 20.7243 16.1444C22.5178 16.4433 22.5178 14.2513 20.7243 14.1516ZM9.16654 14.1516C9.46545 14.2513 8.86764 14.1516 9.16654 14.1516C9.46545 14.2513 8.768 13.8527 8.96727 13.9524C8.56873 13.5538 8.36946 13.0556 8.07055 12.5575C7.47273 11.1625 7.27346 9.66801 7.27346 8.17346C7.27346 6.67892 7.47273 5.18438 8.07055 3.78947C8.26982 3.29129 8.46909 2.99238 8.86763 2.4942C8.86763 2.39456 8.96727 2.39456 9.26618 2.19529C8.96727 2.39456 9.26618 2.19529 9.36582 2.19529C9.16654 2.29493 9.16654 2.29493 9.26618 2.19529H9.16654C11.0596 2.09566 11.0596 -0.0963407 9.16654 0.00329551C7.27346 0.102932 6.27709 1.3982 5.57964 2.59384C4.68292 4.28765 4.48364 6.28038 4.48364 8.07383C4.48364 9.86728 4.78255 11.86 5.57964 13.5538C6.17746 14.7495 7.27346 16.0447 9.16654 16.1444C11.0596 16.4433 11.0596 14.2513 9.16654 14.1516ZM43.7403 14.1516C44.0392 14.2513 43.4414 14.1516 43.7403 14.1516C44.0392 14.2513 43.3418 13.8527 43.541 13.9524C43.1425 13.5538 42.9432 13.0556 42.6443 12.5575C42.0465 11.1625 41.8472 9.66801 41.8472 8.17346C41.8472 6.67892 42.0465 5.18438 42.6443 3.78947C42.8436 3.29129 43.0428 2.99238 43.4414 2.4942C43.4414 2.39456 43.541 2.39456 43.8399 2.19529C43.541 2.39456 43.8399 2.19529 43.9396 2.19529C43.7403 2.29493 43.7403 2.29493 43.8399 2.19529H43.7403C45.6334 2.09566 45.6334 -0.0963407 43.7403 0.00329551C41.8472 0.302204 40.8509 1.59747 40.1534 2.79311C39.2567 4.48692 39.0574 6.47965 39.0574 8.2731C39.0574 10.0666 39.3563 12.0593 40.1534 13.7531C40.7512 14.9487 41.8472 16.244 43.7403 16.3436C45.6334 16.4433 45.6334 14.2513 43.7403 14.1516Z" fill="#94989B"/>
<path d="M4.68262 23.3182H47.4265V26.108H4.68262V23.3182ZM4.68262 31.6876H47.4265V34.4774H4.68262V31.6876ZM4.68262 39.9574H47.4265V42.7472H4.68262V39.9574ZM26.0048 48.3269H42.5444V51.1167H26.0048V48.3269Z" fill="#7D8B91"/>
<path d="M52.9069 33.0825C52.9069 45.9356 43.3418 59.9843 30.1898 59.9843C30.1898 59.9843 35.5702 56.9952 35.5702 46.1348C50.6152 46.1348 52.9069 33.0825 52.9069 33.0825Z" fill="#D7DADB"/>
</svg>
