<svg width="232" height="312" viewBox="0 0 232 312" fill="none" xmlns="http://www.w3.org/2000/svg">
<path d="M220.678 311.147L25.8361 311.045C19.8106 311.041 14.93 306.155 14.9328 300.13L15.0858 11.0212C15.0886 4.99664 19.975 0.115026 25.9995 0.11786L220.842 0.221772C226.868 0.223662 231.749 5.11093 231.746 11.1364L231.593 300.244C231.59 306.268 226.702 311.151 220.678 311.147Z" fill="#17282F"/>
<path d="M224.364 281.372L21.3679 281.266L21.5058 21.6049L224.501 21.7117L224.364 281.372Z" fill="white"/>
<path d="M131.578 295.475C131.576 300.067 127.852 303.786 123.261 303.784C118.669 303.781 114.949 300.058 114.951 295.465C114.954 290.875 118.678 287.156 123.269 287.157C127.86 287.16 131.581 290.884 131.578 295.475Z" fill="#33535F"/>
<path d="M154.891 12.5744L91.9324 12.5423C91.2976 12.5413 90.7838 12.0265 90.7847 11.3927V10.2545C90.7857 9.62069 91.2995 9.10684 91.9343 9.10684L154.893 9.13989C155.526 9.14083 156.04 9.6547 156.04 10.2885L156.039 11.4277C156.039 12.0615 155.524 12.5753 154.891 12.5744Z" fill="#33535F"/>
<path d="M215.794 245.394C214.446 245.393 213.355 244.3 213.356 242.953L213.454 58.6061C213.455 57.2591 214.547 56.1672 215.894 56.1691C217.241 56.1691 218.333 57.2619 218.333 58.6099L218.235 242.956C218.234 244.303 217.142 245.395 215.794 245.394Z" fill="#DADBD8"/>
<path d="M165.46 42.9028C165.46 43.0388 146.627 43.139 123.401 43.1276C100.166 43.1144 81.337 42.9944 81.338 42.8584C81.338 42.7224 100.167 42.6232 123.401 42.6346C146.627 42.6478 165.46 42.7668 165.46 42.9028Z" fill="#17282F"/>
<path d="M41.1609 47.5808C41.1666 47.5742 41.2601 47.5676 41.433 47.5609C41.6521 47.5524 41.8996 47.5439 42.1868 47.5335C42.9103 47.5147 43.8351 47.491 44.9619 47.4627L44.8741 47.5515C44.8637 46.9337 44.8524 46.2612 44.841 45.5377C44.8448 45.1617 44.808 44.8122 44.8448 44.3749C44.9204 43.9385 45.3105 43.5521 45.7894 43.5077C46.2409 43.4983 46.6291 43.4775 47.1203 43.5002C47.6275 43.5625 48.0592 44.0509 48.0441 44.5893C48.0545 45.5291 48.0658 46.5096 48.0772 47.5269L47.9317 47.3824C49.0567 47.372 50.228 47.3597 51.4352 47.3484L51.284 47.5024C51.2718 46.0902 51.2595 44.6309 51.2472 43.1356C51.2443 42.7625 51.2415 42.3922 51.2387 42.0248C51.2359 41.6875 51.0365 41.4674 50.7513 41.2086C50.2336 40.6976 49.7226 40.1932 49.2201 39.6973C48.7195 39.2023 48.2264 38.7149 47.7437 38.2379C47.5029 37.9999 47.2639 37.7637 47.0287 37.5304C46.7803 37.2915 46.5913 37.0496 46.3117 36.993C46.0406 36.9193 45.7403 36.9769 45.5221 37.1431C45.3133 37.3188 45.0838 37.5748 44.8712 37.7817C44.4396 38.2162 44.0193 38.6394 43.6121 39.0493C42.8215 39.8683 41.9931 40.6211 41.398 41.3248C41.1468 41.7111 41.2403 42.1882 41.2214 42.6255C41.2195 43.0581 41.2176 43.469 41.2167 43.8582C41.2091 44.6101 41.2044 45.2722 41.1987 45.8456C41.1921 46.3472 41.1855 46.7666 41.1808 47.1189C41.1742 47.4136 41.1685 47.5723 41.1609 47.5808C41.1534 47.5874 41.1449 47.4438 41.1345 47.1614C41.1241 46.8147 41.1109 46.4029 41.0967 45.9108C41.0825 45.3327 41.0665 44.6639 41.0476 43.9045C41.041 43.5068 41.0325 43.0865 41.024 42.6434C41.0202 42.4196 41.0164 42.1891 41.0126 41.9539C41.0108 41.7027 41.075 41.4438 41.2072 41.2134C41.8599 40.4142 42.6307 39.7143 43.4289 38.868C43.8313 38.4542 44.2478 38.0282 44.6757 37.5899C44.9015 37.368 45.0819 37.1517 45.3539 36.9174C45.6383 36.6992 46.0284 36.6208 46.3845 36.7152C46.7633 36.7993 47.0098 37.1092 47.2336 37.3217C47.4707 37.554 47.7107 37.7892 47.9525 38.0254C48.4371 38.5015 48.932 38.987 49.4345 39.48C49.938 39.975 50.4499 40.4775 50.9685 40.9876C51.2188 41.203 51.5646 41.5761 51.5495 42.0153C51.5523 42.3856 51.5561 42.7587 51.5589 43.1337C51.5693 44.629 51.5797 46.0883 51.5891 47.4995L51.5901 47.6535H51.438C50.2308 47.6601 49.0586 47.6667 47.9336 47.6733L47.7872 47.6743V47.5288C47.7825 46.5125 47.7777 45.531 47.7749 44.5912C47.7891 44.1746 47.467 43.8091 47.0806 43.7552C46.683 43.7335 46.2022 43.7467 45.813 43.7505C45.4427 43.7798 45.1339 44.0764 45.0696 44.4193C45.0356 44.765 45.0611 45.1806 45.0526 45.5358C45.0517 46.2603 45.0507 46.9328 45.0507 47.5506V47.6403L44.9629 47.6394C43.8152 47.628 42.8725 47.6195 42.1357 47.612C41.8552 47.6063 41.6143 47.6006 41.4018 47.5968C41.2374 47.5912 41.1553 47.5864 41.1609 47.5808Z" fill="#17282F"/>
<path d="M190.353 38.4051L201.39 38.5487L200.413 43.8431L193.637 43.8119L191.623 43.8138L191.081 43.8214L190.353 38.4051ZM201.813 38.1983L201.707 38.1482L193.45 38.1038H191.027L190.314 38.1123L190.126 36.7106L189.988 36.5906H189.953L187.694 36.6019C187.515 36.6057 187.396 36.6095 187.396 36.7512C187.396 36.891 187.514 36.8957 187.693 36.9023L189.795 36.9467L190.963 45.9977L191.101 46.1195L197.846 46.1526L200.38 46.1412C200.593 46.1365 200.703 46.1346 200.703 45.993C200.703 45.8513 200.595 45.8475 200.38 45.8399L191.336 45.7181L191.119 44.1142L200.626 44.2436H200.628L200.766 44.1302L201.844 38.3116L201.813 38.1983Z" fill="#17282F"/>
<path d="M192.287 49.1777C192.044 49.0908 191.803 48.8226 191.808 48.4759C191.807 48.1302 192.055 47.8657 192.301 47.7817C192.389 47.7495 192.476 47.7363 192.557 47.7363C192.744 47.7363 192.908 47.8062 193.011 47.8865C193.199 48.0263 193.274 48.2077 193.302 48.304L193.337 48.4636L193.342 48.4892L193.337 48.5137L193.3 48.6724C193.27 48.7678 193.192 48.9482 193 49.0871C192.851 49.1985 192.574 49.2892 192.287 49.1777ZM193.621 48.2294C193.6 48.1151 193.521 47.827 193.239 47.5975C193.021 47.4142 192.612 47.2546 192.172 47.4095C191.726 47.5502 191.403 47.9999 191.404 48.4731C191.394 49.0106 191.774 49.4214 192.152 49.548C192.282 49.5962 192.411 49.617 192.533 49.617C192.821 49.617 193.069 49.5046 193.223 49.3799C193.511 49.1532 193.594 48.866 193.617 48.7527L193.631 48.491L193.621 48.2294Z" fill="#17282F"/>
<path d="M198.342 49.2254C198.106 49.1404 197.857 48.8674 197.863 48.5236C197.863 48.1816 198.114 47.9115 198.356 47.8293C198.444 47.7972 198.53 47.784 198.613 47.784C198.799 47.784 198.964 47.8548 199.066 47.9342C199.254 48.074 199.329 48.2563 199.357 48.3526L199.391 48.5113L199.397 48.5368L199.391 48.5604L199.354 48.7201C199.325 48.8155 199.247 48.9968 199.054 49.1347C198.905 49.2462 198.63 49.3369 198.342 49.2254ZM199.676 48.2771C199.655 48.1637 199.576 47.8747 199.293 47.6451C199.076 47.4628 198.665 47.3041 198.226 47.4572C197.781 47.5989 197.458 48.0475 197.459 48.5198C197.448 49.0573 197.83 49.4691 198.206 49.5966C198.337 49.6439 198.465 49.6646 198.587 49.6646C198.875 49.6646 199.125 49.5522 199.277 49.4266C199.564 49.2009 199.648 48.9137 199.672 48.7994L199.685 48.5368C199.701 48.448 199.685 48.3337 199.676 48.2771Z" fill="#17282F"/>
<path d="M146.786 81.1545L144.028 120.224C143.578 126.604 138.271 131.549 131.877 131.549C124.836 131.549 119.259 125.595 119.722 118.57C119.966 114.851 120.186 111.805 120.186 111.805C120.186 111.805 110.728 110.335 110.612 100.878C110.544 95.4158 111.486 83.021 112.294 73.5251C112.839 67.1048 118.213 62.1778 124.656 62.1778H130.37C140.209 62.7531 147.633 71.3346 146.786 81.1545Z" fill="#F8A58D"/>
<path d="M120.185 111.806C120.185 111.806 126.146 112.157 132.499 108.167C132.499 108.167 129.453 115.046 120.017 114.195L120.185 111.806Z" fill="#F68260"/>
<path d="M114.068 82.5571C114.234 82.7328 115.257 81.9762 116.712 81.98C118.163 81.963 119.23 82.7101 119.388 82.5325C119.465 82.4541 119.294 82.1358 118.83 81.7976C118.372 81.4604 117.593 81.1336 116.687 81.1374C115.782 81.1421 115.02 81.4756 114.583 81.8166C114.136 82.1594 113.985 82.4787 114.068 82.5571Z" fill="#17282F"/>
<path d="M127.022 86.59C126.997 87.3032 127.58 87.9125 128.325 87.9521C129.067 87.9928 129.692 87.4487 129.716 86.7346C129.742 86.0214 129.159 85.4112 128.416 85.3715C127.671 85.3319 127.048 85.8769 127.022 86.59Z" fill="#17282F"/>
<path d="M114.047 86.59C114.022 87.3032 114.605 87.9125 115.349 87.9521C116.092 87.9928 116.716 87.4487 116.741 86.7346C116.767 86.0214 116.183 85.4112 115.441 85.3715C114.696 85.3319 114.073 85.8769 114.047 86.59Z" fill="#17282F"/>
<path d="M128.101 82.7534C128.269 82.9291 129.294 82.1715 130.746 82.1763C132.198 82.1593 133.264 82.9064 133.422 82.7288C133.5 82.6495 133.33 82.3321 132.865 81.994C132.408 81.6567 131.628 81.3299 130.723 81.3337C129.818 81.3384 129.056 81.6719 128.618 82.0128C128.172 82.3557 128.02 82.6741 128.101 82.7534Z" fill="#17282F"/>
<path d="M122.934 94.0587C122.94 93.9765 122.037 93.8206 120.573 93.6336C120.203 93.5949 119.851 93.5212 119.788 93.2681C119.701 92.9998 119.857 92.6002 120.037 92.1676C120.385 91.2703 120.751 90.3285 121.134 89.3424C122.658 85.3185 123.761 82.0105 123.6 81.9501C123.436 81.8906 122.068 85.1031 120.545 89.1261C120.177 90.1188 119.827 91.0644 119.493 91.9693C119.353 92.3905 119.112 92.8694 119.302 93.4258C119.401 93.7026 119.673 93.9047 119.911 93.9689C120.149 94.0407 120.358 94.0454 120.541 94.0558C122.015 94.1352 122.929 94.1418 122.934 94.0587Z" fill="#17282F"/>
<path d="M127.212 95.0651C126.975 95.0509 126.972 96.6293 125.622 97.7486C124.274 98.8717 122.592 98.6951 122.58 98.9152C122.558 99.0134 122.955 99.2212 123.664 99.2411C124.361 99.2647 125.377 99.0408 126.203 98.356C127.027 97.6693 127.381 96.753 127.435 96.106C127.496 95.4467 127.32 95.0556 127.212 95.0651Z" fill="#17282F"/>
<path d="M128.195 77.4851C128.338 77.8799 129.788 77.6929 131.494 77.8988C133.204 78.0698 134.578 78.5685 134.805 78.2143C134.905 78.0452 134.665 77.673 134.11 77.2905C133.558 76.9089 132.68 76.5462 131.656 76.4319C130.633 76.3204 129.696 76.4819 129.073 76.7351C128.448 76.9873 128.132 77.298 128.195 77.4851Z" fill="#17282F"/>
<path d="M113.842 78.1702C114.098 78.5008 115.1 78.1579 116.304 78.1419C117.507 78.0843 118.527 78.3639 118.761 78.0182C118.865 77.851 118.704 77.5204 118.258 77.2077C117.819 76.896 117.085 76.6419 116.258 76.6674C115.431 76.6939 114.713 76.9924 114.295 77.3305C113.87 77.6696 113.73 78.0097 113.842 78.1702Z" fill="#17282F"/>
<path d="M143.596 88.2545C143.758 88.1846 150.094 86.3333 149.889 92.798C149.682 99.2636 143.234 97.723 143.228 97.5369C143.223 97.3509 143.596 88.2545 143.596 88.2545Z" fill="#F8A58D"/>
<path d="M145.281 95.1496C145.31 95.1298 145.391 95.2318 145.578 95.3253C145.76 95.416 146.078 95.485 146.42 95.3697C147.11 95.1402 147.72 94.0738 147.789 92.91C147.824 92.3216 147.719 91.7577 147.526 91.2873C147.343 90.8074 147.048 90.4683 146.705 90.3956C146.366 90.3058 146.116 90.5042 146.031 90.6837C145.939 90.8612 145.976 90.9916 145.941 91.001C145.922 91.0171 145.806 90.8886 145.866 90.6232C145.897 90.4957 145.978 90.3455 146.133 90.2265C146.293 90.1056 146.523 90.048 146.762 90.082C147.258 90.132 147.693 90.6053 147.906 91.122C148.146 91.6415 148.278 92.2762 148.239 92.9365C148.157 94.2372 147.45 95.4359 146.507 95.6758C146.048 95.7797 145.673 95.6304 145.483 95.4717C145.287 95.3064 145.258 95.16 145.281 95.1496Z" fill="#F68260"/>
<path d="M147.193 88.0338C146.207 87.7948 144.501 88.7054 144.081 89.6283C143.661 90.5521 143.568 91.5977 143.149 92.5225C142.729 93.4463 141.783 94.2813 140.795 94.048C140.114 93.8865 139.626 93.2489 139.448 92.5725C139.267 91.8962 139.341 91.1812 139.428 90.4878C139.809 87.468 140.444 84.4737 140.565 81.4331C140.686 78.3915 140.253 75.2329 138.657 72.6409C137.061 70.0509 134.127 68.1457 131.094 68.3903C129.084 68.5518 127.241 69.5994 125.245 69.8799C122.878 70.2105 120.376 69.3755 118.682 67.6885C118.466 67.4722 117.457 66.8072 117.457 66.8072C117.457 66.6504 117.604 65.2996 118.136 64.8085C122.098 61.1454 129.233 60.1233 134.464 61.4401C139.696 62.7559 144.599 66.4492 146.85 71.3516C149.101 76.2549 148.433 83.0729 147.193 88.0338Z" fill="#17282F"/>
<path d="M111.257 71.8177C112.105 73.7824 114.267 74.9253 116.395 75.1416C118.522 75.3579 120.647 74.8054 122.705 74.2226C124.764 73.6388 130.284 72.7226 132.421 72.7887C132.742 72.7981 133.126 72.7925 133.296 72.5204C133.521 72.1624 133.162 71.7279 132.828 71.4663C130.01 69.2588 123.196 67.9043 119.619 67.7541C116.041 67.6029 112.284 69.1407 110.347 72.152L111.257 71.8177Z" fill="#17282F"/>
<path d="M112.188 72.0661C112.188 72.0661 114.946 69.2503 119.232 68.8838C127.41 68.1858 140.821 70.7003 147.864 84.7849C147.864 84.7849 149.336 80.1773 149.336 77.2982C149.336 75.375 148.184 63.921 136.4 60.3184C136.4 60.3184 118.644 53.5429 112.188 72.0661Z" fill="#F2575D"/>
<path d="M139.717 74.8752C136.553 72.4458 133.1 70.8353 129.812 69.8359C133.108 70.7182 136.5 72.2257 139.622 74.6183C139.655 74.7033 139.687 74.7893 139.717 74.8752Z" fill="#996152"/>
<path d="M147.864 84.7849C145.737 80.5315 142.87 77.2962 139.717 74.8752C139.687 74.7893 139.655 74.7033 139.622 74.6183C142.763 77.0232 145.633 80.3237 147.864 84.7849Z" fill="#0C1418"/>
<path d="M147.864 84.7849C145.633 80.3237 142.764 77.0233 139.624 74.6184C136.501 72.2258 133.109 70.7182 129.813 69.836C126.587 68.8555 123.52 68.4635 121.044 68.4635C120.711 68.4635 120.388 68.4701 120.077 68.4833C115.012 68.7082 112.188 72.0661 112.188 72.0661C115.917 61.3687 123.414 59.1093 129.083 59.1093C133.23 59.1093 136.4 60.3184 136.4 60.3184C148.184 63.921 149.336 75.375 149.336 77.2982C149.336 80.1773 147.864 84.7849 147.864 84.7849Z" fill="#AB3837"/>
<path d="M146.76 82.7766C143.227 76.8371 137.942 72.7537 132.24 69.1917C126.537 65.6287 117.107 62.1045 110.607 60.3797C108.656 59.862 106.622 59.4086 104.632 59.7534C102.642 60.0963 100.696 61.4215 100.202 63.3787C99.5847 65.829 103.933 69.6101 105.976 71.096C108.019 72.5827 112.187 74.7638 112.187 74.7638C112.187 74.7638 112.13 70.2014 119.405 69.2823C129.325 68.0298 147.061 83.0307 146.76 82.7766Z" fill="#F2575D"/>
<path d="M133.553 65.0303C133.476 65.173 130.775 63.331 126.933 62.4195C123.098 61.4664 119.856 61.865 119.851 61.7026C119.844 61.6459 120.639 61.4702 121.952 61.4154C123.262 61.3597 125.093 61.4692 127.049 61.9415C129.002 62.4195 130.68 63.1601 131.818 63.8118C132.96 64.4626 133.586 64.9831 133.553 65.0303Z" fill="white"/>
<path d="M182.376 219.138C182.376 219.273 158.193 219.384 128.368 219.384C98.5336 219.384 74.357 219.273 74.357 219.138C74.357 219.002 98.5336 218.892 128.368 218.892C158.193 218.892 182.376 219.002 182.376 219.138Z" fill="#17282F"/>
<path d="M82.158 141.85L68.2547 148.139L46.6757 130.55L40.1014 140.961C40.1014 140.961 52.3876 155.176 56.9405 160.004C61.4933 164.834 64.5283 167.412 68.1158 166.95C71.7033 166.489 92.1951 156.831 92.1951 156.831C92.1951 156.831 87.3702 142.459 82.158 141.85Z" fill="#F8A58D"/>
<path d="M23.0448 121.679C23.0448 121.679 25.7567 123.714 27.5278 123.586C29.2989 123.458 36.0148 123.423 36.5164 123.458C37.017 123.493 43.5658 127.056 43.5658 127.056L48.3624 131.672L40.8341 142.139C40.8341 142.139 39.5911 140.709 38.7447 140.818C37.8974 140.927 27.5533 140.037 25.9957 139.508C24.4381 138.98 22.4459 138.673 21.9245 137.713C21.405 136.753 21.2841 136.073 22.7142 134.831C22.7142 134.831 20.8024 133.355 22.19 131.521C22.19 131.521 20.0344 129.944 20.8071 128.487C20.8071 128.487 19.5838 127.982 19.3855 127.213C19.1871 126.444 19.4715 124.786 19.4715 124.786L22.5593 123.826C22.5593 123.826 21.627 122.755 23.0448 121.679Z" fill="#F8A58D"/>
<path d="M21.8326 124.05C21.8316 124.015 21.978 123.986 22.234 123.914C22.4909 123.855 22.8508 123.693 23.3845 123.678C23.9267 123.699 24.5095 123.889 25.0621 124.333C25.609 124.759 25.9972 125.629 25.7035 126.454C25.5741 126.867 25.2246 127.208 24.8647 127.357C24.5057 127.518 24.1647 127.572 23.8577 127.644C23.2919 127.762 22.7403 127.876 22.1972 127.988C21.2498 128.171 20.6547 128.25 20.6386 128.184C20.6226 128.118 21.1893 127.919 22.1169 127.65C22.6515 127.504 23.1946 127.356 23.7519 127.204C24.3725 127.048 25.0555 126.904 25.2397 126.292C25.4475 125.691 25.1972 125.044 24.7626 124.673C24.3404 124.293 23.785 124.074 23.3713 124.026C22.9349 123.994 22.5401 124.098 22.2642 124.102C21.9865 124.118 21.8316 124.082 21.8326 124.05Z" fill="#F68260"/>
<path d="M25.704 126.763C25.6993 126.73 25.9553 126.656 26.4276 126.56C26.8989 126.47 27.5884 126.344 28.4631 126.331C29.3265 126.326 30.4279 126.439 31.449 127.103C31.9439 127.434 32.4238 127.945 32.5749 128.643C32.726 129.303 32.5022 130.168 31.8032 130.561C31.1278 130.931 30.443 130.893 29.845 130.961C29.2348 131.009 28.6445 131.056 28.074 131.101C26.9849 131.176 25.9779 131.246 25.0721 131.308C23.3614 131.412 22.3016 131.442 22.295 131.374C22.2903 131.307 23.3397 131.154 25.0419 130.961C25.9458 130.868 26.949 130.763 28.0343 130.65C28.6039 130.595 29.1942 130.539 29.8035 130.481C30.4156 130.415 31.0692 130.415 31.5538 130.137C32.0355 129.871 32.2093 129.264 32.1026 128.74C31.9978 128.215 31.6209 127.774 31.192 127.476C30.3079 126.871 29.2859 126.714 28.4575 126.679C26.7752 126.65 25.7125 126.858 25.704 126.763Z" fill="#F68260"/>
<path d="M32.0893 130.548C32.1007 130.525 32.2858 130.575 32.4851 130.839C32.675 131.097 32.8412 131.595 32.6627 132.176C32.4823 132.758 31.9184 133.282 31.2043 133.538C30.4835 133.808 29.6608 133.809 28.8579 133.849C25.6076 134.001 23.0261 134.639 22.9911 134.497C22.9486 134.379 25.5179 133.514 28.8334 133.358C29.6599 133.319 30.4259 133.324 31.0531 133.11C31.6813 132.909 32.1573 132.5 32.3349 132.058C32.5153 131.612 32.436 131.183 32.3198 130.938C32.2008 130.685 32.0648 130.58 32.0893 130.548Z" fill="#F68260"/>
<path d="M42.806 132.368C42.8267 132.423 42.3252 132.682 41.4429 132.896C40.5635 133.111 39.294 133.238 37.914 133.056C36.5339 132.869 35.3419 132.411 34.5513 131.973C33.755 131.535 33.3403 131.153 33.3743 131.105C33.4489 130.969 35.3126 132.231 37.9791 132.567C40.6391 132.945 42.7701 132.217 42.806 132.368Z" fill="#F68260"/>
<path d="M32.0396 127.543C32.1029 127.416 32.7736 127.654 33.602 127.552C34.4332 127.47 35.0349 127.091 35.1246 127.202C35.2257 127.287 34.6533 127.935 33.6558 128.04C32.6602 128.156 31.9593 127.648 32.0396 127.543Z" fill="#F68260"/>
<path d="M31.2976 137.862C31.171 137.849 31.4677 136.427 32.7296 135.263C33.9793 134.084 35.4179 133.886 35.4217 134.014C35.4651 134.155 34.2032 134.542 33.0649 135.623C31.9088 136.682 31.4355 137.914 31.2976 137.862Z" fill="#F68260"/>
<path d="M8.88959 165.033H49.9175L57.5299 225.037H0.876709L8.88959 165.033Z" fill="#F2575D"/>
<path d="M49.9192 165.033H54.6657L68.6635 225.037H57.5316L49.9192 165.033Z" fill="#F2575D"/>
<path d="M68.6635 225.037H57.5316L49.9192 165.033H54.6657L68.6635 225.037Z" fill="#CC4341"/>
<path d="M27.0047 133.835C27.0056 133.806 27.1237 133.767 27.3362 133.818C27.5469 133.866 27.8406 134.04 28.0522 134.376C28.2695 134.697 28.3781 135.234 28.1835 135.733C28.0031 136.235 27.5931 136.675 27.0708 136.947C26.3312 137.324 25.5755 137.348 24.987 137.356L25.1674 137.235C24.63 138.269 23.9877 138.723 23.9395 138.664C23.8668 138.598 24.3702 138.049 24.7877 137.06L24.834 136.951L24.9691 136.938C25.5415 136.887 26.2329 136.826 26.8431 136.511C27.271 136.288 27.6073 135.939 27.7613 135.57C27.9266 135.198 27.8822 134.828 27.748 134.545C27.4732 133.958 26.9848 133.907 27.0047 133.835Z" fill="#F68260"/>
<path d="M19.3141 167.651C19.281 167.647 19.3141 167.213 19.4029 166.434C19.4917 165.654 19.6513 164.53 19.879 163.146C20.3267 160.377 21.0767 156.576 21.9618 152.396C22.8468 148.212 23.6507 144.429 24.1844 141.681C24.4347 140.382 24.6453 139.292 24.8125 138.427C24.9599 137.657 25.0572 137.234 25.0912 137.239C25.1252 137.244 25.0912 137.677 25.0014 138.456C24.9136 139.236 24.754 140.36 24.5263 141.744C24.0795 144.512 23.3286 148.313 22.4435 152.497C21.5584 156.678 20.7546 160.461 20.2209 163.208C19.9706 164.507 19.76 165.597 19.5928 166.463C19.4454 167.232 19.3472 167.656 19.3141 167.651Z" fill="#F2575D"/>
<path d="M40.9725 168.253C40.9404 168.262 40.7798 167.77 40.5191 166.874C40.2442 165.889 39.8881 164.607 39.4584 163.066C38.5837 159.844 37.4077 155.385 36.1381 150.453C34.8686 145.52 33.7465 141.047 32.9577 137.804C32.5894 136.246 32.2833 134.952 32.0481 133.957C31.8441 133.046 31.7468 132.539 31.7798 132.53C31.8129 132.522 31.9735 133.015 32.2342 133.911C32.5081 134.896 32.8652 136.177 33.295 137.72C34.1696 140.941 35.3456 145.399 36.6152 150.332C37.8837 155.263 39.0059 159.735 39.7946 162.978C40.163 164.536 40.4691 165.83 40.7043 166.825C40.9092 167.736 41.0065 168.245 40.9725 168.253Z" fill="#F2575D"/>
<path d="M68.661 225.037C68.6175 225.09 67.8675 224.558 66.6868 223.657C65.507 222.755 63.8974 221.482 62.1396 220.054C61.8354 219.806 61.536 219.562 61.2517 219.329L61.6087 219.273C60.5045 220.937 59.5108 222.396 58.7787 223.429C58.0486 224.462 57.5818 225.071 57.5299 225.037C57.4779 225.003 57.8502 224.332 58.5086 223.251C59.1679 222.17 60.1116 220.679 61.2016 219.006L61.348 218.78L61.5587 218.951C61.8458 219.182 62.1452 219.425 62.4503 219.672C64.2082 221.101 65.7828 222.416 66.9059 223.387C68.03 224.357 68.7035 224.984 68.661 225.037Z" fill="#17282F"/>
<path d="M52.4121 165.032C52.5462 165.009 54.6687 177.105 57.152 192.043C59.6372 206.987 61.5405 219.116 61.4074 219.139C61.2732 219.16 59.1517 207.068 56.6665 192.124C54.1832 177.185 52.278 165.054 52.4121 165.032Z" fill="#17282F"/>
<path d="M52.3107 182.065C52.3107 182.065 52.0112 182.409 51.3548 182.973C50.7002 183.537 49.6809 184.326 48.2244 185.103C46.7745 185.877 44.8796 186.654 42.5616 187.048C40.2597 187.423 37.5025 187.507 34.6593 186.588C33.2537 186.118 31.8321 185.358 30.692 184.171C29.5604 183.004 28.6763 181.422 28.5318 179.633C28.3759 177.852 29.107 175.937 30.5768 174.698C31.3032 174.076 32.2477 173.667 33.2358 173.59C34.2266 173.504 35.2326 173.746 36.13 174.192C37.0254 174.649 37.8264 175.308 38.4536 176.123C39.079 176.944 39.5144 177.903 39.7761 178.909C40.3079 180.932 40.1822 183.093 39.7543 185.174C38.8967 189.356 36.6627 193.413 33.3123 196.47C31.6319 197.986 29.7408 199.243 27.6901 200.079C25.648 200.921 23.4433 201.348 21.2915 201.171C19.1436 200.994 17.0806 200.205 15.4512 198.91C13.8123 197.637 12.6458 195.781 12.3284 193.805C11.995 191.843 12.3633 189.797 13.4307 188.216C14.4641 186.642 16.255 185.53 18.1036 185.693C19.0208 185.771 19.8652 186.262 20.4169 186.938C20.9808 187.611 21.3029 188.422 21.4663 189.228C21.7978 190.858 21.4672 192.463 20.926 193.84C19.7783 196.619 17.6776 198.526 15.6637 199.702C13.6177 200.875 11.6398 201.414 10.0331 201.739C8.41594 202.055 7.14075 202.159 6.27835 202.217C5.84668 202.241 5.51797 202.256 5.29599 202.259C5.07496 202.264 4.96161 202.262 4.96066 202.253C4.96066 202.245 5.07306 202.23 5.29315 202.209C5.53874 202.186 5.86179 202.155 6.2708 202.117C7.12753 202.029 8.39611 201.893 9.99434 201.551C11.5831 201.201 13.5308 200.639 15.5249 199.465C17.4849 198.292 19.5176 196.403 20.602 193.711C21.1158 192.379 21.4172 190.831 21.0941 189.304C20.9364 188.547 20.6284 187.795 20.1155 187.192C19.613 186.587 18.8762 186.165 18.0639 186.098C16.4194 185.957 14.7456 186.979 13.7906 188.456C12.7988 189.936 12.4531 191.874 12.7752 193.728C13.0812 195.591 14.1779 197.328 15.7431 198.541C17.296 199.771 19.2758 200.526 21.3293 200.691C25.494 201.017 29.7361 199.062 32.9798 196.106C36.2518 193.123 38.4395 189.157 39.282 185.077C39.7052 183.043 39.8233 180.95 39.3217 179.028C39.0771 178.072 38.6634 177.164 38.0872 176.405C37.5044 175.643 36.7562 175.024 35.9259 174.596C35.0928 174.179 34.169 173.957 33.2717 174.032C32.3753 174.1 31.5242 174.462 30.8535 175.03C29.4962 176.162 28.7991 177.949 28.9389 179.601C29.0636 181.275 29.8891 182.785 30.965 183.909C32.0456 185.047 33.4086 185.791 34.7707 186.259C37.5261 187.175 40.2465 187.122 42.5163 186.776C44.805 186.415 46.6866 185.674 48.1356 184.933C49.5903 184.191 50.6208 183.433 51.2914 182.897C51.6362 182.637 51.8743 182.411 52.0462 182.272C52.2153 182.128 52.305 182.058 52.3107 182.065Z" fill="white"/>
<path d="M110.379 123.471H102.984C100.599 124.306 81.3959 140.647 81.3959 140.647L92.2501 157.704L106.324 149.473L110.379 123.471Z" fill="black"/>
<path d="M102.985 123.473L119.326 117.271C119.326 117.271 121.712 122.28 128.988 121.207C136.264 120.133 144.852 115.005 144.852 115.005C144.852 115.005 157.376 122.161 161.073 125.143C164.771 128.125 158.091 190.626 158.091 190.626L156.422 209.352C156.422 209.352 157.733 210.306 157.733 213.527C157.733 216.749 157.853 218.895 157.853 218.895H93.117C93.117 218.895 91.5348 211.38 92.7278 208.398C93.9208 205.416 95.8884 202.434 95.8884 202.434L96.9019 173.57L97.2599 147.805L102.985 123.473Z" fill="black"/>
<path d="M161.073 125.143C161.073 125.143 166.296 126.617 167.845 134.365C169.395 142.112 169.112 171.694 169.112 171.694L139.942 165.376C139.942 165.376 143.898 152.959 143.898 152.114C143.898 151.268 151.928 131.265 152.209 130.843C152.491 130.42 161.073 125.143 161.073 125.143Z" fill="black"/>
<path d="M96.767 135.638C96.9031 135.636 97.0891 140.806 97.1845 147.186C97.278 153.569 97.245 158.741 97.1099 158.744C96.973 158.746 96.7869 153.575 96.6924 147.194C96.598 140.814 96.632 135.64 96.767 135.638Z" fill="#17282F"/>
<path d="M147.549 138.413C147.582 138.419 147.542 138.785 147.44 139.44C147.339 140.096 147.169 141.04 146.94 142.203C146.484 144.53 145.772 147.729 144.853 151.229C143.931 154.728 142.976 157.864 142.229 160.114C141.856 161.239 141.539 162.145 141.305 162.766C141.071 163.386 140.926 163.724 140.894 163.714C140.862 163.703 140.945 163.345 141.122 162.706C141.335 161.967 141.593 161.067 141.897 160.011C142.558 157.739 143.457 154.595 144.376 151.103C145.294 147.612 146.058 144.433 146.6 142.129C146.856 141.061 147.073 140.151 147.253 139.401C147.412 138.759 147.516 138.406 147.549 138.413Z" fill="#17282F"/>
<path d="M144.808 137.785C144.943 137.793 144.913 140.457 144.739 143.739C144.568 147.02 144.316 149.674 144.181 149.666C144.045 149.66 144.075 146.994 144.249 143.712C144.422 140.432 144.672 137.778 144.808 137.785Z" fill="#17282F"/>
<path d="M137.537 147.555C137.537 147.691 134.734 147.801 131.276 147.801C127.817 147.801 125.014 147.691 125.014 147.555C125.014 147.419 127.817 147.309 131.276 147.309C134.734 147.309 137.537 147.419 137.537 147.555Z" fill="white"/>
<path d="M104.107 190.024L136.383 186.144L141.472 165.709L159.531 169.619C159.531 169.619 152.389 197.986 145.028 200.729C137.667 203.471 101.254 198.837 101.254 198.837L104.107 190.024Z" fill="#F8A58D"/>
<path d="M102.791 189.792C102.791 189.792 98.9144 188.194 97.4163 187.972C95.9182 187.749 94.1537 188.077 93.7098 188.799L84.9979 193.848C84.9979 193.848 78.5625 193.238 77.9513 194.68C77.9513 194.68 73.8462 193.515 73.1812 194.347C73.1812 194.347 71.1277 195.013 71.4602 195.957C71.7936 196.9 79.2284 199.508 79.2284 199.508L89.4374 200.562C89.4374 200.562 93.3216 198.452 94.9302 198.287C96.5388 198.121 99.7447 198.715 99.5539 198.652C99.4236 198.609 105.505 199.337 105.505 199.337C105.505 199.337 106.749 198.009 107.248 194.347C107.746 190.686 107.248 189.909 107.248 189.909L102.791 189.792Z" fill="#F8A58D"/>
<path d="M98.4817 194.449C98.4855 194.474 98.2059 194.489 97.8479 194.202C97.4805 193.945 97.1735 193.338 96.6105 192.952C96.3233 192.772 95.9361 192.696 95.495 192.616C95.0652 192.539 94.5117 192.404 94.1008 192.003C93.6918 191.619 93.4206 191.071 93.3517 190.473C93.2752 189.887 93.4348 189.194 93.8948 188.717C94.8092 187.795 96.1146 187.601 97.1395 187.824C98.1804 188.049 98.9833 188.583 99.5765 189.073C100.171 189.569 100.583 190.032 100.863 190.354C101.14 190.678 101.279 190.871 101.254 190.894C101.193 190.96 100.544 190.256 99.3611 189.347C98.766 188.91 97.9915 188.446 97.0526 188.269C96.142 188.084 94.9915 188.304 94.2557 189.052C93.5435 189.796 93.7815 191.075 94.4143 191.676C95.034 192.32 96.1014 192.146 96.8023 192.662C97.4654 193.194 97.6694 193.788 97.9773 194.061C98.2541 194.357 98.4931 194.408 98.4817 194.449Z" fill="#F68260"/>
<path d="M93.0965 192.764C93.0908 192.844 92.6053 192.817 91.9167 193.129C91.2121 193.395 90.3733 194.112 89.1264 194.446C87.839 194.714 86.7669 194.302 86.0188 194.204C85.265 194.062 84.7899 194.095 84.7766 194.021C84.7606 193.962 85.2565 193.801 86.0594 193.859C86.8528 193.881 87.9334 194.206 89.015 193.967C90.0918 193.69 91.0052 193.014 91.7968 192.802C92.5874 192.549 93.1135 192.71 93.0965 192.764Z" fill="#F68260"/>
<path d="M93.3107 196.824C93.3248 196.85 93.1218 196.997 92.7222 197.208C92.3217 197.42 91.7153 197.674 90.9341 197.891C89.3727 198.346 87.1048 198.502 84.6621 198.254C83.4464 198.101 82.2969 197.918 81.2484 197.761C80.2084 197.579 79.2487 197.522 78.4638 197.139C78.085 196.95 77.7723 196.659 77.6325 196.335C77.4861 196.02 77.4615 195.711 77.5078 195.473C77.6127 194.977 77.9263 194.865 77.9225 194.889C77.9584 194.92 77.7251 195.079 77.6977 195.497C77.6684 195.903 77.9008 196.545 78.6139 196.826C79.294 197.121 80.2745 197.16 81.3126 197.311C82.3762 197.454 83.5144 197.605 84.7084 197.765C87.1161 198.008 89.3132 197.909 90.851 197.553C92.3935 197.219 93.2729 196.745 93.3107 196.824Z" fill="#F68260"/>
<path d="M141.741 194.399C141.594 194.442 141.063 192.435 139.644 190.366C138.248 188.279 136.583 187.041 136.676 186.921C136.728 186.813 138.594 187.916 140.051 190.09C141.529 192.25 141.862 194.392 141.741 194.399Z" fill="#F68260"/>
<path d="M95.5668 236.721C95.5668 236.982 95.4762 237.197 95.2948 237.367C95.1135 237.526 94.9152 237.605 94.6998 237.605C94.4732 237.605 94.2692 237.526 94.0878 237.367C93.9065 237.197 93.8158 236.982 93.8158 236.721C93.8158 236.46 93.9065 236.245 94.0878 236.075C94.2692 235.905 94.4732 235.82 94.6998 235.82C94.9152 235.82 95.1135 235.905 95.2948 236.075C95.4762 236.245 95.5668 236.46 95.5668 236.721ZM95.3968 238.642V248.57H93.9858V238.642H95.3968Z" fill="#17282F"/>
<path d="M106.161 244.32V239.934H102.999V241.277H104.75V243.521C104.489 243.623 104.217 243.702 103.934 243.759C103.651 243.804 103.362 243.827 103.067 243.827C102.421 243.827 101.815 243.702 101.248 243.453C100.693 243.204 100.205 242.864 99.7861 242.433C99.3555 242.014 99.0155 241.515 98.7662 240.937C98.5282 240.359 98.4091 239.747 98.4091 239.101C98.4091 238.455 98.5282 237.843 98.7662 237.265C99.0155 236.687 99.3555 236.177 99.7861 235.735C100.205 235.304 100.693 234.964 101.248 234.715C101.815 234.466 102.421 234.341 103.067 234.341C103.498 234.341 103.906 234.398 104.291 234.511C104.676 234.624 105.045 234.783 105.396 234.987L106.178 233.848C105.713 233.576 105.22 233.366 104.699 233.219C104.189 233.072 103.645 232.998 103.067 232.998C102.228 232.998 101.441 233.162 100.704 233.491C99.9675 233.808 99.3271 234.239 98.7831 234.783C98.2278 235.338 97.7915 235.99 97.4741 236.738C97.1568 237.475 96.9981 238.262 96.9981 239.101C96.9981 239.94 97.1568 240.727 97.4741 241.464C97.7915 242.201 98.2278 242.841 98.7831 243.385C99.3271 243.94 99.9675 244.377 100.704 244.694C101.441 245.011 102.228 245.17 103.067 245.17C103.645 245.17 104.189 245.096 104.699 244.949C105.22 244.79 105.708 244.581 106.161 244.32Z" fill="#17282F"/>
<path d="M111.132 245V243.657H110.061V241.906C110.061 241.555 110.134 241.237 110.282 240.954C110.44 240.671 110.656 240.438 110.928 240.257C111.109 240.132 111.319 240.036 111.557 239.968C111.806 239.9 112.072 239.866 112.356 239.866L112.458 238.472C112.288 238.472 112.089 238.512 111.863 238.591C111.647 238.67 111.421 238.789 111.183 238.948C110.956 239.095 110.735 239.282 110.52 239.509C110.316 239.724 110.146 239.974 110.01 240.257C109.987 239.985 109.976 239.86 109.976 239.883C109.987 239.906 109.981 239.781 109.959 239.509L109.891 238.625H107.528V239.968H108.65V243.657H107.358V245H111.132Z" fill="#17282F"/>
<path d="M121.759 245V243.657H120.466V238.625H119.294C119.294 238.761 119.282 238.903 119.259 239.05C119.248 239.186 119.237 239.311 119.226 239.424C119.135 239.231 118.908 239.027 118.546 238.812C118.183 238.585 117.69 238.472 117.067 238.472C116.591 238.472 116.143 238.563 115.724 238.744C115.304 238.925 114.942 239.169 114.636 239.475C114.33 239.781 114.086 240.138 113.905 240.546C113.735 240.954 113.65 241.379 113.65 241.821C113.65 242.274 113.735 242.705 113.905 243.113C114.086 243.51 114.33 243.861 114.636 244.167C114.942 244.473 115.304 244.717 115.724 244.898C116.143 245.068 116.591 245.153 117.067 245.153C117.395 245.153 117.69 245.113 117.951 245.034C118.211 244.966 118.438 244.881 118.631 244.779C118.812 244.688 118.954 244.598 119.056 244.507C119.158 244.416 119.214 244.354 119.226 244.32C119.226 244.399 119.226 244.456 119.226 244.49C119.226 244.524 119.226 244.581 119.226 244.66V245H121.759ZM117.067 239.849C117.35 239.849 117.605 239.894 117.832 239.985C118.07 240.076 118.279 240.2 118.461 240.359C118.642 240.529 118.784 240.739 118.886 240.988C118.999 241.237 119.056 241.509 119.056 241.804C119.056 242.099 118.999 242.371 118.886 242.62C118.784 242.869 118.636 243.085 118.444 243.266C118.274 243.425 118.07 243.549 117.832 243.64C117.605 243.731 117.35 243.776 117.067 243.776C116.817 243.776 116.585 243.742 116.37 243.674C116.154 243.595 115.967 243.493 115.809 243.368C115.582 243.187 115.401 242.96 115.265 242.688C115.14 242.416 115.078 242.121 115.078 241.804C115.078 241.532 115.117 241.283 115.197 241.056C115.287 240.829 115.412 240.631 115.571 240.461C115.741 240.268 115.956 240.121 116.216 240.019C116.477 239.906 116.761 239.849 117.067 239.849Z" fill="#17282F"/>
<path d="M128.471 244.422L127.621 243.351C127.44 243.498 127.242 243.606 127.026 243.674C126.822 243.742 126.596 243.776 126.346 243.776C126.063 243.776 125.802 243.731 125.564 243.64C125.326 243.538 125.117 243.408 124.935 243.249C124.754 243.068 124.612 242.852 124.51 242.603C124.408 242.354 124.357 242.087 124.357 241.804C124.357 241.498 124.408 241.22 124.51 240.971C124.624 240.722 124.782 240.506 124.986 240.325C125.156 240.178 125.355 240.064 125.581 239.985C125.819 239.894 126.074 239.849 126.346 239.849C126.505 239.849 126.658 239.866 126.805 239.9C126.964 239.923 127.111 239.968 127.247 240.036V241.175H128.505V239.203C128.211 238.976 127.882 238.801 127.519 238.676C127.157 238.54 126.766 238.472 126.346 238.472C125.87 238.472 125.423 238.563 125.003 238.744C124.595 238.914 124.238 239.152 123.932 239.458C123.626 239.753 123.383 240.104 123.201 240.512C123.031 240.92 122.946 241.351 122.946 241.804C122.946 242.28 123.031 242.716 123.201 243.113C123.383 243.51 123.626 243.861 123.932 244.167C124.238 244.473 124.595 244.717 125.003 244.898C125.423 245.068 125.87 245.153 126.346 245.153C126.754 245.153 127.134 245.091 127.485 244.966C127.848 244.83 128.177 244.649 128.471 244.422Z" fill="#17282F"/>
<path d="M133.477 245V243.657H132.304V238.625H129.703V239.968H130.893V243.657H129.703V245H133.477ZM132.491 236.16C132.491 235.899 132.401 235.684 132.219 235.514C132.038 235.344 131.84 235.259 131.624 235.259C131.398 235.259 131.194 235.344 131.012 235.514C130.831 235.684 130.74 235.899 130.74 236.16C130.74 236.421 130.831 236.636 131.012 236.806C131.194 236.965 131.398 237.044 131.624 237.044C131.84 237.044 132.038 236.965 132.219 236.806C132.401 236.636 132.491 236.421 132.491 236.16Z" fill="#17282F"/>
<path d="M142.776 245V243.657H141.484V238.625H140.311C140.311 238.761 140.3 238.903 140.277 239.05C140.266 239.186 140.254 239.311 140.243 239.424C140.152 239.231 139.926 239.027 139.563 238.812C139.2 238.585 138.707 238.472 138.084 238.472C137.608 238.472 137.16 238.563 136.741 238.744C136.322 238.925 135.959 239.169 135.653 239.475C135.347 239.781 135.103 240.138 134.922 240.546C134.752 240.954 134.667 241.379 134.667 241.821C134.667 242.274 134.752 242.705 134.922 243.113C135.103 243.51 135.347 243.861 135.653 244.167C135.959 244.473 136.322 244.717 136.741 244.898C137.16 245.068 137.608 245.153 138.084 245.153C138.413 245.153 138.707 245.113 138.968 245.034C139.229 244.966 139.455 244.881 139.648 244.779C139.829 244.688 139.971 244.598 140.073 244.507C140.175 244.416 140.232 244.354 140.243 244.32C140.243 244.399 140.243 244.456 140.243 244.49C140.243 244.524 140.243 244.581 140.243 244.66V245H142.776ZM138.084 239.849C138.367 239.849 138.622 239.894 138.849 239.985C139.087 240.076 139.297 240.2 139.478 240.359C139.659 240.529 139.801 240.739 139.903 240.988C140.016 241.237 140.073 241.509 140.073 241.804C140.073 242.099 140.016 242.371 139.903 242.62C139.801 242.869 139.654 243.085 139.461 243.266C139.291 243.425 139.087 243.549 138.849 243.64C138.622 243.731 138.367 243.776 138.084 243.776C137.835 243.776 137.602 243.742 137.387 243.674C137.172 243.595 136.985 243.493 136.826 243.368C136.599 243.187 136.418 242.96 136.282 242.688C136.157 242.416 136.095 242.121 136.095 241.804C136.095 241.532 136.135 241.283 136.214 241.056C136.305 240.829 136.429 240.631 136.588 240.461C136.758 240.268 136.973 240.121 137.234 240.019C137.495 239.906 137.778 239.849 138.084 239.849Z" fill="#17282F"/>
<path d="M148.061 244.371C148.22 244.156 148.327 243.935 148.384 243.708C148.452 243.481 148.486 243.289 148.486 243.13C148.486 242.779 148.424 242.49 148.299 242.263C148.174 242.025 148.016 241.827 147.823 241.668C147.63 241.521 147.421 241.396 147.194 241.294C146.967 241.192 146.758 241.101 146.565 241.022C146.361 240.943 146.185 240.863 146.038 240.784C145.891 240.693 145.806 240.58 145.783 240.444C145.772 240.353 145.777 240.274 145.8 240.206C145.823 240.127 145.862 240.059 145.919 240.002C145.976 239.957 146.049 239.923 146.14 239.9C146.231 239.866 146.338 239.849 146.463 239.849C146.554 239.849 146.639 239.86 146.718 239.883C146.797 239.894 146.882 239.911 146.973 239.934V240.665H148.231V239.186C148.106 239.05 147.959 238.937 147.789 238.846C147.63 238.755 147.466 238.682 147.296 238.625C147.126 238.568 146.956 238.529 146.786 238.506C146.627 238.483 146.491 238.472 146.378 238.472C146.185 238.472 145.97 238.506 145.732 238.574C145.494 238.642 145.273 238.755 145.069 238.914C144.865 239.061 144.695 239.254 144.559 239.492C144.423 239.73 144.355 240.025 144.355 240.376C144.355 240.773 144.423 241.09 144.559 241.328C144.695 241.566 144.865 241.747 145.069 241.872C145.284 242.008 145.511 242.116 145.749 242.195C145.987 242.263 146.202 242.337 146.395 242.416C146.599 242.484 146.758 242.575 146.871 242.688C146.996 242.79 147.058 242.943 147.058 243.147C147.058 243.26 147.035 243.357 146.99 243.436C146.956 243.504 146.911 243.561 146.854 243.606C146.775 243.663 146.684 243.702 146.582 243.725C146.491 243.748 146.401 243.759 146.31 243.759C146.117 243.759 145.953 243.753 145.817 243.742C145.692 243.719 145.562 243.68 145.426 243.623V242.96H144.168V244.439C144.395 244.688 144.701 244.87 145.086 244.983C145.471 245.085 145.874 245.136 146.293 245.136C146.746 245.136 147.115 245.062 147.398 244.915C147.681 244.768 147.902 244.586 148.061 244.371Z" fill="#17282F"/>
<path d="M151.58 244.099C151.58 243.838 151.49 243.629 151.309 243.47C151.127 243.3 150.929 243.215 150.714 243.215C150.487 243.215 150.283 243.3 150.102 243.47C149.92 243.629 149.829 243.838 149.829 244.099C149.829 244.36 149.92 244.575 150.102 244.745C150.283 244.915 150.487 245 150.714 245C150.929 245 151.127 244.915 151.309 244.745C151.49 244.575 151.58 244.36 151.58 244.099ZM151.41 242.178V232.25H149.999V242.178H151.41Z" fill="#17282F"/>
<path d="M81.2118 260.049C80.8525 260.049 80.5305 259.991 80.2458 259.874C79.9612 259.757 79.7325 259.585 79.5598 259.356C79.3918 259.127 79.3032 258.852 79.2938 258.53H80.5678C80.5865 258.712 80.6495 258.852 80.7568 258.95C80.8642 259.043 81.0042 259.09 81.1768 259.09C81.3542 259.09 81.4942 259.05 81.5968 258.971C81.6995 258.887 81.7508 258.773 81.7508 258.628C81.7508 258.507 81.7088 258.406 81.6248 258.327C81.5455 258.248 81.4452 258.182 81.3238 258.131C81.2072 258.08 81.0392 258.021 80.8198 257.956C80.5025 257.858 80.2435 257.76 80.0428 257.662C79.8422 257.564 79.6695 257.419 79.5248 257.228C79.3802 257.037 79.3078 256.787 79.3078 256.479C79.3078 256.022 79.4735 255.665 79.8048 255.408C80.1362 255.147 80.5678 255.016 81.0998 255.016C81.6412 255.016 82.0775 255.147 82.4088 255.408C82.7402 255.665 82.9175 256.024 82.9408 256.486H81.6458C81.6365 256.327 81.5782 256.204 81.4708 256.115C81.3635 256.022 81.2258 255.975 81.0578 255.975C80.9132 255.975 80.7965 256.015 80.7078 256.094C80.6192 256.169 80.5748 256.278 80.5748 256.423C80.5748 256.582 80.6495 256.705 80.7988 256.794C80.9482 256.883 81.1815 256.978 81.4988 257.081C81.8162 257.188 82.0728 257.291 82.2688 257.389C82.4695 257.487 82.6422 257.629 82.7868 257.816C82.9315 258.003 83.0038 258.243 83.0038 258.537C83.0038 258.817 82.9315 259.071 82.7868 259.3C82.6468 259.529 82.4415 259.711 82.1708 259.846C81.9002 259.981 81.5805 260.049 81.2118 260.049Z" fill="#33535F"/>
<path d="M87.5975 256.094V260H86.4005V259.468C86.2791 259.641 86.1135 259.781 85.9035 259.888C85.6981 259.991 85.4695 260.042 85.2175 260.042C84.9188 260.042 84.6551 259.977 84.4265 259.846C84.1978 259.711 84.0205 259.517 83.8945 259.265C83.7685 259.013 83.7055 258.717 83.7055 258.376V256.094H84.8955V258.215C84.8955 258.476 84.9631 258.679 85.0985 258.824C85.2338 258.969 85.4158 259.041 85.6445 259.041C85.8778 259.041 86.0621 258.969 86.1975 258.824C86.3328 258.679 86.4005 258.476 86.4005 258.215V256.094H87.5975Z" fill="#33535F"/>
<path d="M89.7027 258.047C89.7027 257.641 89.7843 257.286 89.9477 256.983C90.1157 256.68 90.3467 256.446 90.6407 256.283C90.9393 256.12 91.28 256.038 91.6627 256.038C92.1527 256.038 92.561 256.166 92.8877 256.423C93.219 256.68 93.436 257.041 93.5387 257.508H92.2647C92.1573 257.209 91.9497 257.06 91.6417 257.06C91.4223 257.06 91.2473 257.146 91.1167 257.319C90.986 257.487 90.9207 257.73 90.9207 258.047C90.9207 258.364 90.986 258.609 91.1167 258.782C91.2473 258.95 91.4223 259.034 91.6417 259.034C91.9497 259.034 92.1573 258.885 92.2647 258.586H93.5387C93.436 259.043 93.219 259.403 92.8877 259.664C92.5563 259.925 92.148 260.056 91.6627 260.056C91.28 260.056 90.9393 259.974 90.6407 259.811C90.3467 259.648 90.1157 259.414 89.9477 259.111C89.7843 258.808 89.7027 258.453 89.7027 258.047Z" fill="#33535F"/>
<path d="M95.9569 260.056C95.5743 260.056 95.2289 259.974 94.9209 259.811C94.6176 259.648 94.3773 259.414 94.1999 259.111C94.0273 258.808 93.9409 258.453 93.9409 258.047C93.9409 257.646 94.0296 257.293 94.2069 256.99C94.3843 256.682 94.6269 256.446 94.9349 256.283C95.2429 256.12 95.5883 256.038 95.9709 256.038C96.3536 256.038 96.6989 256.12 97.0069 256.283C97.3149 256.446 97.5576 256.682 97.7349 256.99C97.9123 257.293 98.0009 257.646 98.0009 258.047C98.0009 258.448 97.9099 258.803 97.7279 259.111C97.5506 259.414 97.3056 259.648 96.9929 259.811C96.6849 259.974 96.3396 260.056 95.9569 260.056ZM95.9569 259.02C96.1856 259.02 96.3793 258.936 96.5379 258.768C96.7013 258.6 96.7829 258.36 96.7829 258.047C96.7829 257.734 96.7036 257.494 96.5449 257.326C96.3909 257.158 96.1996 257.074 95.9709 257.074C95.7376 257.074 95.5439 257.158 95.3899 257.326C95.2359 257.489 95.1589 257.73 95.1589 258.047C95.1589 258.36 95.2336 258.6 95.3829 258.768C95.5369 258.936 95.7283 259.02 95.9569 259.02Z" fill="#33535F"/>
<path d="M103.62 256.052C104.105 256.052 104.49 256.199 104.775 256.493C105.064 256.787 105.209 257.195 105.209 257.718V260H104.019V257.879C104.019 257.627 103.951 257.433 103.816 257.298C103.685 257.158 103.503 257.088 103.27 257.088C103.037 257.088 102.852 257.158 102.717 257.298C102.586 257.433 102.521 257.627 102.521 257.879V260H101.331V257.879C101.331 257.627 101.263 257.433 101.128 257.298C100.997 257.158 100.815 257.088 100.582 257.088C100.349 257.088 100.164 257.158 100.029 257.298C99.8983 257.433 99.833 257.627 99.833 257.879V260H98.636V256.094H99.833V256.584C99.9543 256.421 100.113 256.292 100.309 256.199C100.505 256.101 100.727 256.052 100.974 256.052C101.268 256.052 101.529 256.115 101.758 256.241C101.991 256.367 102.173 256.547 102.304 256.78C102.439 256.565 102.624 256.39 102.857 256.255C103.09 256.12 103.345 256.052 103.62 256.052Z" fill="#33535F"/>
<path d="M107.243 256.647C107.36 256.465 107.521 256.318 107.726 256.206C107.931 256.094 108.172 256.038 108.447 256.038C108.769 256.038 109.061 256.12 109.322 256.283C109.583 256.446 109.789 256.68 109.938 256.983C110.092 257.286 110.169 257.639 110.169 258.04C110.169 258.441 110.092 258.796 109.938 259.104C109.789 259.407 109.583 259.643 109.322 259.811C109.061 259.974 108.769 260.056 108.447 260.056C108.176 260.056 107.936 260 107.726 259.888C107.521 259.776 107.36 259.631 107.243 259.454V261.862H106.046V256.094H107.243V256.647ZM108.951 258.04C108.951 257.741 108.867 257.508 108.699 257.34C108.536 257.167 108.333 257.081 108.09 257.081C107.852 257.081 107.649 257.167 107.481 257.34C107.318 257.513 107.236 257.748 107.236 258.047C107.236 258.346 107.318 258.581 107.481 258.754C107.649 258.927 107.852 259.013 108.09 259.013C108.328 259.013 108.531 258.927 108.699 258.754C108.867 258.577 108.951 258.339 108.951 258.04Z" fill="#33535F"/>
<path d="M111.994 256.745C112.134 256.53 112.309 256.362 112.519 256.241C112.729 256.115 112.962 256.052 113.219 256.052V257.319H112.89C112.591 257.319 112.367 257.384 112.218 257.515C112.069 257.641 111.994 257.865 111.994 258.187V260H110.797V256.094H111.994V256.745Z" fill="#33535F"/>
<path d="M113.553 258.04C113.553 257.639 113.628 257.286 113.777 256.983C113.931 256.68 114.139 256.446 114.4 256.283C114.662 256.12 114.953 256.038 115.275 256.038C115.551 256.038 115.791 256.094 115.996 256.206C116.206 256.318 116.367 256.465 116.479 256.647V256.094H117.676V260H116.479V259.447C116.363 259.629 116.199 259.776 115.989 259.888C115.784 260 115.544 260.056 115.268 260.056C114.951 260.056 114.662 259.974 114.4 259.811C114.139 259.643 113.931 259.407 113.777 259.104C113.628 258.796 113.553 258.441 113.553 258.04ZM116.479 258.047C116.479 257.748 116.395 257.513 116.227 257.34C116.064 257.167 115.863 257.081 115.625 257.081C115.387 257.081 115.184 257.167 115.016 257.34C114.853 257.508 114.771 257.741 114.771 258.04C114.771 258.339 114.853 258.577 115.016 258.754C115.184 258.927 115.387 259.013 115.625 259.013C115.863 259.013 116.064 258.927 116.227 258.754C116.395 258.581 116.479 258.346 116.479 258.047Z" fill="#33535F"/>
<path d="M122.427 256.052C122.875 256.052 123.234 256.201 123.505 256.5C123.775 256.794 123.911 257.2 123.911 257.718V260H122.721V257.879C122.721 257.618 122.653 257.415 122.518 257.27C122.382 257.125 122.2 257.053 121.972 257.053C121.743 257.053 121.561 257.125 121.426 257.27C121.29 257.415 121.223 257.618 121.223 257.879V260H120.026V254.82H121.223V256.619C121.344 256.446 121.51 256.309 121.72 256.206C121.93 256.103 122.165 256.052 122.427 256.052Z" fill="#33535F"/>
<path d="M124.504 258.04C124.504 257.639 124.579 257.286 124.728 256.983C124.882 256.68 125.09 256.446 125.351 256.283C125.613 256.12 125.904 256.038 126.226 256.038C126.502 256.038 126.742 256.094 126.947 256.206C127.157 256.318 127.318 256.465 127.43 256.647V256.094H128.627V260H127.43V259.447C127.314 259.629 127.15 259.776 126.94 259.888C126.735 260 126.495 260.056 126.219 260.056C125.902 260.056 125.613 259.974 125.351 259.811C125.09 259.643 124.882 259.407 124.728 259.104C124.579 258.796 124.504 258.441 124.504 258.04ZM127.43 258.047C127.43 257.748 127.346 257.513 127.178 257.34C127.015 257.167 126.814 257.081 126.576 257.081C126.338 257.081 126.135 257.167 125.967 257.34C125.804 257.508 125.722 257.741 125.722 258.04C125.722 258.339 125.804 258.577 125.967 258.754C126.135 258.927 126.338 259.013 126.576 259.013C126.814 259.013 127.015 258.927 127.178 258.754C127.346 258.581 127.43 258.346 127.43 258.047Z" fill="#33535F"/>
<path d="M132.566 260.056C132.225 260.056 131.922 259.998 131.656 259.881C131.39 259.764 131.18 259.606 131.026 259.405C130.872 259.2 130.785 258.971 130.767 258.719H131.95C131.964 258.854 132.027 258.964 132.139 259.048C132.251 259.132 132.388 259.174 132.552 259.174C132.701 259.174 132.815 259.146 132.895 259.09C132.979 259.029 133.021 258.952 133.021 258.859C133.021 258.747 132.962 258.665 132.846 258.614C132.729 258.558 132.54 258.497 132.279 258.432C131.999 258.367 131.765 258.299 131.579 258.229C131.392 258.154 131.231 258.04 131.096 257.886C130.96 257.727 130.893 257.515 130.893 257.249C130.893 257.025 130.953 256.822 131.075 256.64C131.201 256.453 131.383 256.306 131.621 256.199C131.863 256.092 132.15 256.038 132.482 256.038C132.972 256.038 133.357 256.159 133.637 256.402C133.921 256.645 134.085 256.967 134.127 257.368H133.021C133.002 257.233 132.941 257.125 132.839 257.046C132.741 256.967 132.61 256.927 132.447 256.927C132.307 256.927 132.199 256.955 132.125 257.011C132.05 257.062 132.013 257.135 132.013 257.228C132.013 257.34 132.071 257.424 132.188 257.48C132.309 257.536 132.496 257.592 132.748 257.648C133.037 257.723 133.273 257.797 133.455 257.872C133.637 257.942 133.795 258.059 133.931 258.222C134.071 258.381 134.143 258.595 134.148 258.866C134.148 259.095 134.082 259.3 133.952 259.482C133.826 259.659 133.641 259.799 133.399 259.902C133.161 260.005 132.883 260.056 132.566 260.056Z" fill="#33535F"/>
<path d="M135.482 255.688C135.272 255.688 135.099 255.627 134.964 255.506C134.833 255.38 134.768 255.226 134.768 255.044C134.768 254.857 134.833 254.703 134.964 254.582C135.099 254.456 135.272 254.393 135.482 254.393C135.687 254.393 135.855 254.456 135.986 254.582C136.121 254.703 136.189 254.857 136.189 255.044C136.189 255.226 136.121 255.38 135.986 255.506C135.855 255.627 135.687 255.688 135.482 255.688ZM136.077 256.094V260H134.88V256.094H136.077Z" fill="#33535F"/>
<path d="M136.707 258.04C136.707 257.639 136.781 257.286 136.931 256.983C137.085 256.68 137.292 256.446 137.554 256.283C137.815 256.12 138.107 256.038 138.429 256.038C138.685 256.038 138.919 256.092 139.129 256.199C139.343 256.306 139.511 256.451 139.633 256.633V254.82H140.83V260H139.633V259.44C139.521 259.627 139.36 259.776 139.15 259.888C138.944 260 138.704 260.056 138.429 260.056C138.107 260.056 137.815 259.974 137.554 259.811C137.292 259.643 137.085 259.407 136.931 259.104C136.781 258.796 136.707 258.441 136.707 258.04ZM139.633 258.047C139.633 257.748 139.549 257.513 139.381 257.34C139.217 257.167 139.017 257.081 138.779 257.081C138.541 257.081 138.338 257.167 138.17 257.34C138.006 257.508 137.925 257.741 137.925 258.04C137.925 258.339 138.006 258.577 138.17 258.754C138.338 258.927 138.541 259.013 138.779 259.013C139.017 259.013 139.217 258.927 139.381 258.754C139.549 258.581 139.633 258.346 139.633 258.047Z" fill="#33535F"/>
<path d="M143.474 260.056C143.091 260.056 142.746 259.974 142.438 259.811C142.134 259.648 141.894 259.414 141.717 259.111C141.544 258.808 141.458 258.453 141.458 258.047C141.458 257.646 141.546 257.293 141.724 256.99C141.901 256.682 142.144 256.446 142.452 256.283C142.76 256.12 143.105 256.038 143.488 256.038C143.87 256.038 144.216 256.12 144.524 256.283C144.832 256.446 145.074 256.682 145.252 256.99C145.429 257.293 145.518 257.646 145.518 258.047C145.518 258.448 145.427 258.803 145.245 259.111C145.067 259.414 144.822 259.648 144.51 259.811C144.202 259.974 143.856 260.056 143.474 260.056ZM143.474 259.02C143.702 259.02 143.896 258.936 144.055 258.768C144.218 258.6 144.3 258.36 144.3 258.047C144.3 257.734 144.22 257.494 144.062 257.326C143.908 257.158 143.716 257.074 143.488 257.074C143.254 257.074 143.061 257.158 142.907 257.326C142.753 257.489 142.676 257.73 142.676 258.047C142.676 258.36 142.75 258.6 142.9 258.768C143.054 258.936 143.245 259.02 143.474 259.02Z" fill="#33535F"/>
<path d="M151.318 257.984C151.318 258.096 151.311 258.213 151.297 258.334H148.588C148.607 258.577 148.684 258.763 148.819 258.894C148.959 259.02 149.129 259.083 149.33 259.083C149.629 259.083 149.836 258.957 149.953 258.705H151.227C151.162 258.962 151.043 259.193 150.87 259.398C150.702 259.603 150.49 259.764 150.233 259.881C149.976 259.998 149.689 260.056 149.372 260.056C148.989 260.056 148.649 259.974 148.35 259.811C148.051 259.648 147.818 259.414 147.65 259.111C147.482 258.808 147.398 258.453 147.398 258.047C147.398 257.641 147.48 257.286 147.643 256.983C147.811 256.68 148.044 256.446 148.343 256.283C148.642 256.12 148.985 256.038 149.372 256.038C149.75 256.038 150.086 256.117 150.38 256.276C150.674 256.435 150.903 256.661 151.066 256.955C151.234 257.249 151.318 257.592 151.318 257.984ZM150.093 257.669C150.093 257.464 150.023 257.3 149.883 257.179C149.743 257.058 149.568 256.997 149.358 256.997C149.157 256.997 148.987 257.055 148.847 257.172C148.712 257.289 148.628 257.454 148.595 257.669H150.093Z" fill="#33535F"/>
<path d="M154.259 260L153.51 258.915L152.88 260H151.585L152.873 258.005L151.55 256.094H152.894L153.643 257.172L154.273 256.094H155.568L154.259 258.061L155.603 260H154.259Z" fill="#33535F"/>
<path d="M156.667 255.688C156.457 255.688 156.284 255.627 156.149 255.506C156.018 255.38 155.953 255.226 155.953 255.044C155.953 254.857 156.018 254.703 156.149 254.582C156.284 254.456 156.457 254.393 156.667 254.393C156.872 254.393 157.04 254.456 157.171 254.582C157.306 254.703 157.374 254.857 157.374 255.044C157.374 255.226 157.306 255.38 157.171 255.506C157.04 255.627 156.872 255.688 156.667 255.688ZM157.262 256.094V260H156.065V256.094H157.262Z" fill="#33535F"/>
<path d="M160.306 258.985V260H159.697C159.263 260 158.925 259.895 158.682 259.685C158.439 259.47 158.318 259.123 158.318 258.642V257.088H157.842V256.094H158.318V255.142H159.515V256.094H160.299V257.088H159.515V258.656C159.515 258.773 159.543 258.857 159.599 258.908C159.655 258.959 159.748 258.985 159.879 258.985H160.306Z" fill="#33535F"/>
<path d="M162.751 260.056C162.368 260.056 162.023 259.974 161.715 259.811C161.412 259.648 161.171 259.414 160.994 259.111C160.821 258.808 160.735 258.453 160.735 258.047C160.735 257.646 160.824 257.293 161.001 256.99C161.178 256.682 161.421 256.446 161.729 256.283C162.037 256.12 162.382 256.038 162.765 256.038C163.148 256.038 163.493 256.12 163.801 256.283C164.109 256.446 164.352 256.682 164.529 256.99C164.706 257.293 164.795 257.646 164.795 258.047C164.795 258.448 164.704 258.803 164.522 259.111C164.345 259.414 164.1 259.648 163.787 259.811C163.479 259.974 163.134 260.056 162.751 260.056ZM162.751 259.02C162.98 259.02 163.173 258.936 163.332 258.768C163.495 258.6 163.577 258.36 163.577 258.047C163.577 257.734 163.498 257.494 163.339 257.326C163.185 257.158 162.994 257.074 162.765 257.074C162.532 257.074 162.338 257.158 162.184 257.326C162.03 257.489 161.953 257.73 161.953 258.047C161.953 258.36 162.028 258.6 162.177 258.768C162.331 258.936 162.522 259.02 162.751 259.02Z" fill="#33535F"/>
<path d="M167.019 260.056C166.678 260.056 166.375 259.998 166.109 259.881C165.843 259.764 165.633 259.606 165.479 259.405C165.325 259.2 165.239 258.971 165.22 258.719H166.403C166.417 258.854 166.48 258.964 166.592 259.048C166.704 259.132 166.842 259.174 167.005 259.174C167.154 259.174 167.269 259.146 167.348 259.09C167.432 259.029 167.474 258.952 167.474 258.859C167.474 258.747 167.416 258.665 167.299 258.614C167.182 258.558 166.993 258.497 166.732 258.432C166.452 258.367 166.219 258.299 166.032 258.229C165.845 258.154 165.684 258.04 165.549 257.886C165.414 257.727 165.346 257.515 165.346 257.249C165.346 257.025 165.407 256.822 165.528 256.64C165.654 256.453 165.836 256.306 166.074 256.199C166.317 256.092 166.604 256.038 166.935 256.038C167.425 256.038 167.81 256.159 168.09 256.402C168.375 256.645 168.538 256.967 168.58 257.368H167.474C167.455 257.233 167.395 257.125 167.292 257.046C167.194 256.967 167.063 256.927 166.9 256.927C166.76 256.927 166.653 256.955 166.578 257.011C166.503 257.062 166.466 257.135 166.466 257.228C166.466 257.34 166.524 257.424 166.641 257.48C166.762 257.536 166.949 257.592 167.201 257.648C167.49 257.723 167.726 257.797 167.908 257.872C168.09 257.942 168.249 258.059 168.384 258.222C168.524 258.381 168.596 258.595 168.601 258.866C168.601 259.095 168.536 259.3 168.405 259.482C168.279 259.659 168.095 259.799 167.852 259.902C167.614 260.005 167.336 260.056 167.019 260.056Z" fill="#33535F"/>
<path d="M169.095 258.04C169.095 257.639 169.17 257.286 169.319 256.983C169.473 256.68 169.681 256.446 169.942 256.283C170.204 256.12 170.495 256.038 170.817 256.038C171.093 256.038 171.333 256.094 171.538 256.206C171.748 256.318 171.909 256.465 172.021 256.647V256.094H173.218V260H172.021V259.447C171.905 259.629 171.741 259.776 171.531 259.888C171.326 260 171.086 260.056 170.81 260.056C170.493 260.056 170.204 259.974 169.942 259.811C169.681 259.643 169.473 259.407 169.319 259.104C169.17 258.796 169.095 258.441 169.095 258.04ZM172.021 258.047C172.021 257.748 171.937 257.513 171.769 257.34C171.606 257.167 171.405 257.081 171.167 257.081C170.929 257.081 170.726 257.167 170.558 257.34C170.395 257.508 170.313 257.741 170.313 258.04C170.313 258.339 170.395 258.577 170.558 258.754C170.726 258.927 170.929 259.013 171.167 259.013C171.405 259.013 171.606 258.927 171.769 258.754C171.937 258.581 172.021 258.346 172.021 258.047Z" fill="#33535F"/>
</svg>
